<svg width="100" height="100" viewBox="0 0 100 100" fill="none" xmlns="http://www.w3.org/2000/svg">
<rect width="100" height="100" fill="white"/>
<path fill-rule="evenodd" clip-rule="evenodd" d="M44.3744 83.524C40.4828 85.4738 35.9204 85.6326 31.6032 85.0773C23.2454 84.0023 14.8052 79.9505 10.6494 72.6198C8.85684 69.4577 7.95149 65.8722 7.32074 62.2926C6.47836 57.5119 6.13808 52.3723 8.25489 48.0038C10.0394 44.3211 13.3511 41.6412 16.6505 39.2202C20.1085 36.6829 23.8545 34.2161 28.1135 33.709C40.3991 33.4657 39.1545 38.0808 51.985 30.7406C55.7148 28.6068 66.8042 32.2696 70.551 33.4657C74.2978 34.6617 81.6914 38.3517 86.7056 42.7351C88.8015 44.5673 90.7347 46.6643 91.9126 49.1867C93.6762 52.9633 93.5907 57.3629 92.7678 61.449C91.9378 65.5705 90.1359 69.8572 86.4756 71.9256C84.8219 72.8601 82.9151 73.2609 81.0218 73.4143C73.1151 74.0548 64.7044 70.6792 57.4689 73.9309C52.5156 76.1569 49.2297 81.0914 44.3744 83.524Z" fill="#0087E8"/>
<path fill-rule="evenodd" clip-rule="evenodd" d="M14.7277 49.5983C16.2134 48.1348 17.6098 46.6259 18.5496 45.3108C19.8431 43.5006 21.7398 41.7794 23.9872 41.4474C26.6081 41.0601 29.0151 42.867 30.9202 44.708C33.5522 47.2514 35.9143 50.074 37.954 53.113C37.1358 53.2196 35.3727 54.44 33.0296 54.4013C31.6504 54.3785 30.0026 53.1493 28.4098 53.0672C27.3034 53.0102 26.0956 54.1683 24.9816 54.08C23.0337 53.9255 21.2119 52.4914 19.5687 52.232C18.5898 52.0774 17.2688 53.0505 16.5163 52.8553C14.4484 52.3189 13.8356 50.477 14.7277 49.5983Z" fill="white"/>
<path fill-rule="evenodd" clip-rule="evenodd" d="M59.2798 72.3688C65.701 70.2516 72.6591 72.7053 79.4197 72.6148C82.4149 72.5746 85.6167 71.9136 87.6786 69.7407C83.1623 67.0817 79.7343 62.853 77.2373 58.2451C74.7403 53.6372 73.0986 48.6241 71.4704 43.6424C69.328 42.4209 66.5704 44.4867 64.2188 43.7438C63.0172 43.3641 61.5821 42.3328 60.7197 43.2517C60.1992 43.8064 59.2297 43.4801 58.7234 42.9124C58.2171 42.3446 57.935 41.5899 57.3641 41.0872C56.7932 40.5845 55.7096 40.5212 55.419 41.2242C54.9161 42.4412 54.386 43.6983 53.4217 44.5951C52.4574 45.4919 50.9287 45.9248 49.7992 45.2477C48.917 44.7187 48.5006 43.6894 47.9867 42.7983C47.4729 41.9072 47.2724 41.1061 46.2506 41.2242C42.7988 48.4967 40.2219 55.6459 35.9755 62.485C34.1508 65.4238 23.9416 76.6266 18.0095 75.1828C12.0774 73.739 12.5175 72.6148 10.5142 70.8394C12.601 75.0848 16.2874 78.4251 20.4964 80.5842C24.7055 82.7432 29.4199 83.7813 34.1355 84.1563C35.9963 84.3043 37.8836 84.3509 39.7152 83.9909C47.2215 82.5157 52.0146 74.7643 59.2798 72.3688Z" fill="white"/>
<path fill-rule="evenodd" clip-rule="evenodd" d="M52.8426 44.0016C53.5003 43.1518 53.9113 42.1294 54.589 41.2954C55.2668 40.4614 56.3673 39.8149 57.3926 40.137C58.3467 40.4368 58.8715 41.4323 59.2969 42.3373C59.5105 42.7917 60.1598 42.8269 60.6277 42.6447C61.0955 42.4625 61.5162 42.133 62.0154 42.0786C63.0481 41.9659 63.826 43.0357 64.8353 43.282C66.3371 43.6486 67.8468 42.116 69.331 42.5485C69.9591 42.7315 70.5028 43.2566 71.1555 43.2117C69.9002 40.2028 68.9547 37.0693 67.6367 34.0872C66.3188 31.1051 64.5806 28.2269 62.0503 26.1708C61.7901 25.9594 61.5054 25.7501 61.1729 25.7077C60.8403 25.6653 60.4551 25.8541 60.3968 26.1843C60.2236 27.1657 60.0503 28.1472 59.8771 29.1287C59.7913 29.6146 59.5649 30.2246 59.0715 30.2154C58.7428 30.2092 58.4904 29.887 58.4452 29.5613C58.3999 29.2357 58.509 28.9106 58.6166 28.5999C58.9535 27.6265 59.2905 26.6531 59.6274 25.6797C57.3157 26.5138 55.312 28.0621 53.6511 29.8734C51.9901 31.6847 50.6468 33.7605 49.3593 35.8538C48.257 37.6461 47.1891 39.4596 46.1564 41.2929C47.5412 41.0963 48.7473 42.2334 49.5308 43.392C49.9996 44.0853 50.5578 44.9112 51.3947 44.9081C51.9847 44.9059 52.4814 44.4682 52.8426 44.0016Z" fill="white"/>
<path fill-rule="evenodd" clip-rule="evenodd" d="M61.799 23.0534C61.6457 23.0042 61.4848 22.9482 61.3804 22.8256C61.2302 22.6492 61.2401 22.3914 61.2582 22.1604C61.4369 19.8777 61.6157 17.595 61.7944 15.3123C61.8152 15.0478 62.0746 14.8528 62.3371 14.8137C62.5995 14.7747 62.8635 14.8541 63.1169 14.9327C64.7516 15.4393 66.3863 15.946 68.021 16.4527C68.4199 16.5763 68.4412 17.1301 68.3572 17.5393C68.2731 17.9484 68.2101 18.4738 68.5673 18.6903C70.9513 20.1356 73.4846 21.3346 76.1137 22.2619C76.2837 22.3219 76.2962 22.5803 76.1775 22.7159C76.0588 22.8515 75.8693 22.8952 75.6931 22.9328C73.0237 23.5024 70.4117 24.3402 67.9091 25.4296C67.559 25.5821 67.1017 25.7214 66.8374 25.4457C66.6493 25.2496 66.6674 24.943 66.6515 24.6717C66.6356 24.4005 66.5159 24.0756 66.2463 24.0414C64.7377 23.8497 63.2469 23.5185 61.799 23.0534ZM67.3995 18.4233C67.7652 17.8442 67.5045 16.9688 66.8815 16.6842C65.4042 16.009 63.8537 15.494 62.266 15.1511C62.5299 15.5582 62.5158 16.079 62.4925 16.5636C62.4032 18.4244 62.3112 20.3024 61.8254 22.1009C61.7834 22.2564 61.9834 22.3575 62.1406 22.3927C63.5487 22.7075 64.9674 22.9752 66.3934 23.195C66.276 21.8207 66.1585 20.4463 66.041 19.0719C66.028 18.9192 66.0159 18.7596 66.0741 18.6178C66.1683 18.388 66.43 18.2631 66.6783 18.256C66.9266 18.2489 67.1667 18.3368 67.3995 18.4233ZM67.0933 19.5066C67.2055 21.1192 67.3177 22.7318 67.4298 24.3445C67.4396 24.4858 67.4562 24.6419 67.5607 24.7376C69.8338 23.794 72.1887 23.0474 74.5902 22.5089C71.9879 21.7617 69.7926 19.7177 67.0933 19.5066Z" fill="#FFB61D"/>
<path fill-rule="evenodd" clip-rule="evenodd" d="M44.3744 83.5251C40.4828 85.4749 35.9204 85.6336 31.6032 85.0784C23.2453 84.0034 14.8051 79.9516 10.6494 72.6209C8.8568 69.4588 7.95146 65.8733 7.32071 62.2936C6.97467 60.3297 6.30262 57.3884 7.53319 56.0534C7.80815 55.7551 15.5323 49.5346 18.5495 45.3124C19.8431 43.5022 21.7398 41.7811 23.9872 41.449C26.608 41.0618 29.015 42.8686 30.9202 44.7097C33.5522 47.253 35.9142 50.0756 37.9539 53.1147C35.7062 52.1598 34.0885 50.1751 32.5954 48.2426C31.1023 46.31 29.5595 44.2878 27.3737 43.1987C25.1879 42.1095 22.1523 42.2909 20.7327 44.2781C17.349 49.0144 13.0687 53.1078 8.18622 56.2769C7.81899 56.5153 7.78579 57.0306 7.79267 57.4684C7.87204 62.5213 8.43697 68.2758 12.4793 71.3087C15.8556 73.8419 20.7567 73.5114 24.4551 71.4771C28.1535 69.4428 30.8583 66.002 33.1804 62.4772C39.992 52.1377 44.415 40.3193 51.7364 30.3342C53.4194 28.0388 55.4023 25.7433 58.1139 24.878C59.9233 24.3006 60.4305 21.9918 60.3972 20.0929C60.364 18.1939 60.1843 16.0349 61.5029 14.668C61.2249 17.8258 60.947 20.9837 60.6691 24.1416C64.719 26.1522 67.0845 30.4332 68.8205 34.6082C71.3985 40.8079 73.1484 47.3334 75.8623 53.4748C78.5763 59.6161 82.4288 65.5171 88.1235 69.0741C90.7595 65.6423 92.2626 60.1486 92.2626 57.0091C90.7595 55.3707 88.6242 52.8077 86.126 51.6537C83.1479 50.278 79.8809 52.6899 77.4886 54.9345C78.8107 52.9219 80.3981 50.8034 82.7377 50.2334C84.6263 49.7733 86.6476 50.4596 88.2146 51.6099C89.7816 52.7603 90.9762 54.3347 92.1477 55.886C93.3321 56.2769 93.5906 57.3639 92.7678 61.4501C91.9378 65.5716 90.1359 69.8583 86.4756 71.9267C84.8219 72.8612 82.9151 73.262 81.0218 73.4154C73.1151 74.0559 64.7044 70.6802 57.4689 73.9319C52.5155 76.158 49.2296 81.0925 44.3744 83.5251ZM59.2798 72.3685C65.701 70.2513 72.6591 72.705 79.4197 72.6144C82.4149 72.5743 85.6167 71.9132 87.6786 69.7404C83.1623 67.0813 79.7343 62.8526 77.2373 58.2447C74.7403 53.6368 73.0986 48.6237 71.4704 43.6421C69.328 42.4205 66.5704 44.4863 64.2188 43.7434C63.0172 43.3637 61.5821 42.3324 60.7197 43.2514C60.1991 43.8061 59.2297 43.4798 58.7234 42.912C58.2171 42.3443 57.935 41.5896 57.3641 41.0868C56.7932 40.5841 55.7096 40.5208 55.419 41.2238C54.9161 42.4409 54.386 43.698 53.4217 44.5948C52.4574 45.4916 50.9286 45.9245 49.7992 45.2473C48.917 44.7184 48.5006 43.6891 47.9867 42.798C47.4729 41.9069 46.6217 41.0159 45.5999 41.1341C42.1482 48.4066 38.2869 55.4847 34.0406 62.3237C32.2159 65.2626 30.2847 68.1986 27.6712 70.465C25.0578 72.7313 21.645 74.2815 18.2002 73.9662C15.4204 73.7119 12.8953 72.2961 10.5142 70.8391C12.601 75.0845 16.2873 78.4247 20.4964 80.5838C24.7055 82.7429 29.4199 83.781 34.1355 84.156C35.9963 84.3039 37.8836 84.3505 39.7152 83.9906C47.2215 82.5153 52.0146 74.7639 59.2798 72.3685ZM52.7092 43.4694C53.367 42.6196 53.7779 41.5972 54.4557 40.7632C55.1334 39.9292 56.234 39.2827 57.2592 39.6048C58.2133 39.9046 58.7382 40.9 59.1636 41.8051C59.3772 42.2595 60.0264 42.2947 60.4943 42.1125C60.9622 41.9303 61.3829 41.6008 61.882 41.5463C62.9147 41.4336 63.6926 42.5035 64.7019 42.7498C66.2038 43.1164 67.7135 41.5837 69.1977 42.0162C69.8258 42.1993 70.3695 42.7244 71.0222 42.6795C69.7668 39.6705 68.8282 36.7077 67.5103 33.7256C66.1924 30.7434 63.3296 25.4696 61.0395 25.1755C58.7234 24.878 55.1787 27.5299 53.5177 29.3412C51.8568 31.1524 50.5135 33.2283 49.226 35.3216C48.1236 37.1139 47.0557 38.9273 46.023 40.7606C47.4078 40.564 48.614 41.7011 49.3975 42.8598C49.8663 43.553 50.4245 44.379 51.2613 44.3759C51.8514 44.3737 52.348 43.936 52.7092 43.4694Z" fill="#00160A"/>
<path fill-rule="evenodd" clip-rule="evenodd" d="M42.5015 19.2839C41.0466 19.4316 39.8598 20.7089 39.2605 22.4375C39.1047 22.8868 38.5931 23.0943 37.6957 23.1808L37.6391 23.186C35.652 23.3632 34.3328 23.875 33.6968 25.045L33.6702 25.095C33.6185 25.1945 33.5741 25.2939 33.5093 25.4509L33.4675 25.5531C33.3174 25.922 33.2406 26.0781 33.1122 26.2404C32.7122 26.7462 32.1102 26.9018 30.9056 26.938L30.7718 26.9415C27.8857 27.0058 25.8468 27.4443 24.1952 28.5977C23.7227 28.9277 23.4414 29.2552 23.3784 29.675C23.3063 30.1562 23.5858 30.6543 24.032 30.9278C24.3891 31.1467 24.8174 31.2331 25.3523 31.2347C26.0031 31.2366 26.6539 31.1233 27.2657 30.9016L27.3167 30.8829C27.4088 30.8487 27.4962 30.8139 27.6261 30.7601L27.9012 30.6453C28.4654 30.4119 28.7392 30.3291 29.0825 30.3111C29.6122 30.2833 30.0302 30.4231 30.9203 30.858L31.1075 30.9499C31.3013 31.0447 31.4411 31.1108 31.5782 31.1709L31.6155 31.1872C33.1088 31.8321 34.6355 31.94 37.115 31.751L37.6043 31.7115L38.6878 31.6198C38.9723 31.5967 39.1759 31.5819 39.4105 31.567L39.6368 31.5537C40.6027 31.5011 41.6337 31.5002 43.3172 31.5338L44.4752 31.558C46.7959 31.6038 47.8421 31.5914 48.9575 31.4766C50.2534 31.3432 51.0973 30.4384 51.4433 29.098C51.7237 28.0116 51.6217 26.744 51.231 26.1417C50.4508 24.939 49.2864 24.2147 48.215 24.5485C47.8598 24.6591 47.4131 24.3983 47.1851 23.9704C47.0613 23.738 46.9984 23.5284 46.8952 23.0587L46.8452 22.8313C46.8164 22.7028 46.7953 22.6169 46.7686 22.5203C46.4051 21.205 45.4125 20.0818 44.1518 19.5594C43.5986 19.3302 43.0358 19.2297 42.5015 19.2839ZM43.9987 19.929C45.1261 20.3961 46.0216 21.3957 46.3657 22.5662L46.383 22.6268C46.4078 22.7166 46.4278 22.7979 46.4556 22.9217L46.5173 23.2023C46.6212 23.6684 46.6914 23.8944 46.8321 24.1585C47.1357 24.7283 47.7451 25.0917 48.3007 24.9401L48.334 24.9304C49.1935 24.6626 50.2015 25.2897 50.8954 26.3594C51.2177 26.8563 51.3107 28.0113 51.056 28.998C50.7483 30.1902 50.0261 30.9645 48.9166 31.0787L48.7922 31.0911C47.7706 31.1894 46.7543 31.2012 44.6585 31.1615L43.1283 31.1301C41.55 31.1003 40.5543 31.1031 39.6145 31.1543L39.2459 31.1769C38.9827 31.1945 38.7318 31.2142 38.3219 31.2488L37.192 31.3438C34.7447 31.5367 33.2567 31.4443 31.8368 30.8466L31.7742 30.8199C31.6555 30.7687 31.5369 30.7137 31.3814 30.6384L31.0302 30.4667C30.1228 30.0266 29.6677 29.8799 29.0616 29.9117C28.6472 29.9334 28.3374 30.03 27.6946 30.298L27.4104 30.4164C27.2979 30.4625 27.2194 30.4929 27.1294 30.5256C26.5617 30.7313 25.9574 30.8365 25.3535 30.8347C24.8854 30.8333 24.5245 30.7605 24.2411 30.5868C23.9229 30.3918 23.7276 30.0437 23.774 29.7344C23.8165 29.4514 24.0338 29.1984 24.4242 28.9257C25.9752 27.8425 27.9141 27.4155 30.6686 27.3441L30.7807 27.3414C32.1937 27.3099 32.9089 27.1422 33.4259 26.4886C33.5723 26.3035 33.6586 26.1376 33.7985 25.8003L33.9067 25.5372C33.9615 25.407 34.0003 25.3243 34.0483 25.236C34.5846 24.2494 35.7404 23.7784 37.5141 23.5997L37.6746 23.5844C38.7373 23.4897 39.3838 23.2432 39.6254 22.6044L39.6384 22.5685C40.1921 20.9716 41.2705 19.8109 42.5418 19.6819C42.9855 19.6369 43.4601 19.7162 43.934 19.9028L43.9987 19.929Z" fill="#00160A"/>
<path fill-rule="evenodd" clip-rule="evenodd" d="M85.8541 27.5623L85.8048 27.6117C85.7671 27.6501 85.7299 27.69 85.6839 27.7409L85.5008 27.9468C85.3263 28.1423 85.232 28.2354 85.1086 28.3286C84.8398 28.5315 84.5178 28.5942 84.3036 28.4743C84.2174 28.4261 84.1534 28.3629 84.0296 28.2108L83.9374 28.0972C83.8894 28.0391 83.8552 28.0008 83.8133 27.9585C83.2613 27.4023 82.2972 27.3754 81.5633 27.8182C80.989 28.1647 80.5762 28.6956 80.1242 29.5402C79.9396 29.8852 79.5336 30.1238 79.0506 30.1967C78.8161 30.2322 78.5693 30.2348 78.2537 30.2114L78.0993 30.1985L77.6142 30.1493C75.0614 29.8975 72.4507 30.2582 70.0617 31.1928C69.6848 31.3403 69.4752 31.4725 69.3421 31.7186C69.1502 32.0734 69.3447 32.5883 69.7544 32.611C76.7572 32.9991 83.7886 32.8665 90.7717 32.2148L91.2147 32.1732L91.538 32.151C91.5681 32.1488 91.5929 32.1467 91.6239 32.144L91.7068 32.1357C92.3439 32.065 92.6938 31.8537 92.6938 31.324C92.6938 30.8124 92.4471 30.6725 91.8244 30.609L91.6997 30.5959C91.4585 30.5696 91.3485 30.5498 91.1997 30.5037C90.6716 30.3401 90.0426 29.999 89.9053 29.8286C89.7023 29.5766 89.6158 29.3394 89.4924 28.788L89.4535 28.6135C89.3237 28.0456 89.2205 27.7746 88.9761 27.4707C88.2626 26.5837 86.7401 26.6922 85.8541 27.5623ZM88.6644 27.7214C88.867 27.9734 88.9535 28.2106 89.0767 28.7611L89.1157 28.9356C89.2457 29.5045 89.3489 29.7755 89.5938 30.0795C89.7919 30.3254 90.4841 30.7007 91.0813 30.8858L91.1362 30.9022C91.279 30.9434 91.3988 30.9644 91.6082 30.9882L91.8841 31.0179C92.2361 31.0595 92.2938 31.1096 92.2938 31.324C92.2938 31.585 92.1048 31.6945 91.6287 31.7417L91.5071 31.7522L91.2026 31.7729C91.1879 31.774 91.1742 31.7752 91.1608 31.7763L91.1214 31.7799C84.0309 32.4613 76.8888 32.6058 69.7766 32.2116C69.6954 32.2071 69.6284 32.03 69.6939 31.9088C69.7677 31.7724 69.9141 31.6801 70.2075 31.5653C72.4974 30.6695 74.9972 30.3141 77.4461 30.5352L77.7457 30.5648L77.9932 30.5902C78.0511 30.5959 78.099 30.6002 78.1519 30.6046C78.5291 30.636 78.8231 30.6356 79.1104 30.5922C79.7084 30.5019 80.2261 30.1977 80.4769 29.7289C80.8978 28.9425 81.2721 28.4611 81.77 28.1607C82.3574 27.8062 83.1197 27.8275 83.5294 28.2403L83.5533 28.265C83.573 28.286 83.5928 28.3086 83.6172 28.3378L83.694 28.432C83.8656 28.6453 83.957 28.7387 84.1082 28.8234C84.4808 29.0319 84.9659 28.9374 85.3495 28.6479C85.4904 28.5416 85.5938 28.4414 85.7647 28.2517L85.978 28.0121C86.0399 27.9435 86.0837 27.8975 86.1344 27.8477C86.8663 27.1289 88.1162 27.0398 88.6644 27.7214Z" fill="#00160A"/>
<path fill-rule="evenodd" clip-rule="evenodd" d="M60.3973 20.0929C60.364 18.1939 60.1843 16.0349 61.5029 14.668C61.2249 17.8258 60.947 20.9837 60.6691 24.1416C61.1204 24.3656 60.4474 24.7404 60.0395 24.7479C58.5783 24.7749 60.4305 21.9918 60.3973 20.0929Z" fill="#FFB61D"/>
</svg>
