<svg width="100" height="100" viewBox="0 0 100 100" fill="none" xmlns="http://www.w3.org/2000/svg">
<rect width="100" height="100" fill="white"/>
<path fill-rule="evenodd" clip-rule="evenodd" d="M79.6236 27.6649C66.7008 20.2492 56.6249 42.0169 49.3065 44.7572C34.5573 50.2799 7.16178 55.0832 12.3864 65.82C19.5601 80.5625 44.5207 82.0335 62.3704 80.5625C85.5874 78.6493 105.031 42.2448 79.6236 27.6649Z" fill="#0087E8"/>
<path fill-rule="evenodd" clip-rule="evenodd" d="M77.7498 51.4278C77.8829 51.5453 77.9282 51.7292 77.9615 51.9052L78.164 53.0098C78.1921 53.1634 78.3211 53.2361 78.3707 53.1487C78.4232 53.0561 78.5635 53.0945 78.6575 53.1445L79.831 53.769C79.4318 54.0556 78.9607 54.2413 78.4733 54.3042C78.233 54.3352 78.1941 54.6643 78.2197 54.9053L78.2892 55.5607C78.3108 55.765 77.9895 55.8344 77.829 55.7062C77.6685 55.5781 77.6077 55.3636 77.4812 55.2017C77.2769 54.9403 76.9158 54.8429 76.5854 54.8731C76.255 54.9034 75.9456 55.0419 75.6433 55.1785C75.4484 55.2666 75.2339 55.0333 75.2492 54.82C75.2626 54.6317 75.383 54.4739 75.5058 54.327L75.5548 54.2688C75.6926 54.1052 75.8304 53.9113 75.8071 53.6986C75.7877 53.5216 75.6613 53.379 75.5345 53.2517L75.4603 53.1772C75.3427 53.0571 75.2311 52.9235 75.2105 52.7592C75.1869 52.5714 75.3584 52.3552 75.5384 52.4134C76.232 52.6376 77.0671 52.2005 77.2782 51.5028C77.333 51.3216 77.6078 51.3025 77.7498 51.4278Z" fill="white"/>
<path fill-rule="evenodd" clip-rule="evenodd" d="M77.7498 51.4278C77.8829 51.5453 77.9282 51.7292 77.9615 51.9052L78.164 53.0098C78.1921 53.1634 78.1303 53.4012 77.9837 53.3474C77.7749 52.9047 77.6638 52.4162 77.6606 51.9267C77.5809 51.8501 77.4624 51.964 77.4128 52.0627L76.9176 53.0493C76.8304 53.2231 76.5701 53.1847 76.3983 53.0939L76.3062 53.0451C76.1571 52.9678 75.9947 52.8993 75.8534 52.9756C75.7813 53.1916 76.102 53.2993 76.2684 53.4548C76.4584 53.6324 76.4472 53.9513 76.3144 54.1748C76.1815 54.3984 75.957 54.5491 75.7399 54.6922C76.0518 54.7437 76.3845 54.6526 76.6267 54.4493C76.7361 54.3574 76.8362 54.2396 76.9761 54.2103C77.1924 54.1651 77.3867 54.3527 77.4989 54.543C77.6112 54.7333 77.7001 54.9562 77.8919 55.066C77.9879 54.9147 77.9366 54.7247 77.8761 54.5498L77.8473 54.4683C77.778 54.2727 77.7468 54.0137 77.917 53.895C77.9809 53.8504 78.0604 53.8373 78.1386 53.8288L78.9756 53.745L78.4934 53.3937C78.4122 53.3345 78.3211 53.2361 78.3707 53.1487C78.4232 53.0561 78.5635 53.0945 78.6575 53.1445L79.831 53.769C79.4318 54.0556 78.9607 54.2413 78.4733 54.3042C78.233 54.3352 78.1941 54.6643 78.2197 54.9053L78.2892 55.5607C78.3108 55.765 77.9895 55.8344 77.829 55.7062C77.6685 55.5781 77.6077 55.3636 77.4812 55.2017C77.2769 54.9403 76.9158 54.8429 76.5854 54.8731C76.255 54.9034 75.9456 55.0419 75.6433 55.1785C75.4484 55.2666 75.2339 55.0333 75.2492 54.82C75.2626 54.6317 75.383 54.4739 75.5058 54.327L75.5548 54.2688C75.6926 54.1052 75.8304 53.9113 75.8071 53.6986C75.7877 53.5216 75.6613 53.379 75.5345 53.2517L75.4603 53.1772C75.3427 53.0571 75.2311 52.9235 75.2105 52.7592C75.1869 52.5714 75.3584 52.3552 75.5384 52.4134C76.232 52.6376 77.0671 52.2005 77.2782 51.5028C77.333 51.3216 77.6078 51.3025 77.7498 51.4278Z" fill="#FFB61D"/>
<path fill-rule="evenodd" clip-rule="evenodd" d="M31.5766 31.6178C31.0744 29.386 32.4426 25.6814 34.8871 24.1919C37.3317 22.7023 40.4585 22.6003 43.181 23.4848C43.0942 20.8548 45.7614 18.598 48.3838 18.8153C51.0063 19.0326 53.1822 21.387 53.5345 23.9948C53.8091 26.0267 52.766 28.4469 50.749 28.815C51.4619 31.3625 51.8584 34.0428 51.4671 36.6591C51.0757 39.2754 49.8306 41.8311 47.7295 43.4383C47.1493 44.2186 47.5875 45.3957 48.3512 45.9975C49.1149 46.5993 50.1033 46.8109 51.0172 47.143C54.8463 48.5346 57.5422 52.3124 58.1706 56.3378C58.799 60.3632 57.5439 64.5379 55.2755 67.9222C53.7218 70.2403 51.6082 72.2989 48.9639 73.1904C45.2522 74.4417 41.1827 73.2233 37.5786 71.6896C36.2047 71.1049 34.8056 70.4405 33.8357 69.3052C32.7961 68.0882 30.8311 68.7455 29.4141 69.4899C30.3563 69.8808 31.2985 70.2717 32.2407 70.6627C32.4432 70.7467 32.6628 70.8465 32.7567 71.0445C32.9544 71.4615 32.4675 71.8627 32.0554 72.0702C31.6125 72.2932 31.1697 72.5162 30.7268 72.7392C28.0086 74.108 25.1776 75.5066 22.1354 75.5911C18.8093 75.6835 15.6674 74.1969 12.674 72.744C12.3412 72.5825 11.9885 72.4027 11.8076 72.0801C11.6267 71.7576 11.7278 71.2545 12.0854 71.1599C15.4435 70.2719 18.6229 68.7132 21.3816 66.6025C21.1706 65.2885 21.2203 63.9332 21.5271 62.6383C21.5715 62.451 21.6353 62.2456 21.8022 62.1498C22.2125 61.9141 22.569 62.535 22.6415 63.0027C22.8245 64.1831 23.0075 65.3636 23.1905 66.544C25.3881 66.3009 27.5209 65.4937 29.3287 64.2208C27.9187 63.0853 26.5087 61.9498 25.0987 60.8143C24.2851 60.1591 23.4999 59.7671 23.0605 58.4842C22.7676 57.6289 23.004 56.7503 23.7697 55.8484C22.9149 51.5884 22.5409 48.3771 22.6476 46.2145C22.6761 45.6373 22.7407 45.0142 23.1293 44.5863C23.8151 43.8311 25.1618 44.1568 25.7878 44.9623C26.4138 45.7678 26.5186 46.8488 26.5995 47.8657C28.9831 47.5745 31.3666 47.2833 33.7502 46.9921C34.6223 46.8855 35.5253 46.7814 36.3647 47.041C37.4177 47.3666 38.2635 48.2889 38.4969 49.3661C39.5027 49.0943 40.5982 48.7595 41.1662 47.886C41.7342 47.0126 41.2531 45.4934 40.2122 45.5385C36.9561 45.6794 33.7717 43.2632 33.0307 40.0895C32.8422 39.2823 32.7689 38.3853 32.2023 37.7804C31.3044 36.8217 30.6202 35.5859 30.6246 34.2724C30.629 32.9589 31.1793 32.8022 31.5766 31.6178ZM12.1404 72.0399C12.2137 72.1494 12.3417 72.2068 12.4629 72.2586C13.7063 72.7908 14.9497 73.3229 16.1931 73.855C16.7588 74.0971 17.3264 74.3399 17.9181 74.5092C19.5681 74.9813 21.3462 74.8662 22.9868 75.3702C23.1857 75.4313 23.3993 75.3682 23.5975 75.3044C25.0284 74.8435 26.4424 74.3303 27.8359 73.7663C29.2937 73.1763 30.7384 72.5253 32.0328 71.632C32.1505 71.5507 32.2727 71.4604 32.3265 71.3278C32.3802 71.1952 32.3307 71.0108 32.1931 70.9717C31.3195 70.7236 30.4587 70.4309 29.6149 70.0952C29.3436 69.9873 29.0383 69.8335 28.9807 69.5473C28.2374 69.5771 27.5874 70.046 27.0391 70.5488C26.4908 71.0516 25.9758 71.6194 25.3002 71.9308C24.6246 72.2423 23.7178 72.2154 23.2498 71.6371C23.1998 71.5754 23.1497 71.5043 23.0728 71.4842C22.9959 71.4641 22.8972 71.5407 22.933 71.6116C23.0258 71.7953 22.8265 72.0276 22.6211 72.0148C22.4157 72.002 22.2551 71.815 22.2045 71.6155C22.154 71.416 21.8795 71.7723 21.4818 71.8316C21.084 71.891 20.6621 71.6357 20.5299 71.2559C20.4211 70.9429 19.9942 70.9374 19.6679 70.8788C18.9262 70.7456 18.363 69.9683 18.4673 69.222C16.3357 69.9329 14.2427 70.7597 12.2006 71.6975C12.0808 71.7525 12.0671 71.9303 12.1404 72.0399Z" fill="white"/>
<path d="M42.0667 41.3331C42.6926 41.3331 43.2 40.8257 43.2 40.1997C43.2 39.5738 42.6926 39.0664 42.0667 39.0664C41.4408 39.0664 40.9333 39.5738 40.9333 40.1997C40.9333 40.8257 41.4408 41.3331 42.0667 41.3331Z" fill="#FFB61D"/>
<path d="M34.2 40.3992C34.5314 40.3992 34.8 40.1306 34.8 39.7992C34.8 39.4678 34.5314 39.1992 34.2 39.1992C33.8687 39.1992 33.6 39.4678 33.6 39.7992C33.6 40.1306 33.8687 40.3992 34.2 40.3992Z" fill="#FFB61D"/>
<path fill-rule="evenodd" clip-rule="evenodd" d="M47.4789 44.7476C47.5828 45.2863 47.8913 45.8082 48.302 46.1318C49.0657 46.7337 50.7823 47.3533 51.6962 47.6855C51.7793 47.7157 51.3104 47.9805 50.7052 48.566C49.0665 50.1513 45.4834 52.99 41.983 51.5635C41.5739 51.3967 41.2317 51.2048 40.9531 51.0013C40.6963 50.8139 43.053 51.0839 45.2562 50.6662C47.4714 50.2462 49.5324 49.1367 48.9808 48.257C48.4622 47.4302 47.0039 46.0297 46.8901 45.2059C46.7386 44.1084 47.3896 44.2846 47.4789 44.7476Z" fill="#E7EAEE"/>
<path fill-rule="evenodd" clip-rule="evenodd" d="M12.0955 71.7283C12.0955 71.2887 13.4817 70.933 15.8515 70.0415C17.4815 69.4284 20.6585 67.6544 22.2216 67.5718C23.2617 67.5168 27.4184 69.0385 30.1311 70.1314C31.4951 70.6809 32.5472 71.0252 32.5472 71.2014C32.5472 71.5555 29.6511 73.2651 26.6911 74.3888C25.2463 74.9372 23.8908 75.4284 22.6476 75.3952C18.8576 75.2941 12.0955 72.8414 12.0955 71.7283Z" fill="white"/>
<path fill-rule="evenodd" clip-rule="evenodd" d="M65.6376 35.2132C60.2029 37.5345 55.6626 41.5008 51.3368 45.5342L51.0722 45.7813C50.8199 46.0171 50.4368 46.2637 50.1645 46.0512L51.0051 45.286C55.4032 41.2901 59.9506 37.3278 65.3923 34.9737C69.5761 33.1638 69.5317 33.5501 65.6376 35.2132ZM42.2277 73.8777L44.7771 76.6547C44.9021 76.7908 45.0322 76.9369 45.0672 77.1183C45.1021 77.2997 44.997 77.5212 44.8132 77.5404L39.5641 78.0893C38.6922 78.1805 37.803 77.576 37.552 76.736C37.3009 75.8961 37.7028 74.9122 38.4621 74.4742C39.2215 74.0362 40.2631 74.1744 40.8934 74.7836C41.0496 74.9345 41.3238 74.8063 41.4346 74.6196C41.5455 74.4329 41.5694 74.2039 41.6839 74.0194C41.7985 73.8349 42.0808 73.7178 42.2277 73.8777ZM37.9947 75.4806C37.6691 76.0984 37.875 76.9352 38.4321 77.3561C38.7051 77.5623 39.0403 77.6729 39.3781 77.7274C39.8553 77.8043 40.4088 77.7461 40.7156 77.3726C40.8275 77.2363 40.8962 77.0691 40.943 76.899C41.0989 76.3329 41.0196 75.7057 40.7278 75.1962C40.6483 75.0574 40.5261 74.9127 40.3664 74.9196C40.2905 74.9228 40.22 74.9612 40.1445 74.969C40.0187 74.9819 39.9023 74.9102 39.7877 74.8568C39.1547 74.562 38.3202 74.8629 37.9947 75.4806ZM42.0012 74.4348C41.901 74.8527 41.6936 75.2445 41.4043 75.5623C41.3228 75.6518 41.3428 75.7901 41.3593 75.91C41.4397 76.494 41.3067 77.1049 40.9909 77.6027C41.5084 77.4801 42.0376 77.4069 42.569 77.3843C43.2974 77.3533 44.0573 77.4117 44.7248 77.1187C44.3682 76.9635 44.0655 76.6874 43.8782 76.3465C43.7681 76.146 43.6157 75.9726 43.4646 75.8009L42.3037 74.4818C42.2198 74.3864 42.0308 74.3113 42.0012 74.4348ZM28.8184 74.4097C28.9848 74.9295 29.6109 75.1077 30.1533 75.2013L33.773 75.8057C34.61 75.9454 35.469 76.085 36.3014 75.92C36.4584 75.8888 36.5415 76.1382 36.4379 76.2603C36.3343 76.3823 36.154 76.3968 35.9939 76.3974C35.2687 76.3998 34.5478 76.3034 33.8301 76.1955L33.0656 76.079C31.7126 75.871 30.3603 75.6496 29.036 75.305C28.8093 75.246 28.5745 75.1786 28.401 75.0212C28.2274 74.8639 28.1372 74.5891 28.2593 74.3892C28.3814 74.1893 28.7469 74.1867 28.8184 74.4097ZM48.3838 18.8153C51.0063 19.0326 53.1822 21.387 53.5345 23.9948C53.8091 26.0267 52.766 28.4469 50.749 28.815C51.4619 31.3625 51.8584 34.0428 51.4671 36.6591C51.0757 39.2754 49.8306 41.8311 47.7295 43.4383C47.1493 44.2186 47.5875 45.3957 48.3512 45.9975C49.1149 46.5993 50.1033 46.8109 51.0172 47.143C54.8463 48.5346 57.5422 52.3124 58.1706 56.3378C58.799 60.3632 57.5439 64.5379 55.2755 67.9222C53.7218 70.2403 51.6082 72.2989 48.9639 73.1904C45.2894 74.4292 41.2641 73.2474 37.6868 71.7355L37.5786 71.6896C36.2333 71.1171 34.8639 70.4681 33.8969 69.3756L33.8357 69.3052C32.7961 68.0882 30.8311 68.7455 29.4141 69.4899L32.2407 70.6627C32.4432 70.7467 32.6628 70.8465 32.7567 71.0445C32.9544 71.4615 32.4675 71.8627 32.0554 72.0702L30.3957 72.9058C27.7787 74.2193 25.0543 75.51 22.1354 75.5911C18.8479 75.6824 15.7405 74.2312 12.7784 72.7947L12.5905 72.7031C12.2836 72.5515 11.9735 72.3758 11.8076 72.0801C11.6267 71.7576 11.7278 71.2545 12.0854 71.1599C15.4435 70.2719 18.6229 68.7132 21.3816 66.6025C21.1706 65.2885 21.2203 63.9332 21.5271 62.6383L21.5427 62.5754C21.5869 62.4067 21.6538 62.235 21.8022 62.1498C22.2125 61.9141 22.569 62.535 22.6415 63.0027L23.1905 66.544C25.3881 66.3009 27.5209 65.4937 29.3287 64.2208L24.985 60.7225C24.2073 60.0933 23.4199 59.4131 23.0605 58.4842C22.6835 57.51 22.9868 56.1895 23.961 55.8125C24.0378 52.1223 23.8433 48.4264 23.3795 44.7647C22.7382 48.4219 23.2536 52.1715 23.7697 55.8484C22.8847 52.785 22.5015 49.5772 22.6394 46.3915L22.6476 46.2145C22.6761 45.6373 22.7407 45.0142 23.1293 44.5863C23.8151 43.8311 25.1618 44.1568 25.7878 44.9623C26.4138 45.7678 26.5186 46.8488 26.5995 47.8657L33.9141 46.9722C34.7349 46.8739 35.5778 46.7977 36.3647 47.041C37.4177 47.3666 38.2635 48.2889 38.4969 49.3661L38.6684 49.3193C39.625 49.0546 40.6304 48.71 41.1662 47.886C41.7282 47.0219 41.2633 45.5257 40.2452 45.5376L40.2122 45.5385C36.9561 45.6794 33.7717 43.2632 33.0307 40.0895C32.8422 39.2823 32.7689 38.3853 32.2023 37.7804C31.3044 36.8217 30.6202 35.5859 30.6246 34.2724C30.629 32.9589 31.4665 31.6044 32.7419 31.2904C34.0173 30.9764 35.5267 32.0405 35.4166 33.3494C36.0354 33.2864 36.6684 33.3669 37.2516 33.5828C36.919 32.686 37.7812 31.6961 38.7288 31.566C39.6764 31.4358 40.5998 31.9091 41.3878 32.4513C42.1758 32.9934 42.9288 33.6316 43.845 33.9064L43.8872 33.8087C44.0766 33.3666 44.251 32.8945 44.1555 32.4271C44.053 31.9252 43.4875 31.491 43.0296 31.7209C42.7082 30.7999 42.1968 29.9458 41.5367 29.2277L39.7023 30.0925C39.4659 29.7386 39.3211 29.324 39.2857 28.8998C38.0745 29.592 36.7599 30.1029 35.3991 30.4101L35.5383 29.3711L31.4718 31.4833C30.8714 28.6844 32.4426 25.6814 34.8871 24.1919C37.3317 22.7023 40.4585 22.6003 43.181 23.4848C43.0942 20.8548 45.7614 18.598 48.3838 18.8153ZM68.3896 64.4342C66.0468 64.9995 63.7726 65.8483 61.6324 66.9562L61.4776 67.0371C60.2917 67.6619 59.1277 68.4105 58.3843 69.5214C58.8863 69.4343 59.4222 69.5652 59.8276 69.8737C60.0837 70.0686 60.2976 70.3609 60.2824 70.6823C60.2745 70.8489 60.2053 71.0079 60.112 71.1462C59.7473 71.6865 58.9752 71.9058 58.3809 71.638C57.7866 71.3702 57.4396 70.6465 57.6028 70.0154C55.0816 70.8762 52.9142 72.7281 51.6682 75.0825L51.6266 75.162C51.5652 75.2806 51.4902 75.4132 51.36 75.4427C51.181 75.4832 51.0216 75.2833 51.0298 75.0999C51.038 74.9166 51.1555 74.7587 51.2691 74.6145C52.7382 72.7489 54.4552 70.9731 56.6524 70.0727L56.8179 70.0062C57.3363 69.8006 57.8788 69.5988 58.2136 69.1603C59.0254 68.0967 60.1942 67.3666 61.381 66.7487C62.4432 66.1956 63.542 65.7129 64.6678 65.3045C65.7975 64.8948 66.9526 64.5605 68.1101 64.2366L72.0315 63.1448C70.9709 63.8902 69.6498 64.1301 68.3896 64.4342ZM18.4673 69.222C16.3357 69.9329 14.2427 70.7597 12.2006 71.6975C12.0808 71.7525 12.0671 71.9303 12.1404 72.0399C12.2137 72.1494 12.3417 72.2068 12.4629 72.2586L16.1931 73.855C16.7588 74.0971 17.3264 74.3399 17.9181 74.5092C19.5681 74.9813 21.3462 74.8662 22.9868 75.3702C23.1857 75.4313 23.3993 75.3682 23.5975 75.3044C25.0284 74.8435 26.4424 74.3303 27.8359 73.7663C29.2937 73.1763 30.7384 72.5253 32.0328 71.632C32.1505 71.5507 32.2727 71.4604 32.3265 71.3278C32.3802 71.1952 32.3307 71.0108 32.1931 70.9717C31.3195 70.7236 30.4587 70.4309 29.6149 70.0952L29.5564 70.0714C29.3013 69.9647 29.0342 69.813 28.9807 69.5473C28.2374 69.5771 27.5874 70.046 27.0391 70.5488C26.4908 71.0516 25.9758 71.6194 25.3002 71.9308C24.6246 72.2423 23.7178 72.2154 23.2498 71.6371L23.2196 71.5994C23.1787 71.549 23.1343 71.5003 23.0728 71.4842C22.9959 71.4641 22.8972 71.5407 22.933 71.6116C23.0258 71.7953 22.8265 72.0276 22.6211 72.0148C22.4157 72.002 22.2551 71.815 22.2045 71.6155C22.172 71.4872 22.1749 71.3546 22.1904 71.2224L22.1943 71.1899C22.103 71.5134 21.8167 71.7817 21.4818 71.8316C21.084 71.891 20.6621 71.6357 20.5299 71.2559C20.4211 70.9429 19.9942 70.9374 19.6679 70.8788C18.9262 70.7456 18.363 69.9683 18.4673 69.222ZM23.5049 56.7649C23.0655 57.5465 23.4736 58.5356 24.0148 59.2505C25.712 61.4922 28.5547 62.5681 30.4942 64.6037C30.9816 65.1152 31.4064 65.6819 31.8258 66.2508L33.1439 68.041C33.3861 68.37 33.6293 68.7 33.912 68.995C34.6491 69.7642 35.6197 70.2605 36.5797 70.7225C38.5275 71.6598 40.5314 72.521 42.6462 72.9684C44.761 73.4158 47.0081 73.4311 49.0429 72.7015C50.9473 72.0186 52.5884 70.7089 53.8634 69.138C55.108 67.6045 56.0216 65.8269 56.7538 63.9918L56.8071 63.8574C56.9125 63.5898 57.016 63.3098 56.9941 63.023C56.971 62.7197 56.8094 62.444 56.6208 62.2054C55.9017 61.2956 54.6998 60.781 53.5489 60.9232C52.4159 61.0632 51.3785 61.8493 50.9635 62.9116L50.9443 62.9624C50.0423 65.4073 47.7965 67.2461 45.2735 67.8986C42.7506 68.5511 40.0065 68.0835 37.7036 66.8638C35.4008 65.644 33.5217 63.7132 32.1206 61.5159L32.0441 61.3946C31.791 60.9883 31.5609 60.5609 31.4718 60.0922C31.3738 59.5767 31.4734 58.9968 31.8457 58.627C32.0917 58.3827 32.4417 58.2394 32.6206 57.9424C32.7995 57.6455 32.5894 57.121 32.2594 57.2271L32.0392 57.2967C30.5224 57.7687 28.7627 58.1348 27.5424 57.1528L27.4251 57.0589C26.8558 56.6065 26.2473 56.1746 25.54 56.019C24.7839 55.8527 23.8843 56.09 23.5049 56.7649ZM29.5512 64.688C27.7114 65.8504 25.6351 66.6368 23.4869 66.9848C23.2033 67.0308 23.127 67.3985 23.1226 67.6857C23.1084 68.5988 23.1526 69.5128 23.2548 70.4202C23.4875 70.3107 23.5827 70.0369 23.7414 69.8345C23.9 69.6321 24.2621 69.5212 24.3847 69.7473C24.4704 69.9052 24.356 70.103 24.21 70.2077C24.0641 70.3124 23.8845 70.3691 23.7543 70.4929C23.4305 70.801 23.5998 71.4067 23.9944 71.6167C24.389 71.8266 24.8881 71.717 25.2664 71.479C25.6447 71.241 25.937 70.892 26.2578 70.5807C26.9438 69.915 27.783 69.4081 28.6914 69.1105C29.8447 68.7327 31.1289 68.6766 32.1435 68.0108C32.2119 67.9659 32.2826 67.9133 32.3084 67.8357C32.3436 67.7298 32.284 67.6198 32.2208 67.5256L31.0069 65.7629C30.8135 65.4821 30.591 65.1805 30.2597 65.1001C30.1082 65.0634 29.9466 65.0776 29.798 65.0307C29.6493 64.9838 29.5093 64.8381 29.5512 64.688ZM21.0758 67.2486C20.6025 67.4695 20.3224 67.9891 20.2601 68.5077C20.1977 69.0263 20.3201 69.5485 20.4655 70.0502C20.5548 70.3582 20.6538 70.6652 20.8014 70.9499C20.8955 71.1314 21.0201 71.3124 21.2087 71.3913C21.3973 71.4702 21.6591 71.3993 21.7204 71.2042C21.7456 71.1239 21.7343 71.037 21.7197 70.9541C21.6648 70.6423 21.5662 70.3384 21.4279 70.0536L21.3698 69.9383C21.2866 69.7718 21.2083 69.5754 21.3153 69.4301C21.4174 69.2914 21.6685 69.234 21.6445 69.0634L21.4101 67.3972C21.4032 67.3485 21.3952 67.297 21.3635 67.2594C21.297 67.1802 21.1696 67.2048 21.0758 67.2486ZM58.6005 69.8186C58.4443 69.8179 58.2798 69.8394 58.1543 69.9326C58.0809 69.9871 58.0254 70.0633 57.9864 70.146C57.8215 70.4958 57.9736 70.9453 58.2861 71.1729C58.5986 71.4006 59.0317 71.422 59.3934 71.2855C59.6701 71.1812 59.9363 70.9449 59.927 70.6494C59.9197 70.4162 59.7427 70.2215 59.5475 70.0938C59.2686 69.9113 58.9338 69.82 58.6005 69.8186ZM21.9639 62.5267C21.9239 62.5565 21.9041 62.6056 21.8872 62.6525C21.6411 63.3354 21.6109 64.0756 21.6177 64.8014C21.6347 66.6213 21.8686 68.4391 22.3126 70.2041L22.3347 70.29C22.4255 70.6346 22.5496 70.9881 22.8307 71.2013C22.883 68.4043 22.7015 65.603 22.2888 62.8362C22.262 62.6566 22.1096 62.4184 21.9639 62.5267ZM19.7475 68.5386C19.6887 68.5551 19.651 68.6111 19.6216 68.6646C19.3816 69.1026 19.3654 69.6559 19.5794 70.1071C19.6753 70.3095 19.8398 70.5061 20.0624 70.5309C20.1531 70.418 20.1116 70.2552 20.0608 70.1169L20.0169 69.9998C19.8536 69.557 19.7195 69.0778 19.8635 68.6328C19.8823 68.5747 19.8062 68.5221 19.7475 68.5386ZM18.9468 69.1453C18.7785 69.5195 18.8535 69.9903 19.1297 70.2938C19.2437 70.1771 19.1936 69.9863 19.1546 69.8279C19.0937 69.5801 19.0799 69.3208 19.1143 69.0679C19.0718 69.0056 18.9777 69.0765 18.9468 69.1453ZM22.4944 55.8085C22.7495 56.0283 22.9118 56.5026 22.6088 56.6494C22.4146 56.7435 22.1947 56.6059 22.0113 56.4922C21.0588 55.9012 19.8409 55.8576 18.761 56.1583C17.6811 56.459 16.7157 57.0714 15.8096 57.7314C14.9072 58.3886 14.0372 59.1097 13.3587 59.9962C12.6802 60.8826 12.2002 61.9508 12.1609 63.0664C12.1137 64.4032 12.6912 65.6812 13.359 66.8402C13.7847 67.5789 14.2647 68.3072 14.9254 68.8435L15.0612 68.9509C15.2487 69.1014 15.4411 69.288 15.3933 69.5143C14.7457 69.4851 14.2756 68.9057 13.919 68.3643C13.4118 67.5945 12.9495 66.7951 12.5352 65.9716C12.1907 65.2868 11.8758 64.5733 11.7711 63.814C11.5743 62.3858 12.1541 60.9337 13.0553 59.8085C13.9565 58.6833 15.1559 57.8388 16.369 57.0599C17.2904 56.4682 18.2388 55.9007 19.2731 55.5413C20.3399 55.1706 21.6387 55.0715 22.4944 55.8085ZM49.8699 49.5184C48.3359 50.9502 46.297 51.8298 44.2029 51.963C43.2774 52.0219 42.3217 51.9334 41.4843 51.535C40.6468 51.1365 39.9414 50.3936 39.7468 49.4869L39.6773 49.5083C39.0711 49.7001 38.3772 50.0471 38.3833 50.6718C38.4092 53.3211 38.3475 55.9712 38.1984 58.6164C38.1698 59.1239 37.9765 59.7903 37.4684 59.7754C35.6629 59.7223 33.8457 60.1392 32.2439 60.9739C34.0468 63.8013 36.6109 66.2733 39.8003 67.309C42.9897 68.3446 46.8363 67.6974 49.0713 65.1975C49.7877 64.3961 50.315 63.4487 50.8228 62.4997L50.9397 62.2807C51.0477 62.0782 51.1576 61.8377 51.0616 61.6293C51.0003 61.4962 51.1324 61.358 51.2537 61.2759C53.0372 60.0688 55.6927 60.3963 57.1294 62.0006C57.0156 61.7779 57.1191 61.471 57.3445 61.3627C57.5237 61.6507 57.5616 62.0222 57.4443 62.3404C57.522 62.4503 57.6644 62.2735 57.6767 62.1395C57.8683 60.0542 57.8533 57.9499 57.6319 55.8675C57.5521 55.1166 57.4437 54.361 57.175 53.6553C56.9394 53.0364 56.5853 52.4692 56.1974 51.9325C55.3048 50.6979 54.2196 49.6028 52.9932 48.6989L52.9041 48.6341C52.7097 48.4949 52.505 48.3666 52.2753 48.3041C51.3658 48.0565 50.5589 48.8753 49.8699 49.5184ZM37.4784 48.3188C36.4644 48.66 35.3663 48.5944 34.299 48.6682C32.7949 48.7721 31.3111 49.1633 29.9512 49.8143C29.3655 50.0948 28.7989 50.4243 28.1795 50.6194C26.864 51.0336 25.3561 50.7778 24.2508 49.9529C24.0125 51.7719 24.0828 53.631 24.4577 55.4269C24.4818 55.5422 24.5578 55.6898 24.6704 55.6552C25.4179 55.4256 26.2219 55.7504 26.8866 56.1624C27.5512 56.5744 28.1759 57.0881 28.9308 57.292C29.8164 57.5312 30.755 57.3102 31.6315 57.0323L31.6972 57.0113C32.1465 56.8671 32.7277 56.7468 33.0158 57.1205C33.2588 57.4358 33.1054 57.9066 32.8481 58.2103C32.5908 58.514 32.2419 58.7398 32.0319 59.078C31.7742 59.4933 31.7729 60.0541 32.0286 60.4706C33.7028 59.7992 35.4946 59.4225 37.2974 59.3631C37.6589 59.3512 37.7857 58.8833 37.808 58.5223C38.0026 55.3586 38.0624 52.1866 37.987 49.0178C37.979 48.6801 37.7986 48.2111 37.4784 48.3188ZM64.5831 56.8737L64.6548 56.9097C65.0987 57.1353 65.5712 57.436 65.6373 57.9221C65.6591 58.0822 65.6317 58.2449 65.5936 58.4019C65.5409 58.6193 65.4607 58.8424 65.2917 58.9889C65.1125 59.1443 64.8608 59.1884 64.6238 59.1792C64.1572 59.1611 63.6901 58.9437 63.4198 58.5628C63.1495 58.182 63.106 57.6373 63.3582 57.2442C63.6104 56.8512 64.1647 56.6664 64.5831 56.8737ZM63.891 57.4176C63.6143 57.533 63.5147 57.9071 63.6302 58.1837C63.7457 58.4603 64.0198 58.6423 64.3046 58.7356C64.5959 58.831 64.9712 58.8232 65.1448 58.5705C65.2026 58.4864 65.23 58.3851 65.2459 58.2843C65.2807 58.0649 65.2596 57.8219 65.1182 57.6505C64.9431 57.4382 64.6444 57.3956 64.3652 57.3798L64.2959 57.3763C64.1592 57.3702 64.0173 57.3649 63.891 57.4176ZM28.9717 51.6994C29.0066 51.8322 28.9798 51.9723 28.9559 52.1075C28.7875 53.0599 28.7753 54.0397 28.9196 54.996L28.9463 55.1653C28.9638 55.285 28.971 55.4113 28.9023 55.5077C28.8229 55.6189 28.6005 55.6077 28.5894 55.4715C28.4947 54.3129 28.434 53.1514 28.4074 51.9892C28.4024 51.7672 28.4603 51.4719 28.6817 51.4549C28.8186 51.4443 28.9367 51.5666 28.9717 51.6994ZM21.18 49.3775C21.3438 49.4267 21.501 49.5389 21.5485 49.7031C21.596 49.8674 21.4879 50.075 21.3173 50.0858C21.1583 50.0958 21.0369 49.951 20.8907 49.8874C20.6284 49.7733 20.334 49.9326 20.0928 50.0865L19.9701 50.1658C19.7385 50.3183 19.5142 50.4894 19.387 50.7325C19.2569 50.9813 19.2461 51.2737 19.2501 51.5543C19.2529 51.7495 19.262 51.9474 19.3223 52.133C19.4532 52.5356 19.8267 52.8372 20.2409 52.9245C20.6552 53.0118 21.0982 52.8987 21.4487 52.6611L21.5173 52.6145C21.5791 52.5738 21.644 52.5382 21.7168 52.5347C21.8169 52.5299 21.9264 52.6242 21.8924 52.7185C21.8822 52.7467 21.8613 52.7696 21.8403 52.7912C21.2675 53.3796 20.2785 53.5055 19.5765 53.0794C19.4512 53.0034 19.3345 52.9117 19.2399 52.7999C18.9554 52.4638 18.9023 51.9928 18.8945 51.5526C18.8903 51.3144 18.8962 51.0725 18.9639 50.8441C19.1102 50.3505 19.5236 49.9838 19.9534 49.7003C20.3182 49.4596 20.7614 49.2516 21.18 49.3775ZM17.8661 48.3647L19.2941 50.0606C19.2155 50.1455 19.0778 50.1511 18.9717 50.105C18.8774 50.0639 18.8021 49.9906 18.7312 49.9153L17.8934 49.0141C17.7791 49.9287 17.5024 50.8228 17.08 51.642C17.0389 51.7217 17.1554 51.789 17.2446 51.7982C17.4625 51.8206 17.6829 51.7957 17.8978 51.7531L18.0086 51.7307C18.1821 51.6963 18.3601 51.6692 18.5218 51.7333C18.7183 51.8111 18.8395 52.097 18.682 52.2379C18.5849 52.3247 18.4378 52.3139 18.3085 52.2979L16.9178 52.1259L16.875 52.1197C16.7377 52.0973 16.5868 52.0435 16.5667 51.9111C16.5546 51.8314 16.5989 51.7552 16.6404 51.686C17.1354 50.8598 17.4652 49.9352 17.6052 48.9824L17.6262 48.8313C17.6535 48.6458 17.7016 48.4446 17.8661 48.3647ZM66.5176 51.0291C66.6899 51.151 66.8525 51.3904 66.719 51.5539C66.6355 51.6562 66.4745 51.6588 66.3544 51.6037C66.2343 51.5487 66.1409 51.45 66.0373 51.368C65.6124 51.0321 64.9742 50.9967 64.5147 51.2836C64.4493 51.3244 64.3843 51.3752 64.3577 51.4476C64.3312 51.52 64.3605 51.6172 64.4345 51.6391C65.021 51.3906 65.7201 51.4253 66.2791 51.7307C66.3599 51.7749 66.4447 51.8336 66.4646 51.9235C66.4845 52.0134 66.388 52.1212 66.3076 52.0762C65.9429 51.8721 65.5076 51.7969 65.0955 51.867C64.9034 51.8997 64.7154 51.9629 64.5207 51.9691C64.3259 51.9752 64.1129 51.9103 64.0095 51.7451C63.9141 51.5927 63.9367 51.3869 64.0298 51.2331C64.1228 51.0792 64.2753 50.9702 64.4348 50.8872C65.0841 50.5493 65.9202 50.6062 66.5176 51.0291ZM47.0624 42.7847C45.67 43.9552 44.0337 44.8341 42.2893 45.3495L42.1729 45.3833C41.9464 45.448 41.6614 45.5914 41.709 45.822L41.7383 45.9652C41.8254 46.3955 41.8991 46.8337 41.8371 47.2668C41.7702 47.7338 41.5127 48.2012 41.0867 48.3974L41.0475 48.4145C40.2889 48.7268 40.1823 49.86 40.6797 50.5123C41.1772 51.1646 42.0399 51.4172 42.8548 51.5115C45.2466 51.7881 47.7425 50.9861 49.5256 49.3682C50.1723 48.7814 50.751 48.0789 51.5517 47.7303L49.5493 46.9974C49.0092 46.7997 48.462 46.5983 47.9918 46.267C47.5216 45.9356 47.1295 45.4532 47.0334 44.8861C46.9157 44.1914 47.2487 43.4642 47.0624 42.7847ZM23.9652 44.6629C23.9149 44.6852 23.8636 44.7149 23.8394 44.7643C23.8152 44.8137 23.8234 44.8721 23.8319 44.9265L24.2907 47.8183C24.4259 48.6705 24.6158 49.6149 25.3187 50.1155C26.0886 50.6637 27.1459 50.4489 28.0424 50.1359L28.0903 50.119C29.7592 49.5263 31.3653 48.7012 33.1144 48.4236C34.3702 48.2243 35.6872 48.3096 36.8746 47.855C36.4403 47.1994 35.4993 47.2028 34.7121 47.2888L28.2812 48.0197C27.7829 48.0763 27.2596 48.1424 26.855 48.4386C26.678 48.5682 26.5104 48.7462 26.2912 48.7553C26.0779 48.7641 25.8925 48.4534 26.0597 48.3392L26.0744 48.3301C26.2577 48.2293 26.2454 47.9661 26.2079 47.7603L26.0134 46.6938C25.915 46.1648 25.7949 45.6264 25.4784 45.1946C25.1366 44.7281 24.4936 44.428 23.9652 44.6629ZM68.3622 48.9851C68.5172 49.1657 68.5239 49.4428 68.4205 49.6571C68.3172 49.8715 68.1214 50.0291 67.9097 50.1378C67.6542 50.2689 67.3729 50.3372 67.0909 50.3956L66.95 50.4242C66.8948 50.4353 66.8366 50.4462 66.7832 50.4285C66.7387 50.4137 66.7027 50.3804 66.6735 50.3437C66.5281 50.1614 66.5333 49.8923 66.6316 49.6808C66.73 49.4693 66.9061 49.305 67.0871 49.1578C67.272 49.0074 67.4732 48.8657 67.7052 48.8107C67.9371 48.7557 68.2069 48.8042 68.3622 48.9851ZM67.6018 49.3024L67.5276 49.3523C67.4166 49.4284 67.3096 49.5114 67.235 49.6223C67.1439 49.7578 67.1122 49.9469 67.2022 50.0832L67.7987 49.7513C67.8958 49.6972 67.9965 49.64 68.0595 49.5485C68.1226 49.4569 68.1351 49.3202 68.0572 49.2409C67.9402 49.1219 67.7408 49.21 67.6018 49.3024ZM58.0866 42.7742C58.1283 42.7911 58.1564 42.8288 58.1807 42.8673L59.0546 44.2946C59.2108 44.5497 59.5661 44.5782 59.8645 44.5571C60.4362 44.5169 61.0026 44.4002 61.5437 44.2111C61.6345 44.1794 61.7205 44.2949 61.701 44.389C61.6814 44.4832 61.6005 44.5502 61.5247 44.6093L60.2121 45.6324C60.051 45.621 60.0967 45.3572 60.2274 45.2622L60.2661 45.2352C60.3921 45.1502 60.5449 45.0662 60.537 44.9203L59.7784 45.1572C59.6336 45.2025 59.4726 45.247 59.3348 45.1834C59.2433 45.1411 59.1791 45.0582 59.1211 44.9747L58.1575 43.5681L58.1409 44.7998C58.1395 44.9008 58.1352 45.0104 58.071 45.0884C58.0255 45.1438 57.9574 45.1736 57.8895 45.1987L56.5598 45.6758C56.9149 46.0308 57.5795 45.6572 58.0045 45.9248C58.2956 46.1081 58.3453 46.5166 58.2825 46.8549C58.2197 47.1931 58.0757 47.5222 58.0944 47.8657C58.3371 47.6897 58.5153 47.4268 58.5889 47.1362C58.6186 47.0191 58.6332 46.8945 58.6984 46.7927C58.878 46.5123 59.3071 46.5693 59.6045 46.7193C59.9019 46.8693 60.2104 47.0853 60.5358 47.014L60.0637 46.2593C60.0207 46.1904 59.976 46.1159 59.9798 46.0347C59.9837 45.9536 60.0607 45.8716 60.1384 45.8952C60.1725 45.9055 60.1978 45.9324 60.2204 45.9606L61.2733 47.3256C60.9036 47.5695 60.4156 47.4158 59.9886 47.2982L59.9252 47.2816C59.5087 47.1785 59.0002 47.1683 58.7702 47.5213C58.608 47.7701 58.4178 48.0006 58.2042 48.2069C58.1142 48.2938 58.0115 48.3804 57.8872 48.3946C57.7629 48.4089 57.6201 48.3146 57.6311 48.19L57.7535 46.8097C57.7615 46.7204 57.7675 46.6231 57.7177 46.5485C57.6653 46.4699 57.5664 46.4393 57.4753 46.4141L56.3249 46.0964C56.0748 46.0274 56.073 45.638 56.2606 45.4588C56.4482 45.2795 56.7245 45.242 56.9745 45.1726C57.2246 45.1033 57.495 44.9561 57.5401 44.7006L57.832 43.0469C57.857 42.9055 57.9535 42.7203 58.0866 42.7742ZM27.1357 19.4594L26.9232 19.6321C25.5077 20.7856 24.1127 21.995 23.0746 23.4945C21.9845 25.0691 21.3153 27.0215 21.6398 28.9089C22.1127 31.6592 24.5728 33.8496 24.678 36.6383C24.692 37.0088 25.0692 37.2393 25.3848 37.4338C26.6303 38.2014 27.5532 39.4196 28.1622 40.7498C28.7522 42.0385 29.0672 43.4348 29.2963 44.8343L29.3182 44.9697C29.3523 45.1831 29.3772 45.426 29.2395 45.5926C29.1019 45.7591 28.7479 45.7008 28.7617 45.4851C28.9232 42.9495 28.0017 40.3628 26.2734 38.5004C25.8244 38.0166 25.3029 37.5682 24.6706 37.3788C24.6304 38.3554 24.3015 39.3507 23.6054 40.0369C22.9093 40.7231 21.8112 41.0366 20.9101 40.658C20.0089 40.2793 19.4576 39.1359 19.8632 38.2465C20.2029 37.5014 21.0467 37.1251 21.85 36.9664C22.6382 36.8108 23.4553 36.8027 24.2465 36.9426C24.353 36.9615 24.3993 36.8127 24.3972 36.7046C24.34 33.8059 21.6606 31.5364 21.3088 28.6586C21.1166 27.0858 21.6532 25.5026 22.432 24.1227C23.4547 22.3106 24.9096 20.7444 26.6414 19.591L26.6868 19.5616C26.8255 19.4743 26.9872 19.3998 27.1357 19.4594ZM35.958 34.2231C35.5703 34.4726 35.5802 35.026 35.5481 35.4859C35.5042 36.1168 35.2873 36.7482 34.8642 37.2182C34.4412 37.6883 33.7986 37.9771 33.1711 37.8982C33.0088 37.8777 32.9595 38.1126 32.9808 38.2748C33.3455 41.055 35.032 43.7845 37.6533 44.78C39.2559 45.3886 41.0661 45.3077 42.6999 44.789C44.2949 44.2826 45.7384 43.382 47.0578 42.3511L47.1541 42.2754C47.3454 42.1243 47.5377 41.9669 47.6707 41.7625C47.8055 41.5553 47.8719 41.3102 47.9042 41.065C48.0773 39.7518 47.1997 38.3778 45.9355 37.9825C45.7867 37.936 45.8211 37.6946 45.9517 37.6094C46.0822 37.5242 46.2503 37.53 46.3994 37.4845C46.8033 37.361 46.9891 36.9011 47.0813 36.4889C47.2079 35.9227 47.2435 35.2769 46.8926 34.8148C46.4183 34.1903 45.4962 34.1911 44.7143 34.251L43.4456 34.3481C43.0077 34.3816 42.444 34.5359 42.4235 34.9746C42.3792 35.9194 41.963 36.8606 41.2277 37.4555C40.4924 38.0504 39.4334 38.2561 38.5605 37.8919C37.7014 37.5335 37.0945 36.5984 37.1938 35.675L37.1991 35.6304C37.2508 35.2398 37.2224 34.8157 36.9935 34.4949C36.7647 34.1742 36.2893 34.01 35.958 34.2231ZM46.4369 19.4588C45.8712 19.6197 45.3278 19.8791 44.8812 20.2617C44.257 20.7966 43.8421 21.5694 43.7411 22.3852C43.7053 22.6742 43.7628 23.047 44.0435 23.1246C44.7292 23.3143 45.3428 23.7542 45.7426 24.3427C45.0943 23.9569 44.3836 23.6762 43.6467 23.5149L46.7615 25.2773C46.942 25.3795 47.1295 25.488 47.243 25.6616C47.3566 25.8352 47.3684 26.0944 47.2124 26.2311L46.9947 26.0617C46.449 25.6393 45.8911 25.2299 45.2804 24.9103C44.8159 24.6672 44.3258 24.4787 43.8329 24.299L43.564 24.2017C42.6517 23.8725 41.731 23.5413 40.7701 23.4098C39.8781 23.2877 38.9625 23.3419 38.0912 23.5683L37.9193 23.6124C36.7423 23.9102 35.515 24.1537 34.5419 24.8734C33.9631 25.3015 33.5098 25.8745 33.0794 26.4516L32.9778 26.5894C32.1227 27.7635 31.3413 29.2111 31.8416 30.5581C34.1387 30.2752 35.9283 28.4979 38.0092 27.4847C38.1683 27.4073 38.4306 27.3836 38.4547 27.5588L36.1262 28.9348C36.1908 29.2902 36.1298 29.6671 35.9562 29.9838C37.6575 29.5031 39.248 28.635 40.5732 27.4649L40.6574 27.3899C40.8676 27.2006 41.2726 27.044 41.3622 27.3123L41.2483 27.376C40.8304 27.611 40.4147 27.8681 40.1266 28.2488C39.8124 28.664 39.6873 29.2676 39.9658 29.7076L42.9054 27.9768C43.0248 27.9065 43.155 27.8337 43.2928 27.8481C43.4306 27.8626 43.5598 28.011 43.5003 28.1362L43.4003 28.157C43.083 28.2244 42.7613 28.3089 42.5142 28.5156C42.2412 28.744 42.0998 29.1722 42.3027 29.4648C42.6666 29.9895 42.962 30.5617 43.1789 31.1624C43.1836 30.8997 43.5416 30.7654 43.7776 30.8807C44.0136 30.9961 44.1385 31.2563 44.224 31.5047C44.4687 32.2152 44.5333 32.987 44.4103 33.7283C45.1495 33.9893 46.0164 33.681 46.7274 34.0111C47.3874 34.3176 47.7103 35.1125 47.6644 35.8387C47.6185 36.5649 47.2754 37.2363 46.909 37.865C47.9331 38.6584 48.4802 40.0251 48.2864 41.3061C48.465 41.277 48.6159 41.1229 48.6412 40.9437L49.0474 41.2C48.4121 41.5591 47.9601 42.2255 47.8614 42.9485C50.6526 40.3366 51.5793 36.197 51.1766 32.3956L51.1608 32.2538C51.0012 30.8811 50.6215 29.4502 49.5891 28.5409C50.1426 28.2218 50.8525 28.3473 51.4447 28.1077C52.0043 27.8813 52.3888 27.3565 52.6486 26.8116C53.517 24.9899 53.2179 22.6722 51.9156 21.1306C50.6133 19.5891 48.3781 18.907 46.4369 19.4588ZM37.3123 42.3044C37.4004 42.319 37.5003 42.3488 37.5347 42.4311C37.5898 42.5625 37.4355 42.6826 37.302 42.7324C37.1081 42.8046 36.9046 42.8509 36.6985 42.8695C36.5257 42.8851 36.3075 42.8517 36.2541 42.6866C36.2189 42.578 36.28 42.456 36.3724 42.389C36.4648 42.3221 36.5817 42.2995 36.6952 42.2872C36.9004 42.2649 37.1087 42.2708 37.3123 42.3044ZM34.1549 40.4207C34.7623 41.1345 35.7126 41.5126 36.6499 41.5199C37.5872 41.5273 38.5068 41.1885 39.285 40.6659L39.3504 40.6219C39.4493 40.5563 39.5518 40.4946 39.6677 40.4744C39.8094 40.4497 39.9778 40.5092 40.026 40.6447C39.2121 41.336 38.1918 41.7925 37.1283 41.889C36.0649 41.9855 34.9633 41.7127 34.0956 41.0903C33.939 40.978 33.7772 40.8303 33.7707 40.6378C33.7642 40.4452 34.03 40.2739 34.1549 40.4207ZM21.4227 37.3969C21.0003 37.5317 20.5752 37.7291 20.3088 38.0835C19.9129 38.6098 19.9821 39.4085 20.4097 39.9094C20.8372 40.4104 21.5602 40.6104 22.2052 40.4772C22.8502 40.3441 23.4102 39.9089 23.7726 39.359C24.1351 38.8092 24.3125 38.1527 24.3663 37.4963C24.3753 37.3862 24.3553 37.2406 24.2468 37.2204C23.31 37.0461 22.3304 37.1073 21.4227 37.3969ZM36.39 34.8321C36.4076 34.9835 36.349 35.132 36.2952 35.2746C35.991 36.0803 35.8059 36.9308 35.7476 37.7901C35.7382 37.9293 35.7328 38.0736 35.7838 38.2035C35.832 38.3261 35.9439 38.4327 36.0736 38.4401L36.0967 38.4403C36.2148 38.4361 36.2708 38.6121 36.1965 38.704C36.1222 38.7959 35.9829 38.8062 35.8696 38.7725C35.6371 38.7033 35.4704 38.4869 35.4029 38.2538C35.3355 38.0208 35.3527 37.772 35.3865 37.5317C35.5011 36.7171 35.7984 35.9274 35.813 35.1049C35.8171 34.8728 35.8646 34.56 36.096 34.5415C36.2479 34.5294 36.3724 34.6807 36.39 34.8321ZM39.2804 32.083C38.7974 32.1824 38.4286 32.5786 38.1781 33.0035C37.6649 33.8738 37.5186 34.9529 37.7817 35.9283C37.8999 36.3664 38.1018 36.7897 38.4187 37.1144C38.7355 37.4391 39.1757 37.657 39.6293 37.6495C39.9459 37.6442 40.2532 37.5319 40.5282 37.3749C41.4467 36.8509 42.0302 35.789 41.98 34.7328C41.9298 33.6765 41.2482 32.6747 40.2842 32.2401C39.9703 32.0986 39.6177 32.0136 39.2804 32.083ZM32.6135 31.6499C31.7504 31.9697 31.1932 32.866 31.0744 33.7788C30.9557 34.6915 31.2117 35.6148 31.5766 36.4598C31.6749 36.6874 31.7866 36.9188 31.9753 37.0795C32.164 37.2403 32.4497 37.3123 32.6641 37.1879C32.7639 37.13 32.8572 37.2654 32.9329 37.3525C33.0838 37.5259 33.3493 37.5407 33.5747 37.4957C34.3175 37.3472 34.8882 36.6982 35.1193 35.9769C35.3426 35.2796 35.2949 34.5249 35.163 33.8033L35.149 33.7288C35.0099 33.0012 34.6954 32.1834 33.9869 31.9667C33.6155 31.8531 33.1674 31.9195 32.8802 31.6578C32.8109 31.5947 32.7014 31.6174 32.6135 31.6499ZM46.3296 34.7353C46.6216 35.0588 46.5021 35.5611 46.3561 35.9762L46.3442 36.0096C46.2858 36.1724 46.2252 36.339 46.1135 36.471C46.0017 36.603 45.8263 36.6952 45.657 36.6599C45.4877 36.6247 45.3557 36.4284 45.4268 36.2707C45.5151 36.0751 45.8151 36.0651 45.9234 35.8798L45.6309 35.8521C45.4338 35.8335 45.2217 35.8085 45.0757 35.6749C44.9298 35.5412 44.9114 35.2584 45.0889 35.1708C45.2119 35.1101 45.3601 35.1696 45.4739 35.2461C45.5878 35.3226 45.6967 35.4195 45.8323 35.4403C45.9679 35.4612 46.1328 35.3547 46.1048 35.2203C46.0659 35.0334 46.1618 34.8264 46.3296 34.7353ZM39.6519 35.9981C39.675 36.1267 39.6835 36.2631 39.6354 36.3846C39.5872 36.5061 39.4699 36.6077 39.3394 36.6023C39.1372 36.5938 39.0289 36.361 38.9935 36.1617C38.9499 35.9155 39.0181 35.5767 39.2674 35.5584C39.4808 35.5427 39.614 35.7875 39.6519 35.9981ZM33.4221 35.4755C33.5228 35.6222 33.5086 35.8183 33.4686 35.9918C33.4174 36.2137 33.2886 36.4614 33.0621 36.4845C32.8575 36.5055 32.6828 36.3224 32.6158 36.1279C32.5342 35.8906 32.5738 35.6006 32.7591 35.4313C32.9444 35.262 33.2801 35.2685 33.4221 35.4755ZM33.6107 32.9706C33.7011 33.0122 33.7649 33.1261 33.7191 33.2145L33.6316 33.2375C33.1337 33.3704 32.6029 33.5553 32.365 34.0055C32.3081 34.1134 32.2711 34.2324 32.2001 34.3317C32.1291 34.431 32.0095 34.5098 31.8901 34.4847C31.754 34.4561 31.6753 34.2994 31.6898 34.1611C31.7043 34.0228 31.7885 33.9023 31.8786 33.7964C32.2451 33.3657 32.7617 33.0653 33.3173 32.9596C33.415 32.941 33.5203 32.9291 33.6107 32.9706ZM39.9746 33.2193C40.1235 33.3393 40.2366 33.4992 40.3871 33.6172C40.5142 33.7169 40.6748 33.7957 40.7326 33.9466C40.7904 34.0975 40.6166 34.3105 40.4905 34.2095C40.1614 33.9457 39.796 33.7272 39.4079 33.5621C39.2319 33.4872 39.2719 33.1911 39.4435 33.1068C39.6151 33.0225 39.8257 33.0993 39.9746 33.2193ZM38.1304 32.2731C37.806 32.3801 37.5754 32.7215 37.5974 33.0624C37.7215 32.9989 37.816 32.8802 37.8502 32.7451L37.8453 32.7314C37.9893 32.6176 38.092 32.4526 38.1304 32.2731Z" fill="#00160A"/>
<path fill-rule="evenodd" clip-rule="evenodd" d="M19.8491 73.1289C19.9796 73.1301 20.0997 73.1905 20.2137 73.2571L20.2753 73.2937C20.9743 73.7121 21.7119 74.0661 22.4756 74.3496C22.5806 74.3886 22.548 74.5648 22.4457 74.6103C22.3434 74.6557 22.2253 74.6152 22.121 74.5746L19.8654 73.697C19.7211 73.6408 19.5536 73.5552 19.5409 73.4009C19.5283 73.2471 19.6948 73.1276 19.8491 73.1289Z" fill="#E7EAEE"/>
<path fill-rule="evenodd" clip-rule="evenodd" d="M16.2533 70.6707L23.2309 73.1459L23.2747 73.1622C23.4592 73.2343 23.6586 73.3576 23.6389 73.5481C23.6228 73.7033 23.4511 73.8033 23.2952 73.7981C23.1633 73.7937 23.0414 73.735 22.9249 73.6705L22.8618 73.635C21.8889 73.0832 20.8681 72.6279 19.8212 72.2346C18.6354 71.7891 17.416 71.423 16.1946 71.086C16.0078 71.0345 15.7712 70.8676 15.8783 70.7061C15.9534 70.5929 16.1252 70.6253 16.2533 70.6707Z" fill="#E7EAEE"/>
</svg>
