<svg width="100" height="100" viewBox="0 0 100 100" fill="none" xmlns="http://www.w3.org/2000/svg">
<rect width="100" height="100" fill="white"/>
<path fill-rule="evenodd" clip-rule="evenodd" d="M44.0398 17.955C41.9238 19.5684 40.1518 21.5724 38.8145 23.8537C36.6234 23.4164 34.2624 23.3233 31.8718 23.6657C32.4718 21.059 33.7012 18.6057 35.4772 16.5564C35.8905 16.0817 36.5025 15.827 37.1305 15.8724C39.5745 16.0457 41.9345 16.7697 44.0398 17.955ZM49.9998 30.239C52.1168 27.8998 54.5936 26.1885 57.2278 25.071C55.6598 22.7204 53.4918 20.7884 50.8945 19.4897C50.3318 19.2084 49.6678 19.2084 49.1052 19.4897C46.5078 20.7884 44.3398 22.7204 42.7718 25.071C45.4062 26.1885 47.8829 27.9 49.9998 30.239ZM62.7532 50.0004C64.5798 49.0897 66.2558 47.887 67.7172 46.4257C72.1265 42.015 73.6705 35.491 71.6958 29.5684C71.4972 28.9724 71.0278 28.503 70.4318 28.3044C64.5145 26.3324 57.9892 27.8697 53.5745 32.283C52.1132 33.7444 50.9092 35.4204 49.9998 37.2484C49.0905 35.4204 47.8865 33.7444 46.4252 32.283C42.0145 27.8737 35.4905 26.3297 29.5678 28.3044C28.9705 28.503 28.5025 28.9724 28.3038 29.5684C26.3318 35.4857 27.8692 42.011 32.2825 46.4257C33.7425 47.8857 35.4198 49.0897 37.2465 50.0004C35.4198 50.911 33.7438 52.1137 32.2825 53.575C27.8732 57.9857 26.3292 64.5097 28.3038 70.4324C28.5025 71.0284 28.9718 71.4977 29.5678 71.6964C35.4852 73.6684 42.0105 72.131 46.4252 67.7177C47.8865 66.2564 49.0905 64.5804 49.9998 62.7524C50.9092 64.5804 52.1132 66.2564 53.5745 67.7177C58.0092 72.1524 64.5412 73.6604 70.4318 71.6964C71.0292 71.4977 71.4972 71.0284 71.6958 70.4324C73.6678 64.515 72.1305 57.9897 67.7172 53.575C66.2572 52.115 64.5798 50.911 62.7532 50.0004ZM79.7892 50.895C78.5918 53.2897 76.8572 55.3177 74.7518 56.8497C73.6205 54.3268 71.965 51.9949 69.7612 50.0004C71.8754 48.087 73.5717 45.7834 74.7505 43.1497C76.8558 44.6817 78.5918 46.711 79.7892 49.1057C80.0705 49.6684 80.0705 50.3324 79.7892 50.895ZM25.2492 56.851C26.428 54.2173 28.1242 51.9137 30.2385 50.0004C28.0348 48.006 26.3792 45.6737 25.2478 43.151C23.1425 44.683 21.4078 46.711 20.2105 49.1057C19.9292 49.6684 19.9292 50.3324 20.2105 50.895C21.4078 53.2897 23.1438 55.319 25.2492 56.851ZM57.2545 74.9404C55.6958 77.2097 53.5732 79.0764 51.0412 80.343C50.4922 80.6162 49.8329 80.6316 49.2532 80.343C46.6852 79.059 44.5372 77.1564 42.9732 74.8417C45.6234 73.6845 48.0034 71.9676 49.9998 69.7617C52.1201 72.1045 54.6049 73.8193 57.2545 74.9404ZM83.4438 65.3057C81.3598 67.1124 78.8572 68.3524 76.2012 68.9404C76.6985 66.2524 76.6532 63.487 76.0585 60.799C78.1412 59.4737 79.9732 57.775 81.4598 55.779C82.9918 58.115 83.9265 60.8284 84.1278 63.6524C84.1732 64.2804 83.9185 64.8924 83.4438 65.3057ZM64.5225 83.4444C66.2998 81.395 67.5278 78.9404 68.1278 76.3337C65.8484 76.6634 63.4849 76.5996 61.2278 76.1537C59.8625 78.431 58.0612 80.4244 55.9158 82.0217C58.0318 83.2217 60.4092 83.9537 62.8692 84.1284C62.9172 84.1324 62.9638 84.1337 63.0118 84.1337C63.5892 84.1337 64.1412 83.8844 64.5225 83.4444ZM37.1305 84.1284C39.6572 83.9484 42.0945 83.1817 44.2518 81.9257C42.1452 80.3337 40.3772 78.3564 39.0345 76.103C36.7105 76.5906 34.2597 76.6804 31.8718 76.335C32.4718 78.9417 33.7012 81.395 35.4772 83.4444C35.8585 83.8844 36.4105 84.1337 36.9878 84.1337C37.0358 84.1337 37.0825 84.1324 37.1305 84.1284ZM68.1278 23.6657C65.7374 23.3233 63.3764 23.4164 61.1852 23.8537C59.8478 21.5724 58.0758 19.5684 55.9598 17.955C58.0652 16.7697 60.4252 16.0457 62.8692 15.8724C63.4972 15.827 64.1092 16.0817 64.5225 16.5564C66.2985 18.6057 67.5278 21.059 68.1278 23.6657ZM16.5558 65.555C18.6532 67.3737 21.1732 68.6177 23.8492 69.2004C23.2985 66.431 23.3278 63.5724 23.9425 60.799C21.8998 59.5004 20.0985 57.843 18.6278 55.8964C17.0438 58.2617 16.0758 61.0244 15.8718 63.9017C15.8265 64.5297 16.0812 65.1417 16.5558 65.555ZM84.1278 36.3484C83.9265 39.1724 82.9918 41.8857 81.4598 44.2217C79.9732 42.2244 78.1412 40.527 76.0572 39.2017C76.6518 36.515 76.6985 33.7484 76.2012 31.0604C78.8572 31.6484 81.3598 32.8884 83.4438 34.695C83.9185 35.1084 84.1732 35.7204 84.1278 36.3484ZM18.5398 44.2217C20.0265 42.2257 21.8585 40.527 23.9412 39.2017C23.3465 36.5137 23.3025 33.747 23.7985 31.0604C21.1425 31.6484 18.6398 32.8884 16.5558 34.695C16.0812 35.1084 15.8265 35.7204 15.8718 36.3484C16.0732 39.1724 17.0078 41.8857 18.5398 44.2217ZM43.9998 50.0004C43.9998 46.6924 46.6918 44.0004 49.9998 44.0004C53.3078 44.0004 55.9998 46.6924 55.9998 50.0004C55.9998 53.3084 53.3078 56.0004 49.9998 56.0004C46.6918 56.0004 43.9998 53.3084 43.9998 50.0004ZM47.9998 50.0004C47.9998 51.1044 48.8958 52.0004 49.9998 52.0004C51.1038 52.0004 51.9998 51.1044 51.9998 50.0004C51.9998 48.8964 51.1038 48.0004 49.9998 48.0004C48.8958 48.0004 47.9998 48.8964 47.9998 50.0004Z" fill="#0087E8"/>
<path d="M34.4404 80.2226C32.066 80.2414 30.1994 80.3471 28.619 80.5698C24.8193 81.1054 22.5602 82.3634 21.5595 84.7362C21.0487 85.9475 21.2947 86.9944 22.2328 87.8097C23.0381 88.5097 24.3484 89.039 26.1318 89.4265L26.2314 89.4479C29.2824 90.0956 33.6143 90.3299 39.1077 90.2475L39.4455 90.2421C42.0261 90.1977 44.6722 90.0917 47.8572 89.9204L51.0282 89.7407C52.1423 89.6764 53.2901 89.6104 53.6987 89.5886L54.2514 89.5601C55.4252 89.5017 56.1817 89.48 56.6487 89.4945L57.1723 89.5143C64.7426 89.7915 70.6504 89.413 74.4512 88.5206C76.185 88.1135 77.4253 87.6088 78.119 87.0344C78.8703 86.4123 79 85.6635 78.443 85.0023C76.7055 82.9395 73.8537 81.774 69.2463 81.1527L69.0083 81.1212C65.1802 80.6245 60.419 80.4719 51.3711 80.4659L50.0692 80.4647C48.3086 80.4596 46.6231 80.4355 44.3857 80.3876L38.8818 80.2624C37.2345 80.228 36.308 80.2174 35.2755 80.2189L34.4404 80.2226Z" fill="white"/>
<ellipse cx="50.0419" cy="86.9655" rx="28.4102" ry="2.96548" fill="#E7EAEE"/>
<path fill-rule="evenodd" clip-rule="evenodd" d="M55.8691 65.9115C56.3849 66.0024 56.7381 65.4986 57.5367 63.8185L57.5955 63.6966L57.6536 63.5804C58.6055 61.7087 59.7062 61.1121 60.9559 61.7905L61.4574 60.3105L61.2889 60.233L61.1269 60.16C58.5326 59.0009 57.1315 58.9304 56.9234 59.9486L56.9028 60.0599L56.8856 60.1496C56.7332 60.9259 56.361 62.4208 56.0916 63.6936L56.0462 63.9107C55.8214 65.0015 55.6898 65.8799 55.8691 65.9115Z" fill="white"/>
<path fill-rule="evenodd" clip-rule="evenodd" d="M50.3444 50.8995C50.3444 50.8995 54.137 51.4021 56.0553 51.315C57.9735 51.2279 60.7788 50.4258 60.7788 50.4258L60.7121 52.848C60.7121 52.848 69.6609 52.6673 68.3096 59.998C67.4195 64.8263 60.609 62.8409 60.609 62.8409L61.9116 59.998C61.9116 59.998 65.9966 60.2935 64.5091 59.0507C64.2331 58.82 62.469 58.5019 60.1475 58.5641C58.1536 58.6175 56.4215 58.0201 56.2413 57.4837C55.5656 55.4729 56.5468 54.4152 56.5468 54.4152C56.5468 54.4152 55.5977 54.8771 55.7778 56.0002C55.9578 57.1233 54.6315 80.1182 54.6315 80.1182C54.6315 80.1182 53.4316 80.3309 52.8282 80.3309C52.2248 80.3309 51.3942 80.1182 51.3942 80.1182L50.3444 50.8995Z" fill="white"/>
<path fill-rule="evenodd" clip-rule="evenodd" d="M50.3444 50.8984C50.3444 50.8984 52.3449 80.3069 52.0664 80.2608C51.8563 80.226 51.3942 80.1172 51.3942 80.1172L50.3444 50.8984Z" fill="#E7EAEE"/>
<path fill-rule="evenodd" clip-rule="evenodd" d="M51.9918 80.5703C52.1233 81.7274 51.8774 82.1912 51.9099 82.1912C52.446 82.1912 52.7662 82.1805 53.6261 82.1136C53.6261 82.1136 53.578 81.6152 53.578 81.3807C53.578 81.1008 53.6261 80.5703 53.6261 80.5703H51.9918Z" fill="white"/>
<path d="M50.6667 24.1413C50.6667 24.1413 48.6667 24.8923 48.6667 23.4786C48.6667 22.0649 50.2096 22.7696 50.2096 22.7696" fill="white"/>
<path d="M59.4667 24.2883C59.8865 24.3817 61.2 25.2008 61.2 23.2175C61.2 22.271 59.7001 22.9547 59.7001 22.9547" fill="white"/>
<path d="M54.6937 16.0155C53.0414 16.1758 49.5786 17.747 50.2091 22.2359C50.6978 25.7158 53.3006 29.4667 54.8999 29.4667C56.4702 29.4667 59.114 26.3091 59.4979 23.2002C60.2818 16.8513 56.346 15.8552 54.6937 16.0155Z" fill="white"/>
<path fill-rule="evenodd" clip-rule="evenodd" d="M54.755 19.2275C54.8428 19.0237 55.1267 19.0101 55.2336 19.2046C55.7787 20.1966 56.3895 20.8879 57.0616 21.2836C57.7402 21.6832 58.5408 21.7226 59.3575 21.3564C59.4919 21.2962 59.6497 21.3563 59.71 21.4906C59.7702 21.625 59.7101 21.7828 59.5757 21.8431C58.6024 22.2795 57.6195 22.2311 56.7909 21.7432C56.1451 21.3629 55.5636 20.7587 55.0437 19.9335L55.0245 19.9028L55.0074 19.9362C54.5875 20.7334 54.0457 21.37 53.3825 21.843L53.3157 21.8898C52.4806 22.4645 51.5005 22.72 50.385 22.6571C50.2379 22.6488 50.1254 22.5229 50.1337 22.3758C50.142 22.2288 50.268 22.1163 50.415 22.1246C51.4157 22.1811 52.2786 21.9561 53.0134 21.4504C53.7551 20.9399 54.3355 20.201 54.755 19.2275Z" fill="#E7EAEE"/>
<path fill-rule="evenodd" clip-rule="evenodd" d="M63.2837 44.7703C63.1229 47.7965 61.9921 49.0805 60.5792 49.265C60.3915 49.2895 60.6543 50.368 60.4908 50.5094C59.5595 51.315 57.9177 51.3497 55.3434 51.3731C53.0129 51.3943 51.51 51.2061 50.4655 50.778C50.3856 50.7453 50.4576 49.3878 50.375 49.3806C49.0665 49.265 47.5593 48.1037 47.193 44.9457C45.9531 34.2535 49.6826 32.187 53.2323 30.4834C53.4248 30.391 53.5295 30.23 53.7208 30.1385C54.1243 29.9454 54.0191 30.3898 54.9364 30.3898C55.8536 30.3898 55.8536 30.0415 56.2667 30.2388C56.4208 30.3125 56.4462 30.7724 56.5996 30.8534C60.2321 32.7701 63.7282 36.4064 63.2837 44.7703Z" fill="white"/>
<path fill-rule="evenodd" clip-rule="evenodd" d="M56.5997 30.8516C61.3965 32.5875 63.6245 37.2265 63.2837 44.7685C62.8751 53.811 52.605 45.716 56.0288 37.926C56.8445 36.07 57.9163 43.928 57.928 43.9612C58.201 44.7339 59.0352 45.3332 59.8787 45.6535C59.8787 45.6535 60.2563 40.207 59.6 37.639C58.9827 35.2237 56.5997 30.8516 56.5997 30.8516Z" fill="white"/>
<path fill-rule="evenodd" clip-rule="evenodd" d="M53.5109 29.0664C53.5109 29.0664 53.6456 29.4705 53.5987 29.7202C53.5519 29.9699 53.2657 30.374 53.2657 30.374C53.2657 30.374 45.3027 32.803 47.1467 44.9254C49.198 53.7168 56.3896 47.9996 55.1418 40.9896C55.09 35.7843 53.9116 37.5466 53.0264 43.2826C52.8098 44.6858 50.1485 45.0843 50.1485 45.0843" fill="white"/>
<ellipse cx="57.2666" cy="25.6664" rx="0.733334" ry="0.6" fill="#FFB61D"/>
<ellipse cx="52.8666" cy="25.6664" rx="0.733334" ry="0.6" fill="#FFB61D"/>
<path d="M53.6063 26.4774C53.638 26.3336 54.2945 26.4465 54.4792 26.6921L54.5362 26.7682C54.7083 26.9963 54.8132 27.0682 55.0352 27.0682C55.3188 27.0682 55.4153 27.0174 55.5765 26.8062L55.6196 26.7483C55.8069 26.4919 56.4673 26.3057 56.5174 26.4442C56.5676 26.5827 56.4959 26.7356 56.3574 26.7857C56.2536 26.8232 56.1946 26.8725 56.0933 27.0051L56.0457 27.0691C55.769 27.4481 55.5388 27.6016 55.0352 27.6016C54.6262 27.6016 54.3893 27.4484 54.1366 27.1236L54.0529 27.0126L54.0151 26.9635C53.9319 26.858 53.881 26.8154 53.822 26.7985L53.8092 26.7953C53.6654 26.7636 53.5745 26.6212 53.6063 26.4774Z" fill="#00160A"/>
<path d="M54.1244 22.5125C53.8066 22.4153 53.517 22.3875 53.3495 22.4078C53.1692 22.4297 52.9413 22.5227 52.7311 22.6084C52.5627 22.6771 52.4057 22.7411 52.2935 22.7604C52.182 22.7795 52.0148 22.7733 51.8518 22.7672C51.6458 22.7596 51.4467 22.7522 51.3756 22.7965C51.2483 22.876 51.4383 23.0043 51.5495 23.019C51.9337 23.0699 52.2135 23.082 52.3989 23.0523C52.5633 23.026 52.7118 22.9805 52.9135 22.9031L53.124 22.823C53.264 22.7709 53.3001 22.7625 53.3495 22.7614L53.3842 22.7615C53.5251 22.765 53.7331 22.8073 54.0026 22.8897C54.1096 22.9224 54.2236 22.8645 54.2572 22.7604C54.2909 22.6562 54.2314 22.5453 54.1244 22.5125Z" fill="#00160A"/>
<path d="M54.9104 25.3741C55.0609 24.9347 55.1481 22.77 54.9825 22.7683C54.8168 22.7665 54.6811 22.8994 54.6794 23.0651C54.6769 23.2981 54.6784 23.5215 54.6798 23.731C54.6839 24.3597 54.6872 24.8628 54.5821 25.1199L54.5597 25.173C54.4238 25.51 54.3858 25.7968 54.7487 25.8639C54.9654 25.904 55.9385 25.3521 55.8825 25.1962C55.8264 25.0402 55.6546 24.9593 55.4987 25.0153L55.4577 25.0299C55.3652 25.0623 55.2441 25.1636 55.1352 25.2549C55.0384 25.3359 54.9511 25.4089 54.9017 25.4187L54.894 25.4201L54.9104 25.3741Z" fill="#00160A"/>
<path d="M56.1422 22.5125C56.4599 22.4153 56.7496 22.3875 56.9171 22.4078C57.0974 22.4297 57.3253 22.5227 57.5355 22.6084C57.7039 22.6771 57.8609 22.7411 57.9731 22.7604C58.0846 22.7795 58.2518 22.7733 58.4148 22.7672C58.6208 22.7596 58.8199 22.7522 58.891 22.7965C59.0183 22.876 58.8283 23.0043 58.7171 23.019C58.3329 23.0699 58.0531 23.082 57.8677 23.0523C57.7033 23.026 57.5548 22.9805 57.3531 22.9031L57.1426 22.823C57.0026 22.7709 56.9665 22.7625 56.9171 22.7614L56.8824 22.7615C56.7414 22.765 56.5335 22.8073 56.264 22.8897C56.157 22.9224 56.043 22.8645 56.0094 22.7604C55.9757 22.6562 56.0352 22.5453 56.1422 22.5125Z" fill="#00160A"/>
<path d="M57.8588 24.0199C57.9426 23.877 57.8947 23.6932 57.7517 23.6094C57.7013 23.5799 57.6613 23.636 57.6007 23.721C57.4894 23.877 57.3087 24.1305 56.8667 24.1305C56.4212 24.1305 56.2385 23.8746 56.1273 23.719C56.0681 23.6361 56.0292 23.5816 55.9816 23.6094C55.8387 23.6932 55.7907 23.877 55.8745 24.0199C56.0859 24.3806 56.4299 24.5682 56.8667 24.5682C57.3034 24.5682 57.6474 24.3806 57.8588 24.0199Z" fill="#00160A"/>
<path d="M54.0291 23.616C54.1683 23.7058 54.2085 23.8914 54.1188 24.0307C53.8891 24.3873 53.5221 24.5682 53.0554 24.5682C52.5852 24.5682 52.2219 24.384 52.008 24.0203C51.924 23.8775 51.8918 23.6848 52.1145 23.6096C52.2119 23.5768 52.3106 23.6718 52.4325 23.7892C52.5896 23.9406 52.7854 24.129 53.0666 24.129C53.5987 24.129 53.7872 23.8623 53.8947 23.7102C53.9488 23.6336 53.9824 23.586 54.0291 23.616Z" fill="#00160A"/>
<path fill-rule="evenodd" clip-rule="evenodd" d="M54.9794 9.93096C53.2984 10.2308 52.0108 11.5044 51.7593 13.386C51.7474 13.4754 51.7395 13.5627 51.7357 13.6477C51.4444 13.7391 50.5814 14.0176 50.6051 14.1046C50.6272 14.1856 51.3926 14.0036 51.7375 13.9172C51.7875 14.7422 52.2536 15.3336 53.0389 15.6954C53.2387 15.7875 53.4536 15.8631 53.6818 15.9241C52.8703 16.1797 52.0407 16.6473 51.3854 17.2898C50.1745 18.477 49.6132 20.1515 49.9121 22.2792C49.9147 22.2984 49.9175 22.3176 49.9203 22.3369C48.9543 22.0393 48.3666 22.4342 48.3666 23.4783C48.3666 24.5259 49.8984 25.1146 50.5463 24.6887C51.1993 26.4179 52.2163 28.0166 53.2387 28.9421C53.2076 29.0091 53.2011 29.0876 53.2263 29.1631C53.3013 29.3884 53.3242 29.5584 53.3039 29.6668L53.2996 29.6866C53.2766 29.782 53.2101 29.9182 53.0987 30.0884L53.0773 30.1204L53.015 30.14C47.6617 31.8592 45.6132 36.8413 46.8501 44.9724L46.8546 44.9954L46.8774 45.0915C47.4742 47.5639 48.604 49.0065 50.0112 49.3803C50.011 49.3871 50.011 49.3939 50.0112 49.4007C50.2571 57.7289 50.4721 64.3647 50.6561 69.3082L50.723 71.0637L50.7896 72.7277C50.8838 75.0147 50.9683 76.773 51.0433 78.0032L51.0912 78.7583C51.1735 79.9936 51.2215 80.2655 51.3978 80.3901L51.415 80.4016L51.4282 80.4095C51.4661 80.4315 51.5128 80.4512 51.5687 80.4686C51.5031 80.4685 51.4372 80.4685 51.3711 80.4684L50.0692 80.4672C48.3086 80.4621 46.6231 80.438 44.3857 80.3901L38.8818 80.2649C37.2345 80.2306 36.308 80.2199 35.2755 80.2214L34.4404 80.2251C32.066 80.2439 30.1994 80.3496 28.619 80.5724C24.8193 81.1079 22.5602 82.3659 21.5595 84.7387C21.0487 85.95 21.2947 86.9969 22.2328 87.8122C23.0381 88.5122 24.3484 89.0415 26.1318 89.4291L26.2314 89.4505C29.2824 90.0981 33.6143 90.3324 39.1077 90.25L39.4455 90.2446C42.0261 90.2002 44.6722 90.0942 47.8572 89.9229L51.0282 89.7432C52.1423 89.679 53.2901 89.613 53.6987 89.5912L54.2514 89.5626C55.4252 89.5042 56.1817 89.4825 56.6487 89.497L57.1723 89.5169C64.7426 89.7941 70.6504 89.4155 74.4512 88.5231C76.185 88.116 77.4253 87.6113 78.119 87.0369C78.8703 86.4148 79 85.666 78.443 85.0048C76.7055 82.942 73.8537 81.7765 69.2463 81.1552L69.0083 81.1237C65.7075 80.6955 61.7129 80.523 54.8746 80.4798L54.9121 80.4773C55.0821 80.4658 55.2161 80.3279 55.2227 80.1576L55.7174 66.2797C55.7313 66.28 55.7457 66.2796 55.7606 66.2786C56.4069 66.2342 56.8447 65.8346 57.6421 64.332L57.737 64.1513L57.8455 63.9412C58.0399 63.5821 58.5563 63.0245 58.9989 62.5465L58.999 62.5464C59.2895 62.2327 59.5483 61.9534 59.6632 61.787C59.9017 61.8337 60.2482 61.8703 60.7026 61.8968L60.7594 61.9L60.3988 62.7757L60.3919 62.7943C60.3469 62.9315 60.4198 63.0816 60.5587 63.1294C65.3166 64.7658 67.9032 63.4886 68.5713 60.0501C69.5241 55.1459 66.9454 52.6819 61.0028 52.7447L61.0967 49.6055C61.462 49.5539 61.8037 49.4068 62.1103 49.158C62.9779 48.454 63.4837 46.9947 63.5836 44.7851C63.9228 37.2781 61.7317 32.5518 56.9951 30.6833L56.834 30.6213L56.8187 30.5789C56.7353 30.3429 56.6795 30.1517 56.6511 30.0079L56.645 29.9755C56.6152 29.8068 56.6152 29.5248 56.6485 29.1389C56.6526 29.0909 56.6452 29.0445 56.6286 29.0025C57.7953 28.0584 58.9342 26.3624 59.49 24.6082L59.5041 24.6131C59.5099 24.6151 59.5159 24.6172 59.5221 24.6194L59.778 24.7104C59.9461 24.7669 60.0867 24.8033 60.2306 24.8222C61.0198 24.9259 61.5 24.4115 61.5 23.2178C61.5 22.7666 61.2829 22.4545 60.8768 22.3833C60.6113 22.3368 60.2778 22.3984 59.8638 22.5597C60.0613 19.9651 59.4535 18.1093 58.2145 16.9494C57.7476 16.5125 57.2014 16.1924 56.6344 15.9856C57.1615 15.8446 57.6897 15.6059 58.1003 15.2794C59.0424 14.5301 59.3396 13.4033 58.7991 11.9398L60.6365 11.5298L60.6512 11.5247C60.7129 11.4992 60.7283 11.3462 60.7283 11.2318C60.7283 11.1175 60.6345 10.9865 60.5637 11.0066L58.6839 11.6541C58.0794 10.3117 56.5557 9.64978 54.9794 9.93096ZM52.1123 80.8693L52.2024 80.8694C52.6353 80.8702 53.058 80.872 53.4709 80.8748C53.4391 81.2371 53.4314 81.6785 53.463 82.0016H52.2075C52.1953 81.7431 52.1629 81.265 52.1123 80.8693ZM51.7441 80.869C51.7154 81.0977 51.6921 81.3557 51.6712 81.5875C51.6547 81.7697 51.6397 81.9357 51.6247 82.0587C51.6144 82.0668 51.6046 82.0758 51.5955 82.0855C50.8936 82.8311 50.1673 83.3165 49.4169 83.5466L49.2947 83.5832C48.653 83.7707 47.4513 84.0665 47.4751 84.0597C46.9514 84.209 46.6978 84.3811 46.6087 84.7402C46.462 85.3316 47.0603 85.5911 48.6124 85.6013L48.7306 85.6016C48.9854 85.6012 49.2103 85.5753 49.7056 85.4969L50.0909 85.4354C50.4795 85.375 50.7094 85.3492 50.92 85.3472L51.0111 85.3478C51.1217 85.3506 51.2358 85.362 51.4854 85.394L51.7904 85.4336C51.967 85.4562 52.0916 85.4701 52.2235 85.481C52.7691 85.526 53.1858 85.4882 53.5349 85.3208C54.4382 84.8874 54.5481 83.8093 53.9569 82.1774C53.9562 82.1755 53.9554 82.1736 53.9547 82.1717C53.9578 82.1535 53.9594 82.1348 53.9594 82.1158V80.8786C61.5015 80.9451 65.7036 81.3502 69.1573 81.8159L69.4227 81.8526C73.724 82.4617 76.3561 83.562 77.9331 85.4343C78.5697 86.1901 77.4213 87.141 74.2988 87.8741C70.5259 88.7599 64.5921 89.1335 56.9649 88.842L56.7333 88.8329C56.1874 88.8112 55.2689 88.8405 53.7469 88.921L52.3474 88.9995C51.8149 89.03 51.2019 89.0654 50.6223 89.0988C49.7563 89.1487 48.9649 89.1944 48.6279 89.2131L47.822 89.2572C44.7766 89.4209 42.2262 89.5249 39.7558 89.5722L39.434 89.578C33.8269 89.6744 29.4214 89.4461 26.3698 88.7983C22.8267 88.0462 21.1415 86.8133 21.9072 84.9978C22.7901 82.9042 25.0797 81.495 28.6048 80.9812L28.712 80.9658C29.7656 80.8173 30.9551 80.8406 32.3485 80.8678C33.0419 80.8813 33.7857 80.8959 34.5884 80.8907L35.2763 80.8881C36.3928 80.8864 43.8349 80.7783 43.8349 80.7783C46.4404 80.8361 48.295 80.8636 50.2754 80.8677L51.7441 80.869ZM56.1795 29.3272C55.7365 29.6085 55.2999 29.7682 54.9 29.7682C54.5861 29.7682 54.2492 29.6533 53.9037 29.4454C53.9158 29.5649 53.9127 29.6754 53.8936 29.7773C53.8528 29.9951 53.7241 30.381 53.5105 30.6826C53.5046 30.6909 53.4983 30.6989 53.4916 30.7066C53.7779 30.8688 54.2204 31.0373 54.8316 30.9517C55.5047 30.8574 55.8767 30.6181 56.1026 30.4322C56.0675 30.075 56.1126 29.6514 56.1795 29.3272ZM56.1762 30.7897C55.8968 31.1551 55.4258 31.5517 54.8316 31.5517C53.9361 31.5517 53.3479 31.3295 53.1567 30.858C48.2041 32.4661 46.0218 36.9396 47.1413 44.6446L47.1748 44.8701L47.193 44.9469C47.88 47.8 49.5007 49.0533 51.0964 48.8578L51.1453 48.8514C52.5742 48.6505 53.9668 47.2751 54.3396 45.7077L54.3948 45.4718C54.673 44.262 54.8418 43.1925 54.8418 42.3135L54.8409 41.9487C54.8316 40.0339 54.7497 38.6167 54.6467 37.9917L54.6393 37.949L54.6279 37.98C54.5844 38.0977 54.5379 38.242 54.489 38.412L54.4742 38.4637C54.2492 39.2621 53.985 40.5599 53.6847 42.3628C53.464 43.688 49.92 45.3513 49.8669 45.1943C49.8504 45.1454 50.1408 44.9454 50.5536 44.6611L50.554 44.6608L50.5557 44.6596C50.7165 44.5489 50.8958 44.4254 51.0827 44.2931C51.076 44.2808 51.0694 44.2677 51.0625 44.2539C50.5402 43.2065 50.2186 42.2875 50.0997 41.4931C49.9822 40.7078 50.2565 37.5477 50.4307 37.5485L50.4526 37.5493C50.5405 37.5555 50.5212 37.965 50.4925 38.5721C50.4613 39.2337 50.419 40.13 50.4924 40.9944C50.572 41.933 50.9882 42.8786 51.2773 43.5353C51.3571 43.7167 51.4272 43.876 51.4779 44.0071C52.2418 43.4403 53.0075 42.7772 53.0929 42.2642L53.161 41.8602C53.4311 40.2785 53.6719 39.1113 53.8835 38.3481L53.8967 38.301C54.0126 37.8898 54.1208 37.596 54.2275 37.4091C54.3954 37.1155 54.6496 36.9627 54.9167 37.1752C55.2135 37.4112 55.3619 38.4265 55.4165 40.2776C55.4619 39.4485 55.5374 38.7774 55.6396 38.2748C55.7251 37.8547 55.8292 37.5507 55.959 37.3585C56.1433 37.0855 56.4315 36.9924 56.6936 37.1757L56.7112 37.1886C57.2742 37.6197 57.6537 39.7104 57.6759 42.4292L57.677 42.6566L57.6824 42.6884C58.0262 43.9879 58.7388 44.7454 59.3854 45.1992C60.7047 43.0371 59.9368 39.0319 59.6111 37.3329C59.5172 36.8433 59.4601 36.5452 59.5002 36.538C59.6813 36.5052 59.8547 36.6255 59.8875 36.8066C60.3045 39.1119 60.5191 40.8163 60.5307 41.9282C60.5424 43.0533 60.354 44.2389 59.9668 45.4846C59.9612 45.5026 59.9542 45.5199 59.946 45.5362C60.1432 45.6375 60.3164 45.7108 60.447 45.766C60.6157 45.8374 60.7135 45.8788 60.7009 45.9119C60.6417 46.0667 58.2505 46.0667 57.0809 42.7307C57.0768 42.7191 57.0769 42.7025 57.0769 42.6875L57.077 42.6823C57.077 41.2909 56.9816 40.0501 56.8143 39.1035C56.738 38.6726 56.6489 38.3164 56.5538 38.055L56.541 38.0207C56.4986 37.9087 56.4569 37.8209 56.4212 37.7601L56.4197 37.7574L56.4123 37.7722C56.3495 37.9016 56.2851 38.1116 56.2276 38.3944L56.2182 38.4414C56.1891 38.5907 56.1528 38.756 56.113 38.9371C55.9414 39.7184 55.7055 40.793 55.7001 42.132L55.6997 42.3319C55.6997 44.6678 57.3417 47.4963 59.2084 48.6045C61.1481 49.7561 62.8095 48.6242 62.9842 44.758C63.3196 37.3341 61.2698 32.3598 56.4977 31.1367C56.3419 31.0968 56.2394 30.9678 56.1762 30.7897ZM55.41 43.0475C55.342 43.8766 55.1688 44.8145 54.9233 45.8466C54.4955 47.6454 52.9124 49.2089 51.2289 49.4456C50.938 49.4865 50.6545 49.4889 50.3801 49.453C50.397 49.6979 50.4163 50.0507 50.4376 50.4959C50.4976 50.4875 50.5606 50.4954 50.62 50.5221C51.0593 50.7196 53.4907 50.9925 55.6029 51.0348L55.7598 51.0375C58.2723 51.0752 60.0717 50.7959 60.4095 50.2832L60.43 49.5986C60.0232 49.5373 59.5984 49.3755 59.1687 49.1204C57.3104 48.0171 55.6925 45.4237 55.41 43.0475ZM48.9666 23.4783C48.9146 22.7014 49.5439 22.7524 50.0083 22.8409C50.1073 23.3332 50.2449 23.8301 50.4132 24.3199L50.3896 24.3192C49.8737 24.3049 49.0204 24.2812 48.9666 23.4783ZM59.8268 22.9668C59.8173 23.0566 59.807 23.1471 59.7957 23.2386C59.7548 23.5692 59.6877 23.9043 59.598 24.239C60.1991 24.3102 61.2056 24.3495 61.0176 23.0143C60.9444 22.4943 60.2743 22.7763 59.8268 22.9668ZM54.8103 15.7071C55.0668 15.6918 55.3326 15.7009 55.6016 15.7347C56.2826 15.7264 57.3015 15.4157 57.7684 14.8619C59.5999 12.6894 57.0604 10.2282 55.088 10.5463C53.6233 10.7825 52.2412 11.8111 52.0213 13.4566C51.9157 14.2471 52.4318 15.5059 54.8103 15.7071ZM50.893 62.9161C51.1715 71.0873 51.4714 79.8839 51.6068 80.1194C51.6296 80.1606 51.9773 80.1639 52.2529 80.1665L52.2534 80.1665H52.2546C52.327 80.1672 52.3943 80.1678 52.4494 80.1691L52.5978 80.1713L52.7662 80.1715C53.1744 80.1695 53.6891 80.1504 54.3095 80.1142L54.568 80.0984L55.5874 55.8053C55.5594 55.2527 55.0496 54.6211 54.7069 54.1964C54.5029 53.9437 54.358 53.7642 54.4092 53.7184C54.5446 53.5973 55.6043 54.7855 55.7997 55.2057C55.8033 55.22 55.8075 55.2391 55.8122 55.2623C55.9324 54.947 56.1018 54.6163 56.3222 54.2725C56.4017 54.1485 57.4099 52.7499 56.6906 54.1919C55.1503 57.2799 56.8951 58.5349 59.9406 58.546L59.952 58.546L59.9533 58.546C59.9785 58.5463 59.9972 58.5464 60.0388 58.5411C61.2247 58.3904 62.5116 58.46 63.5253 58.5923C64.5216 58.7222 66.2441 59.6925 64.2945 60.2402C63.8286 60.3711 63.0801 60.2921 62.2159 60.1043L61.9816 60.0654L60.609 62.8421L60.8462 62.8933C65.0061 64.216 67.4187 62.9817 68.0292 60.0409L68.0477 59.9484C68.9186 55.4663 67.0493 52.6925 60.9955 52.9884L60.9877 53.2517C60.9821 53.4357 60.8284 53.5803 60.6444 53.5747C60.4604 53.5692 60.3157 53.4155 60.3213 53.2315L60.3273 53.0317C58.2075 53.1873 59.5958 52.9212 60.3341 52.8025L60.3842 51.1272C59.5113 51.5714 57.9031 51.737 55.7649 51.7044L55.5896 51.7013C53.518 51.6598 51.2002 51.4113 50.4685 51.1757C50.5793 53.7119 50.7326 58.2099 50.893 62.9154L50.893 62.9161ZM61.388 60.3732L60.8933 61.5747C60.5505 61.5225 60.314 61.4618 60.1366 61.4163C60.0779 61.4012 60.0256 61.3878 59.978 61.3769C59.9135 60.8995 59.9152 60.5531 59.9754 60.3488C60.0277 60.1712 60.1034 60.071 60.2021 60.0259C60.4147 60.0954 60.665 60.171 60.9529 60.2528L61.1695 60.3135L61.388 60.3732ZM59.5272 61.4103C59.5533 61.3932 59.5809 61.3802 59.6093 61.3712C59.5375 60.9869 59.537 60.4022 59.5971 60.198C59.6381 60.0591 59.6728 59.9497 59.7197 59.8614C59.6511 59.838 59.5468 59.7846 59.4184 59.7189C58.8277 59.4165 57.7265 58.8529 57.2415 59.7373C56.4232 61.2297 55.7043 65.9183 55.9135 65.9197C56.2111 65.9216 56.9676 64.8634 57.4656 63.9236L57.4876 63.8816L57.6161 63.6317C58.0068 62.8738 58.6314 61.998 59.5272 61.4103ZM61.8629 59.7703C61.7562 59.7515 61.6506 59.7991 61.5932 59.8873C61.5705 59.8734 61.5453 59.8628 61.5181 59.856L59.6718 59.4002L59.6311 59.377C58.2273 58.5836 57.3195 58.6508 56.6861 59.5347C56.4615 59.8481 56.349 60.2422 56.2949 60.765L56.2884 60.831L56.2806 60.9213C56.2734 61.0118 56.2677 61.1055 56.2619 61.2211L56.2393 61.7031L56.2351 61.7763C56.2282 61.8897 56.2211 61.9637 56.2111 62.0333L56.2047 62.0748L56.1842 62.1868L56.1717 62.2445C56.1646 62.2756 56.1559 62.3113 56.1446 62.3556L56.1118 62.4804L55.9116 63.2031C55.8758 63.3682 55.8421 63.5235 55.8105 63.6691L56.0251 57.6496C56.6995 58.4868 58.1327 58.9278 60.1802 58.8005L60.3489 58.791C60.4282 58.7869 60.5082 58.7826 60.5889 58.7783L60.5913 58.7782L60.6061 58.7774L60.6092 58.7772C61.5009 58.7293 62.4685 58.6772 63.3453 58.872C65.5314 59.3576 64.6372 59.8039 64.4447 59.9L64.4332 59.9057L64.4274 59.9087L64.4023 59.9206C64.0943 60.0575 63.3717 60.0298 62.0064 59.7953L61.8629 59.7703ZM47.5485 84.4607L47.6212 84.4393C47.586 84.45 50.2229 84.0766 51.6342 82.6086C51.9005 82.3315 53.517 82.5349 53.517 82.5349L53.5185 82.539C54.127 83.5466 54.2148 84.5941 53.4515 84.903C53.182 85.0121 52.7268 85.1207 52.2674 85.0828L52.2006 85.0769L52.1064 85.0675C52.0417 85.0606 51.972 85.0523 51.8904 85.042L51.4363 84.9836C51.1973 84.9543 51.0917 84.947 50.9473 84.947C50.6951 84.947 49.4829 85.1252 49.4829 85.1252C49.1129 85.1819 48.9245 85.2013 48.7298 85.2016C47.9505 85.2027 47.4597 85.0111 47.2184 84.9128L47.1954 84.903C47.1737 84.8932 47.1561 84.8837 47.1424 84.8747L47.1275 84.8641L47.1263 84.8687C47.1543 84.756 47.2487 84.5519 47.5485 84.4607ZM59.3444 23.2386C59.4206 22.6214 59.4457 22.0446 59.4256 21.5084C58.5017 21.8752 57.5769 21.8078 56.7909 21.345C56.1451 20.9648 55.5636 20.3605 55.0437 19.5353L55.0246 19.5048L55.0074 19.538C54.5875 20.3352 54.0457 20.9719 53.3825 21.4449L53.3157 21.4916C52.4833 22.0645 51.5067 22.3202 50.3956 22.2595L50.4 22.2792C51.0336 25.0682 53.2358 29.3652 54.9364 29.4682C55.5869 29.5076 56.5308 28.457 57.406 27.318C58.351 26.0882 59.1709 24.6439 59.3444 23.2386ZM57.8044 17.3875C58.6366 18.1664 59.224 19.3564 59.3867 20.9471C59.3769 20.9502 59.3672 20.9539 59.3575 20.9582C58.5408 21.3245 57.7402 21.4184 57.0615 21.0188C56.3895 20.6231 55.7787 19.7985 55.2336 18.8065C55.1267 18.612 54.8428 18.6255 54.755 18.8294C54.7375 18.8699 54.7184 18.9155 54.6975 18.9655C54.4566 19.5417 53.9722 20.7 52.9215 21.3115C52.1565 21.7567 51.0278 21.8694 50.4704 21.925L50.4698 21.9251L50.4689 21.9252C50.4192 21.9301 50.3741 21.9346 50.3342 21.9389C50.3134 21.8091 50.2978 21.6801 50.287 21.5521C50.9238 21.4368 52.2621 20.9961 52.8001 20.6581C53.4827 20.2294 53.6917 19.7918 54.0391 19.0644C54.1028 18.9311 54.1711 18.788 54.2479 18.6335C54.3142 18.5001 54.4713 17.611 54.0988 18.2872C54.0761 18.3282 54.0522 18.3731 54.0264 18.4212L54.0262 18.4215L54.0262 18.4217L54.0261 18.4218C53.6385 19.1463 52.8512 20.618 50.2715 21.2894C50.2213 19.7958 50.8251 18.4573 51.708 17.5918C52.5325 16.7834 53.7796 16.2489 54.7271 16.157C55.7239 16.0603 56.929 16.5681 57.8044 17.3875Z" fill="#00160A"/>
<path fill-rule="evenodd" clip-rule="evenodd" d="M30.816 63.9769C30.6564 62.2756 29.8646 60.5916 28.61 59.4354C27.6964 58.5934 26.3871 57.8883 25.1653 58.4912C23.2858 59.6131 22.781 61.9153 22.9705 63.9769C23.2055 66.532 24.399 68.1075 26.6919 69.0486C27.9839 69.5786 28.8427 70.278 29.544 71.4967C30.105 72.4711 30.4321 73.6914 31.137 74.5748C32.191 75.8953 33.5099 76.4824 35.1355 76.263C35.4577 76.263 36.4957 77.2295 36.82 77.8148C37.6671 79.3436 38.3942 80.9578 38.7279 82.6838C38.8252 83.1876 38.7563 85.0721 39.1002 85.4357C39.7289 86.1009 39.5447 84.82 39.5072 84.4333C39.1949 81.2315 38.0454 78.5037 36.3765 75.812C36.8892 75.1424 36.9632 73.4381 36.8021 72.9005C36.3765 71.2338 31.1374 67.4018 30.816 63.9769Z" fill="white"/>
<path fill-rule="evenodd" clip-rule="evenodd" d="M24.973 58.1067L24.9637 58.1118C23.2177 59.1539 22.5791 60.6102 22.7045 63.9908C22.8362 67.5429 24.1246 68.1725 26.4376 69.1444L26.508 69.1737C27.8064 69.7064 28.6253 70.4009 29.2951 71.5649L29.3489 71.6599C29.4659 71.8708 29.5705 72.0862 29.7179 72.4151L29.982 73.0142C30.3384 73.8182 30.5655 74.2411 30.8995 74.6597C31.9957 76.0332 33.3669 76.6199 35.02 76.3969L35.0357 76.3938L35.051 76.3888C35.3072 76.2881 36.1781 77.1738 36.5701 77.8812C37.522 79.5992 38.1368 81.0977 38.4428 82.6056L38.4636 82.7109C38.4834 82.813 38.4964 82.97 38.5115 83.2684L38.5324 83.7103C38.5373 83.8134 38.542 83.9029 38.5469 83.9877L38.5499 84.0381C38.5997 84.8602 38.6813 85.3295 38.87 85.5291C39.122 85.7957 39.3547 85.846 39.4822 85.6144C39.5548 85.4826 39.5717 85.27 39.5562 84.9706L39.5499 84.8707C39.5463 84.8196 39.5417 84.7664 39.5363 84.7096L39.4931 84.2896C39.1875 81.3783 38.1929 78.7365 36.4368 75.8737L36.4027 75.8183L36.4244 75.7836C36.8448 75.0898 36.998 73.5363 36.7965 72.8639C36.4522 71.7153 35.7711 70.7857 34.5318 69.5599L34.316 69.3473C32.2204 67.2746 31.5175 66.2055 30.9416 63.9241L30.7434 63.1348L30.7384 63.1155C30.2653 61.2919 29.7689 60.2065 28.83 59.3413C27.7037 58.3032 26.1202 57.5406 24.973 58.1067ZM28.6493 59.5374C29.5106 60.3311 30.1195 61.3339 30.5666 63.0042L30.6627 63.3738L30.7965 63.9101C30.9416 65.348 31.3899 67.0419 34.1287 69.5371L34.2742 69.6805C35.5289 70.912 36.2064 71.8241 36.5411 72.9405C36.7313 73.5754 36.5572 75.1843 36.1373 75.7327C36.1036 75.7766 36.1006 75.8369 36.1298 75.884C37.9157 78.7643 38.9218 81.4042 39.2277 84.3155L39.2653 84.6782L39.2757 84.7881C39.2804 84.8406 39.2842 84.8899 39.2871 84.9374L39.2898 84.9845C39.3028 85.2334 39.2885 85.4135 39.2486 85.4858L39.2467 85.4905L39.2514 85.4919C39.2161 85.4843 39.1508 85.4379 39.0638 85.3459C38.9431 85.2182 38.865 84.7842 38.8197 84.0797L38.8102 83.9213L38.7755 83.2093C38.7613 82.9394 38.7485 82.7878 38.7285 82.6766L38.7255 82.6603C38.4209 81.0851 37.7899 79.5325 36.8033 77.7519L36.7817 77.7134C36.3204 76.9029 35.4243 75.9956 34.9745 76.1333L34.9717 76.1341L34.9844 76.1326C33.4265 76.3428 32.1471 75.7953 31.1079 74.4933C30.783 74.0861 30.5603 73.6655 30.1946 72.8356L30.0062 72.4069C29.8073 71.9589 29.6844 71.7065 29.5263 71.4319C28.8389 70.2374 27.9925 69.5084 26.6825 68.9574L26.6092 68.927C24.3417 67.9963 23.1984 66.4499 22.97 63.9664L22.9635 63.8923C22.7709 61.5986 23.4594 59.6205 25.0488 58.6387L25.0956 58.6101L25.091 58.6125C26.121 58.1043 27.5954 58.5661 28.6493 59.5374Z" fill="#00160A"/>
<path fill-rule="evenodd" clip-rule="evenodd" d="M38.2015 76.3052C38.9728 76.4236 39.6449 75.9719 39.9036 75.2193C40.1272 74.5688 40.149 73.8121 40.4029 73.197C40.5779 72.7734 40.8561 72.4136 41.1963 72.1095C42.0938 71.3072 43.0307 71.1065 43.2983 69.7749C43.508 68.7311 43.2476 66.6034 41.7907 66.8155C40.7771 66.9638 39.9581 68.3181 39.486 69.1722C38.9019 70.2291 38.3568 71.3617 38.0499 72.5227C37.5442 74.4352 37.4759 76.5578 37.4696 78.5165C37.4688 78.7525 37.4196 81.6356 37.7567 81.5883C38.0906 81.5415 37.8791 78.5489 37.9076 77.9292" fill="white"/>
<path fill-rule="evenodd" clip-rule="evenodd" d="M30.4237 67.9184C29.8718 67.4597 29.6077 66.9778 29.7667 66.7126C29.9478 66.4106 30.422 66.607 30.9024 67.1349C31.2029 67.4651 31.6239 68.0364 31.7481 68.3186C31.7987 68.4336 31.8159 68.5193 31.7772 68.5975C31.7186 68.7158 31.6021 68.719 31.4659 68.6631C31.2919 68.5919 30.9978 68.3875 30.5632 68.0332L30.4237 67.9184ZM30.1506 66.8715C30.0922 66.8472 30.0457 66.8386 30.0153 66.8422C30.0011 66.8439 29.9977 66.846 29.9954 66.8497C29.9948 66.8508 29.9941 66.8519 29.9934 66.8531C29.9706 66.8908 29.9029 67.0028 29.9753 67.1349C30.0733 67.3138 30.36 67.7668 30.4608 67.8467C30.7601 68.0836 31.1356 68.2673 31.3844 68.3891C31.4736 68.4327 31.5466 68.4684 31.5938 68.4957L31.6116 68.5057L31.5919 68.4686C31.447 68.204 30.9842 67.6274 30.7349 67.3473L30.7052 67.3144C30.4958 67.0843 30.3026 66.9344 30.1506 66.8715ZM27.1 67.5126C26.9411 67.7778 27.2051 68.2597 27.7571 68.7184L27.8965 68.8332C28.3311 69.1875 28.6253 69.3919 28.7992 69.4631C28.9354 69.519 29.052 69.5158 29.1105 69.3975C29.1492 69.3193 29.132 69.2336 29.0814 69.1186C28.9572 68.8364 28.5363 68.2651 28.2358 67.9349C27.7554 67.407 27.2811 67.2106 27.1 67.5126ZM27.3486 67.6422C27.379 67.6386 27.4255 67.6472 27.484 67.6715C27.636 67.7344 27.8291 67.8843 28.0386 68.1144L28.0682 68.1473C28.3175 68.4274 28.647 69.004 28.7919 69.2686L28.8116 69.3057L28.7938 69.2957C28.6148 69.1923 28.3264 68.9782 27.9275 68.6467C27.6758 68.4375 27.3631 68.0985 27.2651 67.9195C27.2027 67.8058 27.2746 67.7176 27.3119 67.6719C27.3193 67.6628 27.3254 67.6554 27.3288 67.6497C27.331 67.646 27.3345 67.6439 27.3486 67.6422ZM32.9571 71.1184C32.4051 70.6597 32.1411 70.1778 32.3 69.9126C32.4811 69.6106 32.9554 69.807 33.4358 70.3349C33.7363 70.6651 34.1572 71.2364 34.2814 71.5186C34.332 71.6336 34.3492 71.7193 34.3105 71.7975C34.252 71.9158 34.1354 71.919 33.9992 71.8631C33.8253 71.7919 33.5311 71.5875 33.0965 71.2332L32.9571 71.1184ZM32.684 70.0715C32.6255 70.0472 32.579 70.0386 32.5486 70.0422C32.5345 70.0439 32.531 70.046 32.5288 70.0497C32.5254 70.0554 32.5193 70.0628 32.5119 70.0719C32.4746 70.1176 32.4027 70.2058 32.4651 70.3195C32.5631 70.4985 32.8758 70.8375 33.1275 71.0467C33.4636 71.3259 33.8158 71.5219 34.0255 71.6386C34.0647 71.6604 34.099 71.6794 34.1272 71.6957L34.1449 71.7057L34.1253 71.6686C33.9803 71.404 33.5175 70.8274 33.2682 70.5473L33.2386 70.5144C33.0291 70.2843 32.836 70.1344 32.684 70.0715Z" fill="#FFB61D"/>
<path fill-rule="evenodd" clip-rule="evenodd" d="M41.7715 66.6843C42.5075 66.5772 43.1582 67.0028 43.4287 67.7812C43.6412 68.3927 43.5496 69.2015 43.429 69.8019C43.2742 70.5721 42.9519 70.9837 42.2418 71.4934L41.8151 71.7929C41.6678 71.8979 41.5468 71.9892 41.4312 72.0844C41.381 72.1258 41.3324 72.1673 41.2852 72.2096C40.9417 72.5166 40.6856 72.8626 40.5262 73.2486L40.5044 73.3028C40.42 73.5192 40.3665 73.7337 40.2894 74.1339L40.2233 74.484C40.1563 74.8323 40.1057 75.0422 40.0297 75.2634C39.7379 76.1121 39.1218 76.5616 38.3146 76.4377C38.2418 76.4265 38.0027 76.4446 38.5385 76.336C39.0744 76.2274 39.5249 75.9115 39.7775 75.1767C39.8486 74.9699 39.8969 74.7692 39.9618 74.4315L40.0283 74.0795C40.1149 73.6306 40.1737 73.4035 40.2797 73.1468C40.4552 72.7218 40.7353 72.3434 41.1074 72.0108C41.1574 71.9661 41.2087 71.9221 41.2617 71.8785C41.3676 71.7913 41.477 71.7078 41.6046 71.6158L41.7343 71.5236C41.8418 71.4482 42.0057 71.334 42.0389 71.3106L42.131 71.2444C42.7591 70.7865 43.1649 70.4264 43.3009 69.7494C43.4124 69.1942 43.2399 68.4337 43.0435 67.8687C42.8109 67.1993 42.401 66.7288 41.81 66.8149C40.9397 66.9422 38.7793 70.1047 38.1819 72.0408C37.6904 73.6339 37.5656 76.0796 37.5982 78.2754L37.6034 78.5883L37.6027 79.0197C37.603 79.3693 37.6064 79.6613 37.6157 79.9651L37.6181 80.0414C37.6327 80.4808 37.6581 80.8417 37.6961 81.1015C37.7086 81.1871 37.7224 81.2603 37.737 81.32L37.7445 81.3491L37.7486 81.331C37.7652 81.251 37.7787 81.1463 37.789 81.019L37.7923 80.9757L37.7983 80.884C37.8147 80.6 37.818 80.2366 37.811 79.7828L37.8049 79.4657C37.8022 79.3492 37.7989 79.224 37.7948 79.0783L37.7725 78.2406C37.77 78.1104 37.7702 78.0421 37.7723 77.9785L37.7822 77.7358C37.7894 77.5387 37.7939 77.3338 37.799 77.0083L37.8065 76.5367C37.8267 75.4586 37.8661 74.9217 37.9945 74.2615C38.0139 74.1619 38.035 74.0637 38.0581 73.9666C38.3946 72.5499 39.1187 71.5302 39.8193 70.2805C40.0297 69.9053 41.134 69.3306 41.1442 69.4035C41.1543 69.4765 40.1986 69.9078 39.9085 70.3903C39.2915 71.4167 38.6465 72.6433 38.3175 74.0282C38.2953 74.1217 38.2749 74.2164 38.2563 74.3124L38.2319 74.4422C38.1263 75.028 38.0916 75.5526 38.0731 76.5445L38.0592 77.3706C38.0557 77.5387 38.0517 77.6725 38.0463 77.8086L38.0383 78.0067C38.0365 78.0798 38.0373 78.1697 38.0419 78.3627L38.0703 79.4091C38.0727 79.5117 38.0747 79.6067 38.0764 79.7016L38.0807 80.0075C38.0933 81.1938 38.038 81.6842 37.7752 81.7211C37.5694 81.75 37.4921 81.5497 37.4322 81.1401C37.3948 80.8844 37.3696 80.5419 37.3543 80.1286L37.3516 80.0503C37.3404 79.7152 37.3363 79.4017 37.336 79.0206L37.3363 78.5205C37.2799 76.2387 37.5414 73.6446 38.0604 71.9622C38.6863 69.9337 40.7619 66.832 41.7715 66.6843Z" fill="#00160A"/>
<ellipse cx="37.7333" cy="82.9331" rx="5.2" ry="3.86667" fill="white"/>
<ellipse cx="35.6673" cy="82.9331" rx="3.13398" ry="3.86667" fill="#E7EAEE"/>
<path fill-rule="evenodd" clip-rule="evenodd" d="M42.9333 78.8984H32.5333C32.4413 78.8984 32.3667 78.9731 32.3667 79.0651C32.3667 81.9136 32.6355 83.687 33.3497 84.9183C34.1551 86.3067 35.5427 86.9651 37.7333 86.9651C39.924 86.9651 41.3116 86.3067 42.117 84.9183C42.8312 83.687 43.1 81.9136 43.1 79.0651C43.1 78.9731 43.0254 78.8984 42.9333 78.8984ZM32.9669 79.2318H42.6329L42.6329 79.2701C42.6202 81.9434 42.6216 83.6139 41.962 84.7511C41.222 86.0268 39.8136 86.7651 37.7334 86.7651C35.6531 86.7651 34.3781 85.8935 33.6381 84.6177L33.6132 84.5743C32.9803 83.4532 32.9867 81.9538 32.9678 79.3751L32.9669 79.2318Z" fill="#00160A"/>
</svg>
