<svg width="100" height="100" viewBox="0 0 100 100" fill="none" xmlns="http://www.w3.org/2000/svg">
<rect width="100" height="100" fill="white"/>
<path d="M85.1316 71.7725C84.576 82.6077 75.8945 92.4266 65.2527 94.5386C54.6108 96.6507 42.9639 91.033 37.7785 81.503C37.2063 80.4513 36.6967 79.3482 36.1872 78.2453C34.8717 75.3978 33.5567 72.5513 31.1654 70.5926C28.4351 68.3563 24.9236 67.7582 21.3767 67.154C19.1245 66.7704 16.8579 66.3843 14.7681 65.5748C9.73026 63.6233 5.81861 59.0002 4.72819 53.7088C2.96116 45.134 8.55827 36.3793 16.0222 31.8033C23.4862 27.2273 32.4551 25.9529 41.1549 24.9709C44.4828 24.5952 47.1862 22.0873 49.1169 19.3507C49.8644 18.2913 50.5369 17.1781 51.2089 16.0657C52.2728 14.3047 53.3354 12.5457 54.6921 11.0055C60.4373 4.48383 71.1358 3.38332 78.4534 8.07282C85.771 12.7623 89.2736 22.4053 87.3276 30.8759C86.9924 32.3349 86.5167 33.7555 86.0409 35.1762L86.0408 35.1764C85.5853 36.5364 85.1299 37.8964 84.7976 39.2903C84.0875 42.2697 83.952 45.3528 83.8712 48.4145C83.7748 52.065 83.7521 55.725 84.094 59.3607C84.2129 60.6255 84.3759 61.8886 84.5389 63.1515C84.9093 66.0212 85.2794 68.8897 85.1316 71.7725Z" fill="#0087E8"/>
<path d="M41.1428 22.383C45.1218 20.4034 48.2888 16.9656 50.2832 12.994C50.5446 12.4732 50.7924 11.9199 50.7833 11.3373C50.7741 10.7546 50.4351 10.1375 49.8715 9.98949C49.0638 9.77743 48.3692 10.5519 47.8655 11.2179C44.4054 15.7936 39.3693 19.3857 33.6864 20.1691C31.5038 20.47 29.2879 20.357 27.0876 20.2434L23.6508 20.0659C20.8828 19.923 18.0763 19.783 15.3668 20.367C12.6573 20.9511 10.0098 22.3559 8.52169 24.6943C8.04802 25.4386 7.69322 26.3157 7.82428 27.1881C7.95859 28.0822 8.5941 28.841 9.35962 29.322C10.1251 29.803 11.0145 30.0436 11.8959 30.245C12.5412 30.3924 13.2003 30.523 13.8606 30.4765C14.9401 30.4005 15.9198 29.8637 16.873 29.3414C16.9365 29.3066 16.9999 29.2718 17.0632 29.2373C18.7292 28.3284 20.4555 27.5213 22.256 26.9215C24.8817 26.0469 27.6426 25.6189 30.3966 25.192C34.1069 24.6168 37.8047 24.0436 41.1428 22.383Z" fill="#0087E8"/>
<path d="M20.4503 75.1185L20.4526 75.1186C20.6148 75.1251 20.7769 75.1316 20.9385 75.14C23.4954 75.273 26.0257 75.8999 28.349 76.9759C29.2348 77.3862 30.1319 77.8996 30.6294 78.7396C31.245 79.7788 31.984 80.7449 32.8258 81.6111C33.1524 81.9471 33.506 82.2758 33.9421 82.4474C34.3781 82.6191 34.9165 82.6034 35.2702 82.2961C35.7 81.9228 35.7279 81.2599 35.5955 80.7063C35.3784 79.799 34.8371 79.0083 34.3014 78.2446C32.5433 75.7384 30.6925 73.2326 28.246 71.3925C25.7995 69.5523 22.6421 68.4381 19.6476 69.0737C18.6136 69.2932 17.5888 69.7406 16.9033 70.5452C16.2178 71.3498 15.9469 72.5606 16.4406 73.4953C16.8323 74.2367 17.6263 74.693 18.4393 74.8985C19.0945 75.0642 19.7731 75.0914 20.4501 75.1185H20.4503Z" fill="#0087E8"/>
<path d="M89.6114 37.424C88.9279 37.1663 88.1538 37.4775 87.5752 37.9235C86.4325 38.8044 85.7565 40.1824 85.4489 41.592C85.1413 43.0017 85.1662 44.4598 85.1925 45.9024L85.4185 58.2972C85.435 59.2027 85.4752 60.1787 86.032 60.8929C86.2063 61.1164 86.4449 61.3126 86.7268 61.3414C87.0685 61.3763 87.3847 61.1605 87.6315 60.9216C88.9811 59.6148 89.1583 57.5564 89.3199 55.6802L89.3257 55.6121C89.5631 52.8581 89.9741 50.119 90.5556 47.4166C90.7191 46.6566 90.8988 45.8918 91.2408 45.1937C92.3131 43.0053 92.0566 40.2274 90.6019 38.2723C90.3387 37.9186 90.0239 37.5795 89.6114 37.424Z" fill="#0087E8"/>
<path d="M65.1275 54.2004C65.8487 54.3991 66.4947 54.9997 66.5656 55.7444C66.7023 55.4482 67.0028 55.2341 67.3275 55.2015L66.8562 55.7024L67.4526 55.7143L66.6319 56.1726C67.1407 57.1136 67.0583 58.2741 66.7322 59.2929C66.5325 59.9164 66.2438 60.5411 66.3001 61.1934C66.3555 61.835 66.9253 62.4904 67.548 62.3591L67.5792 62.3518C68.3277 62.1627 69.1474 62.2722 69.82 62.6511C70.7865 63.1956 71.3728 64.2067 72.037 65.0951C72.6234 65.8794 73.3173 66.6087 74.1848 67.063C75.0523 67.5173 76.116 67.6673 77.0196 67.2901C77.468 67.1029 77.8695 66.7931 78.3452 66.6945C78.821 66.5959 79.3085 66.8604 79.4833 67.3113C79.5606 67.5107 79.3944 68.2498 78.9709 69.1129C79.0398 69.0932 79.1118 69.0804 79.1872 69.0755C81.4128 68.931 83.6589 68.4472 85.5742 67.3045C86.1831 66.9413 86.7518 66.5157 87.3164 66.0866L87.6454 65.8358L87.8446 65.6824C89.0835 64.7226 90.3066 63.6527 90.816 62.1929L90.8426 62.1143L90.899 61.9418C91.008 61.6152 91.1461 61.2776 91.4615 61.1761C91.8979 61.0357 92.2954 61.4582 92.5606 61.8321L94.4722 64.5271C94.5213 64.5964 94.5715 64.668 94.5903 64.7507C94.6731 65.117 94.1265 65.302 93.7742 65.172C93.1336 64.9355 92.6194 64.2309 91.9473 64.3518C91.4749 64.4368 91.1926 64.8942 90.9592 65.3251L90.9001 65.4351C89.4855 68.0836 87.1051 70.2024 84.3105 71.3006C83.5901 71.5836 82.8458 71.8005 82.1027 72.0169L80.6014 72.4543L80.8659 72.5014C83.106 72.8942 85.4959 73.134 87.5302 72.1413C88.8845 71.4804 89.9279 70.3427 90.9121 69.1928L91.2692 68.7731L91.4166 68.5978C92.0205 67.8731 92.5946 67.0974 92.7709 66.1791C92.8386 65.8264 93.2836 65.6582 93.6298 65.7537C93.9761 65.8493 94.2396 66.1231 94.4847 66.3855L96.3431 68.3746C96.4895 68.5312 96.6436 68.7042 96.665 68.9176C96.6865 69.1309 96.4952 69.3724 96.2892 69.3126L94.2741 68.7273C94.0851 68.6724 93.8757 68.6187 93.6978 68.7029C93.5614 68.7673 93.4734 68.8995 93.3953 69.0299L91.2289 72.6884C90.6189 73.7186 89.4883 74.3159 88.3774 74.7626C85.7136 75.8339 82.8229 76.3372 79.9538 76.2294C79.6421 76.2177 79.3302 76.1988 79.0222 76.1502C77.8648 75.9678 76.8195 75.3794 75.8074 74.7841C75.9849 75.4331 75.8268 75.9805 74.7728 76.0221C73.8393 76.059 71.5526 72.2152 70.8415 72.0158C66.96 70.9275 66.3227 68.7789 65.0757 67.3113C65.0757 67.3113 62.5557 67.637 60.892 67.2901C56.9919 66.477 54.371 63.9758 53.4261 63.8166C52.4812 63.6573 51.8582 64.2629 51.5664 63.8956L51.5664 63.6294C51.6115 63.5563 52.0631 63.1343 53.3511 63.4084C55.1497 63.791 58.025 65.2356 60.2207 65.5054C62.5257 65.7887 64.4783 65.4137 64.4675 65.3508C64.4456 65.2225 65.025 64.6771 64.5621 64.4017C64.0992 64.1263 57.3788 61.429 55.9181 59.1813L55.9006 59.1532C55.6494 58.7364 55.4587 57.7004 55.964 58.1747L56.1055 57.9238C56.6497 58.4369 58.4362 59.6099 60.2921 60.7662C62.2542 61.9888 65.025 62.7718 65.0757 62.7375C66.205 61.9737 65.2034 61.4208 65.0165 61.2584C64.5791 60.8784 63.9982 60.6713 63.6212 60.2312C62.717 59.1756 63.3629 57.2873 62.3293 56.358C62.1729 56.2173 61.9832 56.1067 61.8699 55.9295C61.6758 55.6259 61.7712 55.2035 62.0063 54.9304C62.2415 54.6573 62.5853 54.5048 62.9255 54.386C63.6318 54.1394 64.4062 54.0018 65.1275 54.2004Z" fill="white"/>
<circle cx="65.7333" cy="59.5987" r="0.266666" fill="#FFB61D"/>
<ellipse cx="64.1075" cy="59.5987" rx="0.197765" ry="0.266666" fill="#FFB61D"/>
<path d="M54.4438 60.8917C51.9645 60.2506 49.3588 60.1026 46.8228 60.4589C47.0146 59.5112 47.2548 58.5732 47.5421 57.6499C46.717 57.9162 45.7428 57.1599 45.7962 56.2945C45.8496 55.4291 46.9092 54.7983 47.6954 55.1639C47.9655 54.5408 47.9826 53.8123 47.7421 53.1771C47.6267 52.8724 48.0866 52.6966 48.4124 52.6965L50.2127 52.6961C50.4644 52.6961 50.8152 52.5792 50.7527 52.3354C50.6045 51.7574 51.002 51.0969 51.5821 50.9573C52.1517 50.8201 52.793 51.2102 52.9402 51.7754L52.9478 51.807C53.0845 52.4141 53.8535 52.6068 54.4756 52.5949L54.7853 52.5875C55.3235 52.5762 55.8842 52.5937 56.2444 52.9701C56.6752 53.4202 56.5789 54.1371 56.4369 54.7482L56.4274 54.7888C56.2262 55.6371 56.0117 56.4823 55.784 57.3238C56.2262 60.8828 55.1311 61.0694 54.4438 60.8917Z" fill="white"/>
<path d="M33.7649 57.9191C33.502 56.2085 33.5024 54.4578 33.7659 52.7473L33.7793 52.6645C33.8447 52.2763 33.9595 51.8665 34.2839 51.6527C34.5267 51.4926 34.8334 51.4806 35.1258 51.4805L37.3652 51.4866C37.4671 51.4869 37.5788 51.4907 37.6554 51.5579C37.7321 51.6251 37.73 51.7794 37.6318 51.8066C37.3972 51.8716 37.2624 52.1421 37.2909 52.3838C37.3193 52.6256 37.4765 52.8348 37.6611 52.9935C38.1013 53.3719 38.7854 53.5063 39.2727 53.1908C39.7599 52.8754 39.8745 52.0626 39.4128 51.7108C40.4588 51.6896 41.5053 51.6928 42.5512 51.7207L42.9433 51.7322C43.0701 51.7364 43.2103 51.7465 43.2988 51.8372C43.3653 51.9054 43.3872 52.0045 43.4022 52.0985C43.518 52.8225 43.3913 53.5832 43.0472 54.2307C42.9924 54.3338 42.8655 54.4474 42.779 54.3689C42.4115 54.0353 41.7935 54.0808 41.4174 54.4047C41.0414 54.7287 40.8961 55.2667 40.9625 55.7585C41.0265 56.232 41.3715 56.7376 41.8486 56.7137C42.2244 56.6949 42.6422 56.3663 42.9262 56.6131L42.4478 58.7505C42.3628 59.1302 42.2103 59.5807 41.8298 59.6621C39.6332 60.1319 37.3301 60.0964 35.149 59.5591L35.0433 59.5323C34.7786 59.463 34.5149 59.3733 34.3084 59.1966C33.9489 58.8889 33.8367 58.3868 33.7649 57.9191Z" fill="white"/>
<path d="M50.9979 41.1461L56.3061 41.2529V41.2529L56.3928 41.255C56.5522 41.26 56.7128 41.274 56.8564 41.341C57.1809 41.4924 57.3296 41.8657 57.4283 42.2099C57.955 44.0473 57.8899 46.0494 57.2452 47.8487L57.218 47.9224C57.1341 48.1438 57.0244 48.3645 56.8262 48.4891C56.6631 48.5916 56.4642 48.613 56.2708 48.6233L56.2295 48.6254C55.4401 48.6629 54.6481 48.6427 53.8617 48.5651C54.2713 48.3129 54.3747 47.6992 54.1146 47.2946C53.8546 46.89 53.3051 46.7211 52.8425 46.8525C52.5605 46.9326 52.2979 47.1253 52.1958 47.4001C52.0938 47.675 52.1924 48.0279 52.4531 48.1621C52.6333 48.2549 52.6022 48.5471 52.4444 48.6744C52.2866 48.8017 52.0673 48.8107 51.8645 48.814L49.2013 48.8572C49.0012 48.8605 48.7907 48.8613 48.615 48.7654C48.3657 48.6294 48.2511 48.3365 48.1809 48.0614C48.0115 47.3977 47.9886 46.697 48.1143 46.0236C48.2657 46.5554 48.9211 46.8783 49.435 46.6744C49.949 46.4705 50.2046 45.7861 49.9503 45.2951C49.6959 44.8042 48.9893 44.6184 48.5263 44.9207L48.507 44.7491C48.4406 44.1477 48.389 43.5384 48.5045 42.9461C48.631 42.2973 48.9919 41.6601 49.5834 41.3653C50.0149 41.1503 50.5132 41.1384 50.9979 41.1461V41.1461Z" fill="white"/>
<path d="M34.8989 47.1182C34.1514 47.1212 33.4038 47.0905 32.6591 47.0262L32.5867 47.0195C32.3201 46.9929 32.0404 46.9395 31.8657 46.7412C31.6298 46.4735 31.6874 46.0699 31.7582 45.7168L31.7654 45.6817C32.0819 44.1324 32.2062 42.5439 32.1348 40.9642L32.1215 40.6919C32.1017 40.2022 32.1329 39.6468 32.5398 39.3949C32.6636 39.3182 32.8072 39.2827 32.9505 39.2538L32.9982 39.2444C35.603 38.737 38.3153 38.7884 40.899 39.3942C41.2392 39.474 41.3338 39.9348 41.221 40.2656C41.1082 40.5963 40.8659 40.8743 40.7753 41.2118C40.6846 41.5493 40.8508 42.0061 41.2001 42.0171C41.9269 42.0398 42.5431 42.7783 42.4454 43.499C42.3477 44.2196 41.5688 44.7662 40.8557 44.6231C40.6884 44.5895 40.6292 44.8368 40.6476 45.0065L40.8511 46.8877V46.8877C40.8843 47.1948 40.4485 47.2918 40.1406 47.2678L38.3442 47.128V47.128C38.062 47.106 37.6835 47.1547 37.64 47.4344C37.5317 48.1309 36.8176 48.6747 36.1174 48.594C35.4173 48.5132 34.8457 47.821 34.8989 47.1182Z" fill="white"/>
<path fill-rule="evenodd" clip-rule="evenodd" d="M30.0635 58.6979C30.2628 58.7463 30.5481 58.8324 30.5323 59.0209C30.2133 62.8197 28.8403 62.1206 27.6159 63.2098C27.2924 63.4976 27.0991 64.1784 26.9601 64.194C27.4754 64.432 28.2231 65.3867 29.5101 65.4303C33.0957 65.5519 34.4008 62.9355 34.4008 62.9355C34.4851 62.0966 34.0597 60.5858 34.5907 61.0088C34.9573 61.3008 34.8848 59.8782 35.3855 60.0199C35.536 60.0624 35.2732 61.0084 35.3855 61.0649C35.4477 61.0962 35.5394 60.8383 35.6996 60.6332C35.8332 60.4621 36.0392 60.3354 36.0818 60.3728C36.1107 60.3981 36.083 60.6426 35.9627 60.8494C35.7937 61.1402 35.5111 61.42 35.5506 61.4666C35.5942 61.518 36.3395 60.8243 36.3849 60.885C36.6865 61.2873 34.7763 65.9178 31.5529 66.792L31.2976 66.8606C29.4186 67.3599 28.6295 67.4279 26.8886 66.792C26.0631 66.4905 25.5497 69.3067 25.0908 70.244C24.8011 70.8359 23.3939 72.2864 22.7513 71.8477C21.9035 71.269 21.2122 70.1918 20.4908 69.6469L20.4444 69.6129C19.9527 69.2603 18.8407 68.7253 17.1082 68.008L17.1862 67.9719C17.5477 67.8076 18.4787 67.4058 19.1936 66.792C20.2094 65.9199 20.7595 64.0467 21.4676 63.0364C22.1668 62.0389 23.105 62.1858 22.5387 62.0093C22.5387 62.0093 21.104 61.2492 20.4444 61.1796C18.2417 60.9472 15.3701 61.9882 14.4515 62.6591C13.191 63.5796 14.4433 64.9342 12.7017 64.2702C12.1213 64.049 13.677 61.1822 15.823 60.0199C18.8059 58.4042 21.6263 57.9598 24.4539 60.5317C25.6047 61.5784 25.7186 62.5102 26.0272 63.2205L25.9641 63.0464C29.3753 62.8216 24.2642 59.4064 28.5312 58.5517C28.9793 58.462 29.4496 58.5554 29.8988 58.6592L30.0635 58.6979Z" fill="white"/>
<ellipse cx="27.8667" cy="61.0674" rx="0.266667" ry="0.266666" fill="#FFB61D"/>
<circle cx="29.3333" cy="61.5987" r="0.266666" fill="#FFB61D"/>
<path fill-rule="evenodd" clip-rule="evenodd" d="M13.8525 71.4083C16.7429 73.4098 13.0447 70.6452 16.2028 73.9398C16.8406 74.6051 20.0697 70.8054 20.4028 73.0572C20.5243 73.8786 20.2593 74.7337 20.4209 75.5481C20.5716 76.308 23.877 75.8518 24.1323 75.5194C25.0579 74.3145 22.1775 71.2193 21.5736 70.7245C18.2033 67.9637 17.0911 68.1552 13.9421 71.0117L13.8525 71.4083Z" fill="white"/>
<path fill-rule="evenodd" clip-rule="evenodd" d="M89.0448 21.3803C89.6117 21.4481 90.1389 21.5111 90.1389 20.8503C90.1389 20.6931 88.2308 19.312 87.6654 19.8439C86.9384 20.5278 86.3609 21.3121 85.8016 22.0718C84.6275 23.6667 83.5332 25.153 81.302 25.3745L81.275 25.3774C80.4102 25.4819 82.0215 26.2495 83.8311 25.3745C85.0753 24.7728 86.7307 22.8694 87.517 21.9653C87.7227 21.7287 87.8689 21.5606 87.9327 21.5021L87.9491 21.488C88.2171 21.2814 88.641 21.3321 89.0448 21.3803ZM91.7365 23.1687L93.6244 24.6672C93.9922 24.9592 93.5615 25.5883 93.0929 25.6185C92.821 25.636 92.5602 25.5523 92.2981 25.4682C92.1085 25.4073 91.9181 25.3463 91.7223 25.3231C90.6137 25.192 89.7684 26.2362 89.0807 27.1156C88.4522 27.9192 87.764 28.6762 87.0236 29.3781L86.9235 29.4722L86.8192 29.5682C86.2237 30.1097 85.5557 30.6001 84.7701 30.7414C83.6132 30.9494 82.4642 30.3571 81.5192 29.6581C81.2886 29.4875 81.0622 29.3085 80.8356 29.1295C80.1339 28.5749 79.4309 28.0193 78.5987 27.7079C77.8775 28.1015 77.2026 28.577 76.5861 29.1195L76.6136 29.0979C77.6484 30.1351 78.372 31.4789 78.6683 32.9138L78.4704 32.879L78.3397 32.8568C77.1169 32.6517 75.8074 32.5304 74.774 33.1847C74.4098 33.4154 74.085 33.7374 73.7639 34.0558L73.7639 34.0558L73.7639 34.0558C73.5403 34.2775 73.3185 34.4974 73.0863 34.6835C73.1453 34.7185 73.2056 34.755 73.2674 34.7927C74.4109 35.2605 75.623 35.5601 76.8527 35.6789C77.0406 35.697 77.2306 35.7115 77.4211 35.7259C78.3032 35.7929 79.1966 35.8608 79.9504 36.3036L80.2148 36.4616C80.639 36.7128 81.1114 36.9518 81.4668 36.6611C81.569 36.5774 81.6359 36.4628 81.7031 36.3476L81.7031 36.3476L81.7031 36.3475L81.7031 36.3475L81.7031 36.3475L81.7031 36.3475C81.744 36.2774 81.785 36.2072 81.8341 36.1436C81.964 35.9755 82.2216 35.8571 82.3831 35.9952L82.4486 36.509C82.4961 36.1785 82.815 35.9098 83.1488 35.9191C83.4826 35.9284 83.7861 36.2144 83.8152 36.547C83.8679 37.1509 83.1833 37.5122 82.6022 37.7045L79.5904 38.6751C78.5142 39.0219 77.3212 38.8422 76.2837 38.3927C75.3178 37.9741 74.4657 37.3371 73.6513 36.6675L73.4709 36.5183C72.8559 36.0065 72.0247 35.4506 71.3269 35.842C72.5393 35.9157 73.4235 36.9606 74.1467 37.9487L74.2161 38.0441C74.3331 38.2055 74.4537 38.3753 74.4826 38.5726C74.5636 39.1248 73.9363 39.4913 73.4065 39.6669C73.853 39.906 73.6317 40.6004 73.2858 40.9703C72.7825 41.5084 72.1235 41.8957 71.4125 42.0875L71.3476 42.312L71.3434 42.3279L71.3422 42.333C71.3419 42.3345 71.3419 42.3352 71.342 42.3353C71.6773 42.312 71.8841 42.7625 71.7475 43.0696C71.6109 43.3767 71.2737 43.5402 70.9502 43.6317C69.8844 43.9331 68.6805 43.6953 67.8092 43.0114L67.6398 43.0997C66.9037 43.4807 66.1423 43.8349 65.3241 43.9551C64.4431 44.0844 63.4731 43.9028 62.8362 43.2805L62.8782 43.3722C62.9682 43.5718 63.0492 43.7786 63.0521 43.9962C63.0554 44.2473 62.9255 44.5185 62.6876 44.5991C62.2951 44.732 61.9521 44.3125 61.7483 43.9515C61.6367 44.2294 61.7518 44.5422 61.8637 44.8462C61.9914 45.193 62.1149 45.5286 61.893 45.7883C61.6619 46.0588 61.2236 45.9895 60.9055 45.83C59.7143 45.2325 59.1546 43.7285 59.4127 42.421C59.6708 41.1135 60.6109 40.0186 61.7304 39.2955C60.9703 38.7384 60.4143 37.9089 60.1878 36.9942C60.2482 37.0721 60.5176 36.8216 60.9004 36.4658C61.6007 35.815 62.6801 34.8117 63.5522 34.821C63.7193 34.8228 63.9891 34.9521 64.2534 35.0787C64.4447 35.1704 64.6332 35.2607 64.7777 35.3002C64.7897 35.2848 64.8042 35.2708 64.821 35.2586L64.656 35.14C64.3239 34.9043 63.9774 34.6825 63.5844 34.5848C63.1258 34.4708 62.5829 34.5646 62.2908 34.9359C61.5764 35.844 60.6713 36.6014 59.6515 37.1444L60.2561 38.2605C60.0062 38.3798 59.695 38.358 59.463 38.2074L59.4345 38.1881L59.4524 38.2104C59.8006 38.6645 59.4946 39.4563 58.9247 39.5461C58.3462 39.7889 57.7629 39.0639 57.8198 38.4392C57.8598 38.0013 58.0766 37.6133 58.2939 37.2246C58.3867 37.0587 58.4795 36.8926 58.5587 36.7225C58.8261 36.1478 58.9437 35.5094 59.0606 34.8751C59.2207 34.0056 59.3795 33.1438 59.9208 32.4642C60.2999 31.9882 60.8309 31.6573 61.3755 31.3858C63.5369 30.3086 66.0947 30.051 68.4274 30.6756C68.8247 29.2521 69.6124 27.9396 70.6817 26.9194L70.7455 26.8596C71.1546 26.4827 71.6634 26.146 72.206 26.2078L72.2489 26.2135C72.7876 26.2957 73.256 25.88 73.6476 25.4951L73.7684 25.3766L73.8629 25.2855C74.6401 24.5433 75.5422 23.8583 76.6039 23.7844C77.5485 23.7186 78.4526 24.1523 79.2679 24.6338C80.1903 25.1785 81.0677 25.7994 81.8882 26.488L82.0324 26.6102L82.1485 26.7099C82.9223 27.3745 83.769 28.1018 84.7764 28.0416C85.8091 27.9798 86.5636 27.1225 87.2588 26.3325C87.315 26.2686 87.3709 26.2051 87.4265 26.1425C88.2841 25.1772 89.2606 24.3272 90.249 23.4947L90.673 23.1387C90.8013 23.0312 90.9394 22.9192 91.1054 22.8976C91.339 22.8673 91.5519 23.0222 91.7365 23.1687ZM73.0706 39.5328C72.8608 39.491 72.5744 39.5093 72.2115 39.5876C72.4505 39.5885 72.6516 39.5843 72.8149 39.5748C72.894 39.565 72.9726 39.5527 73.05 39.5372L73.0706 39.5328ZM65.2967 34.9105C65.3733 34.8319 65.4541 34.749 65.5437 34.6782C65.7104 34.5903 65.8981 34.5457 66.0871 34.5636C66.7267 34.6244 67.211 35.3046 67.1273 35.9415C66.7897 36.7782 65.9542 37.2555 65.1279 37.7277C64.6188 38.0185 64.1132 38.3074 63.7297 38.677C63.826 38.5183 63.9313 38.3916 64.0382 38.3138C64.3717 38.071 64.7204 37.8606 65.0491 37.6623C65.3254 37.4956 65.5876 37.3375 65.8145 37.1759C66.1717 36.9215 66.4116 36.6798 66.5975 36.4925C66.7396 36.3493 66.8502 36.2379 66.9575 36.177C66.9663 36.172 67.3693 35.355 66.395 34.821C65.6594 34.4178 65.3316 34.9279 65.1554 35.202C65.0983 35.2909 65.0571 35.355 65.0231 35.355C65.0142 35.355 65.002 35.3537 64.9866 35.351C65.0109 35.264 65.0479 35.18 65.0953 35.1014C65.1612 35.0494 65.2272 34.9817 65.2967 34.9105L65.2967 34.9105L65.2967 34.9105ZM65.5047 34.6997C65.3374 34.7967 65.1939 34.9375 65.0953 35.1014L65.071 35.1198C65.0226 35.155 64.9739 35.1809 64.9236 35.1928C64.8224 35.2167 64.5813 35.0317 64.377 34.875C64.2549 34.7813 64.1459 34.6977 64.088 34.675C63.7061 34.5252 63.6613 34.5231 63.3965 34.5105L63.3964 34.5105H63.3964C63.3517 34.5084 63.3007 34.506 63.2408 34.5025L63.1309 34.4956C63.1069 34.4943 63.0803 34.4932 63.052 34.492C62.8325 34.4827 62.5167 34.4695 62.5797 34.2988C63.708 31.2451 68.5286 30.5806 67.7316 34.0325C67.6657 34.3179 67.4926 34.5678 67.3196 34.8176C67.2331 34.9425 67.1466 35.0674 67.0734 35.1968C66.7619 34.7541 66.4225 34.5208 66.0552 34.4967C65.8504 34.4833 65.686 34.5656 65.5437 34.6782L65.5047 34.6997ZM74.249 31.9602L74.25 31.9585C73.9846 32.4628 73.6998 33.0698 73.3953 33.7795C73.6242 33.1489 73.911 32.5398 74.249 31.9602ZM76.3983 32.4253L76.3614 32.4267C76.0672 32.4391 75.8033 32.4831 75.5697 32.5588C75.3106 32.6427 75.0348 32.7831 74.7424 32.98C75.2541 32.6966 75.8194 32.5071 76.3983 32.4253Z" fill="white"/>
<path fill-rule="evenodd" clip-rule="evenodd" d="M61.3568 45.2165C61.1257 45.4871 60.7907 45.3998 60.4838 45.1006C59.8416 44.4745 59.5835 43.2664 59.8416 41.959C60.0996 40.6515 61.1054 40.1127 62.2249 39.3897C61.7226 39.1828 60.8125 37.8709 60.7212 36.596C61.0308 36.9956 61.0471 37.7127 61.3568 38.1122C61.6506 38.4914 62.2378 38.953 62.5316 39.3321C62.5691 39.3805 62.6015 39.4619 62.5482 39.4921C61.475 40.1017 60.7795 40.3034 60.1466 41.9589C59.5136 43.6144 60.7987 45.1457 60.9695 45.1006C61.1798 45.0451 61.1053 44.7659 60.9845 44.585C60.6437 44.0745 60.9679 43.3939 61.2457 42.8466C61.3942 43.0132 61.0371 43.4909 61.1124 43.9875C61.1858 44.4725 61.5625 44.9757 61.3568 45.2165Z" fill="#E7EAEE"/>
<circle cx="65.7333" cy="39.7315" r="0.266666" fill="#FFB61D"/>
<circle cx="64.8" cy="38.6651" r="0.266666" fill="#FFB61D"/>
<path d="M24.9214 41.2848C25.0756 41.5725 24.8332 41.984 24.5068 41.9886C24.2273 40.4173 23.9258 38.7913 23.0163 37.4798C21.2746 34.9686 17.6856 34.1438 16.1945 31.4763C15.1792 32.1989 13.6267 32.0147 12.8087 31.0745C12.2999 30.4898 11.4132 30.4181 10.6492 30.5485C9.88523 30.679 9.13884 30.9673 8.3642 30.9428C8.02806 30.9322 7.66184 30.8418 7.46621 30.5682C7.27059 30.2947 7.3836 29.8133 7.71651 29.7656C9.16684 29.558 10.6172 29.3504 12.0675 29.1428C12.1814 29.1265 12.3023 29.1071 12.3887 29.0312C12.4865 28.9454 12.5173 28.8081 12.5426 28.6804C12.7526 27.6237 12.9039 26.364 12.1258 25.6188C11.4809 25.0013 10.4631 25.0226 9.58701 25.1949C8.7109 25.3672 7.80798 25.6506 6.94456 25.4231C6.08114 25.1956 5.35908 24.17 5.82454 23.408C6.13629 22.8977 5.78477 22.2171 5.30388 21.8615C4.823 21.506 4.22455 21.3309 3.75844 20.9562C3.29233 20.5815 2.99652 19.8586 3.36779 19.3898C3.53107 19.1836 3.78674 19.0749 4.03757 18.9958C4.86772 18.7339 5.79338 18.714 6.59359 19.0566C7.3938 19.3992 8.04363 20.1336 8.17385 20.9943C8.27994 21.6955 8.07836 22.5112 8.54189 23.0479C9.14793 23.7496 10.268 23.356 11.1952 23.3476C12.1434 23.3389 13.0811 23.8417 13.5987 24.6363C14.1163 25.4309 14.1972 26.4918 13.806 27.3556C14.9074 26.235 16.391 25.3753 17.9612 25.4338C19.4116 25.4878 20.7442 26.3221 21.7143 27.4017C22.6843 28.4813 23.346 29.7962 23.9949 31.0944C24.2366 31.5781 24.8498 31.8402 25.3665 31.6808C25.8832 31.5214 26.242 30.9593 26.1692 30.4235C26.6194 30.5216 26.6663 31.1303 26.6802 31.591C26.7094 32.5588 27.0598 33.5143 27.6634 34.2715C27.8654 33.899 28.0194 33.5006 28.1206 33.0892C28.5612 33.5957 28.7256 34.3288 28.5435 34.975C28.3614 35.6211 27.8383 36.1604 27.1981 36.3623C26.8574 36.4698 26.4409 36.5214 26.2718 36.8361C26.9106 37.9548 27.4601 39.1245 27.9133 40.3304C28.1563 40.977 28.3316 41.8091 27.8201 42.2734C27.2288 41.8368 26.8927 41.1443 26.579 40.4795C26.0895 39.4426 25.6001 38.4056 25.1107 37.3687" fill="white"/>
<path fill-rule="evenodd" clip-rule="evenodd" d="M26.5358 30.9057C26.4073 32.1613 26.8772 33.4651 27.7774 34.35C28.0983 34.1563 28.3035 33.7846 28.2965 33.4098C28.6338 33.9644 28.4448 34.7165 28.0253 35.2119C27.6059 35.7073 27.0041 36.0043 26.4202 36.2878C26.0856 36.4503 25.7382 36.616 25.3665 36.6271C24.7993 36.644 24.2911 36.3029 23.8274 35.9759L22.4667 35.0166C23.1697 36.3284 24.7698 37.0922 26.2318 36.814C27.2485 38.2403 27.8711 39.9446 28.0131 41.6904L27.7398 41.1855C27.7372 41.1793 27.734 41.1732 27.7298 41.1671L27.7398 41.1855C27.779 41.2823 27.6254 41.3894 27.522 41.3394C27.412 41.2861 27.3705 41.1536 27.338 41.0358C26.9377 39.5844 26.2204 38.2212 25.2507 37.0694L26.719 40.1803C27.0328 40.845 27.3688 41.5376 27.9602 41.9742C28.4717 41.5099 28.2964 40.6778 28.0533 40.0311C27.6002 38.8252 27.0507 37.6555 26.4118 36.5369C26.5491 36.2813 26.8496 36.1992 27.1402 36.1199C27.2074 36.1015 27.2741 36.0833 27.3381 36.0631C27.9784 35.8612 28.5014 35.3218 28.6835 34.6757C28.8656 34.0296 28.7012 33.2965 28.2607 32.79C28.1594 33.2014 28.0054 33.5998 27.8035 33.9722C27.1999 33.2151 26.8494 32.2596 26.8203 31.2917C26.8064 30.8311 26.7595 30.2224 26.3092 30.1242C26.382 30.66 26.0232 31.2221 25.5065 31.3816C24.9899 31.541 24.3767 31.2789 24.1349 30.7952C23.4861 29.4969 22.8243 28.1821 21.8543 27.1025C20.8843 26.0228 19.5516 25.1886 18.1013 25.1345C16.531 25.076 15.0475 25.9357 13.946 27.0564C14.3372 26.1925 14.2563 25.1316 13.7387 24.3371C13.2212 23.5425 12.2835 23.0397 11.3352 23.0483C11.0947 23.0505 10.8412 23.0787 10.587 23.1068C9.86148 23.1873 9.13074 23.2683 8.68193 22.7487C8.36495 22.3816 8.359 21.8841 8.353 21.382V21.382C8.35022 21.1499 8.34743 20.9167 8.31389 20.695C8.18367 19.8344 7.53384 19.1 6.73363 18.7573C5.93342 18.4147 5.00776 18.4347 4.17761 18.6966C3.92678 18.7757 3.67111 18.8843 3.50783 19.0905C3.13656 19.5593 3.43237 20.2823 3.89848 20.657C4.14379 20.8542 4.42576 20.9961 4.70796 21.1381L4.70796 21.1381C4.96195 21.266 5.21613 21.3939 5.44392 21.5623C5.92481 21.9178 6.27633 22.5984 5.96458 23.1088C5.49912 23.8707 6.22118 24.8964 7.0846 25.1239C7.79834 25.312 8.53908 25.1508 9.26935 24.992C9.42249 24.9587 9.57517 24.9255 9.72705 24.8956C10.6032 24.7234 11.621 24.702 12.2658 25.3196C13.0439 26.0648 12.8926 27.3245 12.6827 28.3811C12.6573 28.5088 12.6266 28.6461 12.5288 28.732C12.4423 28.8079 12.3214 28.8273 12.2075 28.8436L7.85655 29.4664C7.52364 29.514 7.41063 29.9955 7.60625 30.269C7.80188 30.5426 8.16811 30.6329 8.50424 30.6436C9.01818 30.6598 9.51969 30.5384 10.0222 30.4167C10.277 30.355 10.5321 30.2932 10.7893 30.2493C11.5532 30.1188 12.44 30.1906 12.9487 30.7753C13.7667 31.7155 15.3192 31.8997 16.3345 31.177C17.1192 32.5807 18.4847 33.4742 19.8563 34.3716C21.0912 35.1796 22.3311 35.9908 23.1563 37.1806C24.0659 38.492 24.3673 40.118 24.6469 41.6894C24.9733 41.6847 25.2156 41.2733 25.0614 40.9856L24.7547 41.3901C24.6415 38.9135 23.3766 36.5133 21.3976 35.0199C20.9076 34.65 20.3701 34.3258 19.8339 34.0023C18.6555 33.2915 17.4827 32.584 16.8303 31.4032C16.7715 31.2968 16.7168 31.1842 16.7073 31.0631C16.6952 30.9099 16.7563 30.7621 16.8153 30.6195L16.8237 30.5992C17.0589 30.0286 17.2232 29.4025 17.1076 28.7962C16.9921 28.19 16.5357 27.6167 15.9253 27.5255C16.9585 28.1864 17.1703 29.8264 16.3389 30.728C15.5075 31.6296 13.8557 31.5513 13.1134 30.575C12.5186 29.7926 11.329 29.8884 10.3715 30.1103C9.41395 30.3322 8.28637 30.5644 7.54669 29.9171C9.12918 29.482 10.7576 29.2141 12.3961 29.1193C12.7864 29.0967 12.9395 28.6098 12.9921 28.2224C13.0729 27.6268 13.1537 27.0217 13.0652 26.4272C12.9766 25.8327 12.6941 25.2397 12.1896 24.9129C11.5839 24.5206 10.8018 24.5814 10.084 24.6565L8.17638 24.8561C7.76534 24.8991 7.34293 24.9413 6.9444 24.8318C6.54588 24.7224 6.17091 24.4252 6.0945 24.0191C6.04624 23.7626 6.11968 23.51 6.19371 23.2553C6.24701 23.072 6.30062 22.8875 6.30936 22.6998C6.33425 22.1654 5.98897 21.6756 5.56942 21.3436C5.31237 21.1401 5.02594 20.9801 4.73924 20.8198L4.73923 20.8198C4.558 20.7185 4.37666 20.6172 4.20256 20.5048C3.87486 20.2932 3.53862 19.9513 3.62974 19.5721C3.68801 19.3295 3.9075 19.1614 4.12817 19.045C4.87322 18.6523 5.80449 18.6346 6.5639 18.9989C7.3233 19.3631 7.89249 20.1004 8.0526 20.9272C8.0921 21.1312 8.11005 21.3443 8.12797 21.5569V21.5569C8.1694 22.0487 8.21065 22.5382 8.51793 22.9077C8.88499 23.3491 9.51937 23.4603 10.0928 23.433C10.2894 23.4236 10.486 23.4016 10.6824 23.3796C11.0589 23.3374 11.4347 23.2953 11.809 23.3424C13.0676 23.501 14.0592 24.8105 13.8705 26.0649C13.8601 26.1342 13.8467 26.2042 13.8332 26.2744V26.2744V26.2744V26.2744C13.7852 26.5246 13.7367 26.7773 13.8222 27.0123C13.9316 27.3133 14.4103 27.4735 14.562 27.1915C15.2417 25.9277 16.8005 25.291 18.2257 25.4579C19.6509 25.6248 20.9264 26.483 21.8621 27.5709C22.7978 28.6588 23.4343 29.968 24.0148 31.2803C24.2193 31.7425 24.8281 31.9099 25.3145 31.7724C25.8008 31.6349 26.1868 31.2713 26.5358 30.9057ZM23.9818 33.1083C23.9956 33.1063 24.0276 33.1691 24.076 33.2637C24.1949 33.4966 24.4125 33.9225 24.6993 34.052C24.6866 34.1727 24.4968 34.108 24.4179 34.0159C24.1936 33.7538 23.9556 33.4523 23.9818 33.1083ZM24.6589 35.1769C24.8069 35.3938 23.9202 35.5018 23.6254 35.3125C23.6774 35.3025 23.7458 35.3078 23.8215 35.3137C23.9113 35.3207 24.0115 35.3285 24.1066 35.3125C24.246 35.2891 24.3806 35.2463 24.4821 35.214C24.5807 35.1826 24.6482 35.1612 24.6589 35.1769ZM24.446 34.3706C24.093 34.4311 23.6594 33.961 23.6594 33.5188C23.7611 33.8457 24.1225 34.105 24.3223 34.2483C24.4239 34.3212 24.4836 34.3641 24.446 34.3706ZM25.7106 36.2194C25.2405 36.2194 25.0274 35.4267 25.2405 35.3758C25.2915 35.3527 25.2939 35.4237 25.2975 35.5285C25.3012 35.6388 25.3062 35.7864 25.3703 35.9014C25.4415 36.0292 25.5922 36.1146 25.6802 36.1644C25.7468 36.2021 25.7774 36.2194 25.7106 36.2194ZM26.2344 35.14C26.3376 35.1969 26.4318 35.285 26.4585 35.3998C26.4852 35.5146 26.421 35.6537 26.3056 35.6776C26.2695 35.6245 26.2891 35.5907 26.3098 35.5551C26.3401 35.5028 26.3728 35.4466 26.2344 35.3191C26.1761 35.2654 26.1083 35.242 26.0607 35.2257C26.0241 35.2131 25.9995 35.2046 26.0004 35.1896C26.0064 35.0942 26.1507 35.0939 26.2344 35.14ZM25.3544 34.107C25.3312 34.1232 25.3152 34.1343 25.3289 34.147C25.3714 34.1865 25.4213 34.2054 25.4713 34.1767C25.5094 34.1549 25.5287 34.1105 25.5377 34.0675C25.5878 33.8273 25.3342 33.5793 25.0952 33.6348C25.1164 33.6907 25.157 33.7085 25.2063 33.7303C25.2632 33.7553 25.3316 33.7855 25.3952 33.885C25.4809 34.0191 25.4023 34.0737 25.3544 34.107ZM25.2741 36.3711C24.9972 36.2905 24.7235 35.6367 24.8709 35.5872C24.9628 35.5563 24.9623 35.5613 24.9569 35.613C24.952 35.6604 24.9431 35.747 24.9972 35.8811C25.0645 36.0477 25.1587 36.1829 25.2187 36.269C25.2598 36.328 25.2848 36.364 25.2741 36.3711ZM25.3834 41.5874C25.4333 41.653 25.5474 41.6242 25.5914 41.5544C25.6353 41.4846 25.6298 41.3957 25.6218 41.3136C25.5069 40.1264 25.1988 38.9582 24.7133 37.8688C24.575 37.5585 24.4296 37.1716 24.6413 36.906C25.1308 38.1292 25.6243 39.3677 25.8026 40.6731C25.8512 41.0293 25.8687 41.4195 25.67 41.7193C25.4714 42.019 24.9765 42.134 24.7558 41.8501C25.0952 41.7791 25.3549 41.4354 25.3304 41.0895C25.4872 41.1964 25.5142 41.4499 25.3834 41.5874ZM29.3395 65.1591C31.1154 65.0617 33.1728 64.8053 34.1043 63.2902C34.3459 62.8973 34.2944 62.2796 34.2519 61.7706C34.2178 61.3617 34.1896 61.0229 34.3238 60.9272C34.6252 60.7123 34.8663 61.2664 34.8663 61.2664C34.8713 61.2458 34.8767 61.2225 34.8824 61.197C34.8869 61.177 34.8917 61.1556 34.8967 61.1331C34.9809 60.7556 35.1359 60.0602 35.3794 60.1909C35.4796 60.2446 35.4451 60.5826 35.4214 60.8149C35.4159 60.8695 35.4109 60.9182 35.4084 60.9561C35.4028 60.9919 35.402 61.0219 35.4062 61.0432C35.4096 61.0417 35.4131 61.0398 35.4168 61.0373C35.4194 61.0369 35.4225 61.0345 35.4262 61.0301C35.4656 60.9969 35.5195 60.9147 35.5795 60.8233C35.7039 60.634 35.8543 60.405 35.9551 60.4892C36.1133 60.6213 35.5506 61.465 35.5506 61.465C35.5506 61.465 36.2189 60.7306 36.2753 61.0432C36.3317 61.3557 34.8097 64.1786 33.4358 65.2858C32.062 66.3929 30.1261 67.0127 28.3757 66.7908C28.4148 66.0965 28.6453 65.1972 29.3395 65.1591ZM35.5206 60.6555C35.579 60.5531 35.6585 60.4553 35.757 60.3931C36.2861 60.0584 36.1083 60.5766 36.0259 60.8166C36.005 60.8776 35.9902 60.9207 35.9948 60.9272C36.0022 60.9378 36.0352 60.9137 36.0793 60.8814C36.1609 60.8217 36.2805 60.7342 36.3477 60.7869C36.5279 60.8731 36.3261 61.6505 36.1679 61.9837L36.1462 62.0289C35.3374 63.7057 34.1365 65.2357 32.5323 66.1802C30.9281 67.1248 28.8929 67.4227 27.1698 66.718C26.5671 66.4715 26.0607 67.2223 25.8378 67.8342L25.1707 69.6656C24.8301 70.6008 24.3919 71.6395 23.4633 71.9977C24.2961 74.1688 24.564 76.5538 24.2335 78.8555C24.119 79.6532 23.9083 80.4882 23.33 81.0493C22.3499 82.0003 20.7552 81.7988 19.4474 81.406L18.7856 81.2044C17.6714 80.8689 16.5115 80.5799 15.4564 81.0064C15.2674 81.0828 15.0873 81.1809 14.9075 81.2789C14.6541 81.417 14.4012 81.5548 14.1241 81.6313C13.6504 81.7621 13.0406 81.6345 12.8566 81.1789C13.367 80.1802 14.0756 79.2833 14.9289 78.5554C15.0596 78.4439 15.2142 78.3299 15.3848 78.3497C15.5823 78.3726 15.6915 78.5475 15.8027 78.7258C15.8569 78.8126 15.9115 78.9002 15.9771 78.9715C16.2326 79.2488 16.6546 79.2657 17.0346 79.255L21.3992 79.1134C20.9505 78.0967 20.6522 77.0138 20.5168 75.9108L21.8445 79.2333C20.9244 79.4701 19.9661 79.5582 19.0183 79.493L18.8822 79.4829L18.8112 79.4773C18.4254 79.4465 18.0358 79.4154 17.6649 79.5173C17.2275 79.6375 16.8172 80.0068 16.8235 80.4603L20.5688 81.3351C21.1852 81.4763 21.8371 81.5944 22.4223 81.367C23.3501 81.0064 23.7608 79.9248 23.9152 78.9414C24.0576 78.034 24.0731 77.1068 23.961 76.1951L23.9541 76.1439C23.9373 76.0321 23.9068 75.9182 23.8197 75.8497C23.7366 75.7843 23.6239 75.7783 23.5169 75.7794L20.5404 75.832C20.0085 75.8415 19.8547 75.0758 20.0424 74.5781C20.0855 74.4638 20.1371 74.3488 20.189 74.2332L20.189 74.2331C20.3631 73.8451 20.5397 73.4515 20.4048 73.0645C20.1509 72.3363 19.0682 72.3784 18.4155 72.7892C18.2226 72.9106 18.0375 73.0527 17.8526 73.1945C17.428 73.5204 17.0047 73.8453 16.4908 73.9168L16.4321 73.9238C15.7373 73.9933 15.1632 74.4652 14.6416 74.937L8.2726 80.7442C8.17183 80.8361 8.06153 80.9325 7.92605 80.948C7.79204 80.9634 7.66491 80.8961 7.54933 80.8242L7.52474 80.8087C6.57533 80.2065 5.70465 79.4803 4.94179 78.6544C4.59733 78.2814 5.10659 77.6641 5.61405 77.6496C5.91559 77.641 6.20132 77.7422 6.48851 77.8439L6.48856 77.8439L6.4886 77.8439C6.6847 77.9134 6.88148 77.9831 7.08444 78.0182C8.20701 78.2125 9.21391 77.3476 9.98936 76.513C11.4156 74.9779 12.7106 73.3209 13.8556 71.5661L13.4948 71.1186L18.1975 68.3227C17.9418 68.2905 17.7183 68.0812 17.6696 67.8281C18.9524 67.5791 19.7185 66.2975 20.3035 65.1228L20.3839 64.9611C20.9632 63.8012 21.6901 62.5453 22.9416 62.2484C22.0244 61.2742 20.6001 60.9032 19.2654 60.997C17.9677 61.0882 16.7317 61.5675 15.5453 62.1043L15.4438 62.1505C14.9401 62.3802 14.3805 62.6944 14.2782 63.2384C14.2573 63.3494 14.2577 63.4634 14.2581 63.5771C14.2587 63.723 14.2592 63.8683 14.2149 64.0061C14.1359 64.2513 13.7931 64.4364 13.6255 64.2407C13.7331 64.574 13.3047 64.8989 12.9743 64.7827C12.644 64.6666 12.4828 64.268 12.5278 63.9206C12.5727 63.5733 12.7747 63.2686 12.9811 62.9856C14.6359 60.7171 17.1624 58.8666 19.9703 58.8623C22.3955 58.8587 24.7616 60.3492 25.8054 62.5382C26.0184 62.9849 26.7702 62.8461 26.9911 62.4033C27.212 61.9605 27.0582 61.4258 26.851 60.9765L26.8023 60.8727L26.7745 60.8145L26.7475 60.7583C26.5654 60.3803 26.3806 59.9964 26.3857 59.5815C26.3866 59.5014 26.3948 59.4214 26.403 59.3415L26.403 59.3414C26.4151 59.2231 26.4272 59.1049 26.4159 58.9869C26.4061 58.8855 26.3792 58.7859 26.3524 58.6867C26.3142 58.5453 26.2761 58.4045 26.2882 58.2597C26.3086 58.0135 26.6024 57.773 26.7917 57.9319C26.672 57.235 27.3656 56.527 28.0648 56.6323C28.4224 56.6861 28.7168 56.9013 29.0136 57.1184C29.2354 57.2805 29.4584 57.4436 29.7102 57.5412C30.3137 57.7752 31.0591 57.5693 31.457 57.0588C31.7139 57.4972 31.4624 58.0561 31.1566 58.4619L31.0965 58.5404C31.0723 58.5718 31.0479 58.6032 31.0233 58.6347C30.7501 58.9853 30.4674 59.348 30.4543 59.7839C30.4102 61.259 29.326 62.6439 27.9047 63.0409C27.3448 63.1972 27.3443 64.0821 27.7902 64.4551C28.223 64.8171 28.837 64.8301 29.4041 64.8153L29.6358 64.8085C30.6291 64.7778 31.6446 64.7181 32.5394 64.2935C33.4884 63.8432 34.2713 62.8671 34.1569 61.8229C34.1498 61.7575 34.1394 61.6915 34.1289 61.6253L34.1289 61.6252L34.1289 61.6252C34.0944 61.4067 34.0597 61.1866 34.1414 60.9857C34.2478 60.7238 34.6873 60.6104 34.793 60.8726C34.7269 60.5434 35.099 59.9239 35.4796 59.9733C35.704 60.0024 35.6117 60.3667 35.5206 60.6555ZM35.5206 60.6555C35.509 60.6922 35.4974 60.7277 35.4865 60.7611C35.4378 60.9107 35.4025 61.0191 35.4391 61.0106C35.4341 61.0193 35.4299 61.0257 35.4262 61.0301C35.423 61.0328 35.4199 61.0352 35.4168 61.0373C35.4062 61.039 35.405 61.0076 35.4084 60.9561C35.4213 60.8743 35.4595 60.7624 35.5206 60.6555ZM24.3545 70.6735C24.1461 71.1422 23.8011 71.6938 23.292 71.6316C23.0194 71.5982 22.8135 71.3925 22.6282 71.181L22.5289 71.066C21.4529 69.817 19.9911 68.9868 18.5219 68.2225L18.0325 67.9697C19.2292 67.7343 19.9675 66.5507 20.4947 65.4508L20.6627 65.1003C21.1447 64.101 21.6932 63.0727 22.6875 62.6228C22.8249 62.5606 22.9825 62.5111 23.1242 62.5628C23.135 62.5667 23.1461 62.5708 23.1575 62.5752C23.1691 62.5796 23.1809 62.5841 23.193 62.5888C23.368 62.6561 23.5934 62.7427 23.5898 62.5769C23.2708 62.4483 23.2183 61.983 23.4023 61.6924C23.5703 61.4271 23.8613 61.274 24.1495 61.142L24.2317 61.1048C24.0478 60.8514 23.6495 61.0645 23.4413 61.2984L23.4242 61.3174C23.2153 61.5466 22.8947 61.7975 22.6536 61.6112C21.6574 60.8415 20.3297 60.5944 19.0766 60.7152C17.8235 60.8361 16.6279 61.2943 15.4831 61.8181C15.0635 62.0101 14.6373 62.2194 14.3259 62.5599C14.0851 62.8233 14.0601 63.174 14.035 63.5264C14.0277 63.6295 14.0203 63.7328 14.0075 63.8341C13.9766 64.0792 13.8418 64.0885 13.7231 64.0968C13.6595 64.1012 13.6005 64.1053 13.5645 64.1452C13.5616 64.1484 13.5523 64.1627 13.5383 64.1842C13.4671 64.2937 13.2742 64.5899 13.1871 64.5603C13.0591 64.5169 13.1244 64.2407 13.1244 64.2407C13.1244 64.2407 12.7446 64.3493 12.7164 64.2407C12.6175 63.861 13.1871 63.084 13.1871 63.084C14.1447 61.6753 15.5647 60.5064 17.126 59.8269C18.7162 59.1348 20.5718 59.0012 22.1974 59.6054C24.03 60.2865 25.4813 61.9137 25.9491 63.8121C26.0658 64.2854 26.6163 64.4943 27.0973 64.573L27.1293 64.5781C27.1641 64.5837 27.1992 64.5892 27.2345 64.5947C27.6785 64.6641 28.1506 64.7379 28.4335 65.0768C28.5169 65.1768 28.4939 65.3246 28.4652 65.4516L28.4568 65.4881C28.3513 65.9409 28.1672 66.4476 27.7273 66.5849C27.3275 66.7098 26.8538 66.3875 26.8233 65.9698C26.8206 65.933 26.8198 65.8941 26.8189 65.8546C26.8156 65.6923 26.812 65.5213 26.6757 65.4543L24.3545 70.6735ZM20.5738 73.1493C20.4243 72.3811 19.9699 71.69 19.3738 71.183C19.397 71.485 19.5248 71.7779 19.7302 72.0004C18.72 72.3216 17.7673 72.8229 16.9305 73.4737C16.7065 73.6478 16.326 73.8067 16.1948 73.5551C15.6787 72.5653 14.8571 71.7375 13.8713 71.214L17.9244 68.8849C18.1075 68.7796 18.3013 68.6713 18.5126 68.6692C18.6763 68.6676 18.8319 68.7303 18.98 68.8034L19.0534 68.8405C20.5701 69.6217 21.9278 70.7101 23.0203 72.0205C23.2908 72.345 23.4167 72.7605 23.5238 73.1715L24.0059 75.0549C24.0378 75.1797 24.0613 75.3341 23.9635 75.4179C23.9085 75.4651 23.8311 75.4732 23.7588 75.4788L23.6743 75.4853C22.4741 75.5777 21.5059 75.6522 20.3035 75.4788C20.1241 75.1348 20.2597 74.7085 20.3997 74.2684C20.5196 73.8912 20.6428 73.5038 20.5738 73.1493ZM14.5442 71.9912C14.9939 72.3872 15.3994 72.8335 15.7505 73.319C15.7881 73.371 15.8267 73.429 15.8227 73.493C15.8181 73.5676 15.7576 73.625 15.7013 73.6743L10.4628 78.2592C10.2444 78.4504 9.89594 78.4169 9.65128 78.2607C9.43719 78.124 9.28412 77.9145 9.14368 77.7009L9.08412 77.6093C10.4494 76.8918 11.3251 75.6065 12.2087 74.3098C12.7629 73.4964 13.3201 72.6786 14.0032 71.9935C14.0696 71.9269 14.1445 71.858 14.2379 71.8475C14.3535 71.8345 14.4569 71.9143 14.5442 71.9912ZM29.7994 59.2023L29.9331 59.2434C30.1936 59.324 30.2368 59.6729 30.2037 59.9435C30.0664 61.064 29.3699 62.1731 28.2961 62.5212L28.2577 62.5342C27.558 62.7812 27.0577 63.5132 27.0876 64.2558C26.6179 64.3438 26.1143 63.968 26.065 63.4927C26.0551 63.3979 26.0832 63.2748 26.1773 63.2604C26.6041 63.1948 26.9966 62.9329 27.2209 62.564C27.4453 62.1952 27.4973 61.7262 27.3592 61.3171C27.331 61.2336 27.2952 61.1499 27.2593 61.0661C27.1572 60.828 27.0548 60.5889 27.1265 60.3487C27.2901 60.3638 27.3211 60.5881 27.3038 60.7514L27.3019 60.7713C27.2887 60.9323 27.3171 61.1388 27.4733 61.1604C27.5763 60.9239 27.5977 60.6592 27.619 60.3965C27.6458 60.0648 27.6724 59.7363 27.8626 59.472C28.08 59.1699 28.4701 59.031 28.8424 59.0266C29.1681 59.0228 29.4866 59.1074 29.7994 59.2023ZM6.26217 78.0938L6.29577 78.055C6.48325 78.014 6.66228 78.2541 6.56943 78.422C6.50986 78.5298 6.69306 78.6365 6.79534 78.5679C6.89763 78.4993 6.91826 78.3601 6.92951 78.2375C7.03243 78.2052 7.12145 78.3231 7.14087 78.4292C7.14601 78.4572 7.14919 78.4862 7.15238 78.5153C7.16126 78.596 7.17015 78.677 7.22113 78.7378C7.29042 78.8204 7.474 78.7777 7.44389 78.6741C7.39897 78.5196 7.58145 78.3936 7.74071 78.3708C7.779 78.3653 7.81854 78.362 7.85817 78.3588C7.98341 78.3485 8.10967 78.3382 8.20083 78.2568L8.21458 78.2458C8.33028 78.1638 8.47353 78.3156 8.56085 78.4504L8.60147 78.5158C8.79348 78.8143 9.11986 79.0233 9.47173 79.0711C9.54068 79.0804 9.50561 79.1879 9.45495 79.2356L8.26741 80.354C8.20984 80.4082 8.11656 80.3696 8.04912 80.3283C7.34421 79.8967 6.69347 79.3768 6.11697 78.7845C5.93535 78.5979 6.08938 78.3002 6.26217 78.0938ZM16.6474 80.1753C16.6131 80.3163 16.5158 80.4741 16.3711 80.4635C16.0222 80.4377 15.6685 80.4797 15.3355 80.5866C15.366 80.4445 15.3039 80.287 15.1846 80.2041C15.0976 80.3285 15.1332 80.5214 15.2589 80.6066L14.9268 80.9347L14.7679 80.5694C14.6895 80.5903 14.6872 80.6865 14.6926 80.7747L14.6965 80.8294C14.7124 81.0607 14.5163 81.2855 14.285 81.3011C14.0538 81.3167 13.8292 81.1202 13.8139 80.889C13.7973 80.637 13.9902 80.4257 14.1696 80.248L15.4434 78.9867C15.4705 78.9609 15.5016 78.9369 15.5381 78.9376C15.5785 78.9383 15.6113 78.969 15.6398 78.9977L16.1368 79.4993C16.2332 79.5965 16.1723 79.7454 16.1129 79.8904C16.0518 80.0397 15.9923 80.185 16.1078 80.2659C16.2201 80.2725 16.3137 80.175 16.3569 80.0711C16.3789 80.018 16.3923 79.9621 16.4057 79.9061C16.4185 79.8524 16.4314 79.7986 16.4519 79.7474C16.4938 79.6429 16.5842 79.5435 16.6968 79.5459C16.8093 79.5483 16.8961 79.7091 16.8091 79.7805C16.7163 79.8566 16.6898 79.9803 16.6641 80.1006C16.6587 80.1258 16.6533 80.1508 16.6474 80.1753ZM7.93801 80.733C6.79307 80.1205 5.781 79.2612 4.99104 78.2307C5.09462 78.1325 5.2504 78.2368 5.35059 78.3481L5.3754 78.3771C6.12598 79.3059 7.06862 80.0788 8.12651 80.6328C8.11793 80.7163 8.01205 80.7726 7.93801 80.733ZM13.429 80.4985C13.925 79.8498 14.4745 79.2421 15.0702 78.6837C15.1625 78.5971 15.3543 78.5387 15.3777 78.6631C14.6842 79.325 14.021 80.0186 13.3907 80.741C13.3222 80.6815 13.374 80.5705 13.429 80.4985ZM9.62002 78.8767C9.27393 78.7536 8.96539 78.527 8.74434 78.2336C8.66116 78.1232 8.6087 77.9315 8.73473 77.8747C8.83433 77.8299 8.93002 77.924 8.9995 78.0154L9.05159 78.0862C9.27545 78.3816 9.59476 78.6037 9.94991 78.71C9.95053 78.8048 9.87209 78.8936 9.77799 78.9046C9.72439 78.9109 9.67086 78.8948 9.62002 78.8767ZM26.6036 59.6817C26.7663 59.6855 26.9041 59.8551 26.8745 60.0152L26.8783 60.0175C26.9008 60.1335 26.886 60.2564 26.8366 60.3638C26.6587 60.1893 26.5696 59.9285 26.6036 59.6817ZM29.7032 59.6857C29.7238 59.6838 29.7454 59.6819 29.7673 59.6817C29.7947 59.6814 29.8264 59.6863 29.8562 59.6909C29.9368 59.7033 30.0042 59.7138 29.9405 59.6141C29.8532 59.4775 29.5979 59.4621 29.556 59.6187C29.5677 59.6976 29.6286 59.6922 29.7032 59.6857ZM29.9088 60.3613L29.9124 60.3471C29.9745 60.1119 29.9386 59.9263 29.7673 59.9263C29.7011 59.9314 29.6002 60.268 29.6098 60.3701C29.6195 60.4722 29.7345 60.5666 29.8236 60.516C29.8765 60.4859 29.8934 60.4206 29.9088 60.3613ZM28.7785 60.2898C28.6591 60.1239 28.6465 59.8877 28.7478 59.7101C28.7629 59.6836 28.7811 59.6575 28.8076 59.6423C28.8746 59.6039 28.9643 59.6559 28.9938 59.7273C29.0233 59.7987 29.0105 59.8797 28.9971 59.9557C28.9971 59.9557 28.898 60.4558 28.7785 60.2898ZM46.9562 60.3261C49.4921 59.9698 52.0646 60.241 54.5772 60.7589C56.1175 61.0764 56.0916 60.6264 55.9871 58.8099C55.9611 58.358 55.9302 57.8214 55.9174 57.1911C55.9 56.3383 56.0956 55.8786 56.289 55.424C56.3905 55.1853 56.4915 54.9481 56.5607 54.656L56.5703 54.6155C56.7122 54.0043 56.8085 53.2874 56.3778 52.8373C56.0176 52.4609 55.4568 52.4434 54.9187 52.4547L54.609 52.4621C53.9868 52.4741 53.2178 52.2813 53.0812 51.6742L53.0735 51.6427C52.9264 51.0774 52.2851 50.6874 51.7155 50.8245C51.1353 50.9641 50.7378 51.6246 50.8861 52.2026C50.9486 52.4464 50.5977 52.5633 50.3461 52.5633L48.5458 52.5637C48.2199 52.5638 47.7601 52.7396 47.8755 53.0443C48.1159 53.6795 48.0988 54.408 47.8288 55.0312C47.0426 54.6655 45.9829 55.2964 45.9295 56.1618C45.8762 57.0272 46.8503 57.7834 47.6755 57.5171C47.3882 58.4404 47.148 59.3784 46.9562 60.3261ZM54.0832 60.2947C51.901 59.7594 49.6213 59.624 47.3911 59.8977C47.7782 58.9959 47.9481 58.0017 47.8825 57.0226C47.3014 57.4298 46.3473 56.9521 46.3253 56.2428C46.3032 55.5335 47.2259 54.9974 47.8312 55.3679C47.9916 55.4661 48.168 55.2625 48.2321 55.0856C48.4507 54.4832 48.4528 53.8049 48.2381 53.2011C48.1544 52.966 48.5093 52.8384 48.7588 52.8434L50.8766 52.8853C51.0188 52.8881 51.1698 52.8887 51.2912 52.8146C51.4127 52.7406 51.4817 52.5625 51.3924 52.4518C51.026 51.997 51.4471 51.1833 52.03 51.2199C52.6128 51.2565 52.9289 52.1166 52.5084 52.5219C52.43 52.5975 52.5824 52.6948 52.6913 52.6973L55.4603 52.761C56.011 52.7737 56.4002 53.3604 56.4227 53.9108C56.4417 54.3766 56.2763 54.8227 56.1129 55.2633C56.0987 55.3017 56.0844 55.3401 56.0703 55.3784L56.0252 55.503C55.5347 56.8792 55.3769 58.3726 55.5688 59.8209C55.6062 60.1034 55.3461 60.3548 55.0677 60.416C54.8221 60.4699 54.5692 60.4164 54.3233 60.3549L54.0832 60.2947Z" fill="#00160A"/>
<path fill-rule="evenodd" clip-rule="evenodd" d="M24.5682 34.9518C24.5884 34.8212 24.7623 34.7459 24.888 34.7907C25.0137 34.8355 25.1259 35.0157 25.0338 35.1177C24.888 35.2792 24.5291 35.2051 24.5682 34.9518Z" fill="#FFB61D"/>
<path fill-rule="evenodd" clip-rule="evenodd" d="M79.2893 68.749C79.2071 68.8179 79.0422 68.8429 79.0269 68.7367C79.3477 68.4104 79.5683 67.9869 79.6521 67.5371C79.7568 67.5091 79.787 67.6758 79.7608 67.781C79.6723 68.1354 79.569 68.5141 79.2893 68.749Z" fill="#00160A"/>
<path d="M8.48349 29.8716C8.48024 29.9768 8.32067 29.9707 8.22417 29.9287C8.25891 29.8348 8.39972 29.8034 8.47105 29.8736L8.48349 29.8716Z" fill="black"/>
<path fill-rule="evenodd" clip-rule="evenodd" d="M54.0181 58.7691C53.9069 58.868 53.7199 58.7168 53.7364 58.5689C53.7529 58.421 53.884 58.3152 54.0097 58.2355C54.4602 57.9501 54.9819 57.7781 55.5138 57.7397C55.5281 57.9425 55.2652 58.0263 55.0656 58.0652C54.6421 58.1478 54.2387 58.3313 53.8981 58.5961C53.9597 58.6339 54.0043 58.6982 54.0181 58.7691V58.7691Z" fill="#00160A"/>
<path fill-rule="evenodd" clip-rule="evenodd" d="M55.5289 59.0289C55.2793 59.1493 55.0253 59.2606 54.7675 59.3625C54.7968 59.4712 54.9531 59.4676 55.059 59.4294C55.1649 59.3912 55.3043 59.351 55.373 59.4402C55.1987 59.7062 54.7669 59.7477 54.5451 59.5197C54.4487 59.4207 54.2743 59.4859 54.1498 59.4257C53.9716 59.3397 54.0048 59.0707 54.1097 58.9029C54.3287 58.5527 54.7463 58.3367 55.1587 58.3604C55.3157 58.3694 55.5033 58.4469 55.5137 58.6039C55.0212 58.5729 54.5191 58.776 54.1866 59.1406C54.3754 59.2868 54.6465 59.1777 54.8595 59.0698C55.0725 58.9618 55.3539 58.8664 55.5289 59.0289Z" fill="#00160A"/>
<path fill-rule="evenodd" clip-rule="evenodd" d="M29.3101 60.4255C29.4515 60.5669 29.5102 60.6316 29.5102 60.8397C29.5102 61.0477 29.3973 61.1812 29.2069 61.2423C29.1191 61.2705 28.9975 61.249 28.9747 61.1596C29.6093 61.0299 29.3761 60.7533 29.3101 60.4255Z" fill="#00160A"/>
<path fill-rule="evenodd" clip-rule="evenodd" d="M28.4634 59.5391C28.5311 59.3146 28.8256 59.1933 29.0318 59.3049C29.1134 59.3491 29.1812 59.4295 29.1854 59.5222C28.9448 59.5278 28.7466 59.3722 28.4634 59.5391Z" fill="#00160A"/>
<path fill-rule="evenodd" clip-rule="evenodd" d="M29.0396 61.5473C27.6971 60.8019 28.7481 61.757 29.0396 61.5473Z" fill="#00160A"/>
</svg>
